%FSLAX44Y44*%
%MOMM*%
G71*
G01*
G75*
G04 Layer_Physical_Order=2*
G04 Layer_Color=16711680*
G04:AMPARAMS|DCode=10|XSize=0.7112mm|YSize=0.8128mm|CornerRadius=0.0711mm|HoleSize=0mm|Usage=FLASHONLY|Rotation=270.000|XOffset=0mm|YOffset=0mm|HoleType=Round|Shape=RoundedRectangle|*
%AMROUNDEDRECTD10*
21,1,0.7112,0.6706,0,0,270.0*
21,1,0.5690,0.8128,0,0,270.0*
1,1,0.1422,-0.3353,-0.2845*
1,1,0.1422,-0.3353,0.2845*
1,1,0.1422,0.3353,0.2845*
1,1,0.1422,0.3353,-0.2845*
%
%ADD10ROUNDEDRECTD10*%
G04:AMPARAMS|DCode=11|XSize=0.7112mm|YSize=0.8128mm|CornerRadius=0.0711mm|HoleSize=0mm|Usage=FLASHONLY|Rotation=180.000|XOffset=0mm|YOffset=0mm|HoleType=Round|Shape=RoundedRectangle|*
%AMROUNDEDRECTD11*
21,1,0.7112,0.6706,0,0,180.0*
21,1,0.5690,0.8128,0,0,180.0*
1,1,0.1422,-0.2845,0.3353*
1,1,0.1422,0.2845,0.3353*
1,1,0.1422,0.2845,-0.3353*
1,1,0.1422,-0.2845,-0.3353*
%
%ADD11ROUNDEDRECTD11*%
G04:AMPARAMS|DCode=12|XSize=0.75mm|YSize=1.5mm|CornerRadius=0.075mm|HoleSize=0mm|Usage=FLASHONLY|Rotation=90.000|XOffset=0mm|YOffset=0mm|HoleType=Round|Shape=RoundedRectangle|*
%AMROUNDEDRECTD12*
21,1,0.7500,1.3500,0,0,90.0*
21,1,0.6000,1.5000,0,0,90.0*
1,1,0.1500,0.6750,0.3000*
1,1,0.1500,0.6750,-0.3000*
1,1,0.1500,-0.6750,-0.3000*
1,1,0.1500,-0.6750,0.3000*
%
%ADD12ROUNDEDRECTD12*%
%ADD13R,1.2000X1.5000*%
%ADD14R,1.5000X1.2000*%
%ADD15R,1.5000X0.8000*%
%ADD16R,1.7000X1.4000*%
%ADD17R,1.2000X3.0000*%
%ADD18C,0.2540*%
%ADD19C,3.6000*%
%ADD20R,1.5000X1.5000*%
%ADD21C,1.5000*%
%ADD22C,1.5240*%
%ADD23R,1.5240X1.5240*%
%ADD24C,3.2000*%
%ADD25C,1.2700*%
G36*
X636367Y519333D02*
X635881Y518160D01*
X624840D01*
Y497840D01*
X645160D01*
Y508881D01*
X646333Y509367D01*
X647700Y508000D01*
Y393700D01*
X667144Y374255D01*
X666471Y373133D01*
X664035Y373872D01*
X660400Y374230D01*
X656766Y373872D01*
X653271Y372812D01*
X650050Y371090D01*
X647227Y368773D01*
X644910Y365950D01*
X643188Y362729D01*
X642128Y359235D01*
X641770Y355600D01*
X642128Y351965D01*
X643188Y348471D01*
X644910Y345250D01*
X647227Y342427D01*
X650050Y340110D01*
X653271Y338388D01*
X656766Y337328D01*
X660400Y336970D01*
X664035Y337328D01*
X667529Y338388D01*
X670750Y340110D01*
X671952Y341096D01*
X673100Y340553D01*
Y316084D01*
X671952Y315541D01*
X671867Y315611D01*
X668298Y317518D01*
X664426Y318693D01*
X660400Y319089D01*
X656374Y318693D01*
X652502Y317518D01*
X648933Y315611D01*
X645806Y313044D01*
X643239Y309917D01*
X641332Y306348D01*
X640157Y302477D01*
X639761Y298450D01*
X640157Y294424D01*
X641332Y290552D01*
X643239Y286983D01*
X645806Y283856D01*
X648933Y281289D01*
X652502Y279382D01*
X656374Y278207D01*
X660400Y277811D01*
X664426Y278207D01*
X668298Y279382D01*
X671867Y281289D01*
X671952Y281359D01*
X673100Y280816D01*
Y239884D01*
X671952Y239341D01*
X671867Y239411D01*
X668298Y241318D01*
X664426Y242493D01*
X661670Y242764D01*
Y222250D01*
Y201736D01*
X664426Y202007D01*
X668298Y203182D01*
X671867Y205089D01*
X671952Y205159D01*
X673100Y204616D01*
Y144634D01*
X671952Y144091D01*
X671867Y144161D01*
X668298Y146068D01*
X664426Y147243D01*
X660400Y147639D01*
X656374Y147243D01*
X652502Y146068D01*
X648933Y144161D01*
X645806Y141594D01*
X643239Y138467D01*
X641332Y134898D01*
X640157Y131026D01*
X639761Y127000D01*
X640157Y122973D01*
X641332Y119102D01*
X643239Y115533D01*
X645806Y112406D01*
X648933Y109839D01*
X652502Y107932D01*
X656374Y106757D01*
X660400Y106361D01*
X664426Y106757D01*
X668298Y107932D01*
X671867Y109839D01*
X671952Y109909D01*
X673100Y109366D01*
Y91247D01*
X671952Y90704D01*
X670750Y91690D01*
X667529Y93412D01*
X664035Y94472D01*
X660400Y94830D01*
X656766Y94472D01*
X653271Y93412D01*
X650050Y91690D01*
X647227Y89373D01*
X644910Y86550D01*
X643188Y83329D01*
X642128Y79834D01*
X641770Y76200D01*
X642128Y72565D01*
X643188Y69071D01*
X644910Y65850D01*
X647227Y63027D01*
X650050Y60710D01*
X653271Y58988D01*
X656766Y57928D01*
X660400Y57570D01*
X664035Y57928D01*
X667529Y58988D01*
X670750Y60710D01*
X671952Y61696D01*
X673100Y61153D01*
Y38100D01*
X647700Y12700D01*
X154747D01*
X154204Y13848D01*
X155190Y15050D01*
X156912Y18271D01*
X157972Y21765D01*
X158330Y25400D01*
X157972Y29035D01*
X156912Y32529D01*
X155190Y35750D01*
X152873Y38573D01*
X150050Y40890D01*
X146829Y42612D01*
X143335Y43672D01*
X139700Y44030D01*
X136066Y43672D01*
X132571Y42612D01*
X129350Y40890D01*
X126527Y38573D01*
X124210Y35750D01*
X122488Y32529D01*
X121428Y29035D01*
X121070Y25400D01*
X121428Y21765D01*
X122488Y18271D01*
X124210Y15050D01*
X125196Y13848D01*
X124653Y12700D01*
X12700D01*
Y520700D01*
X137353D01*
X137896Y519552D01*
X136910Y518350D01*
X135188Y515129D01*
X134128Y511634D01*
X133770Y508000D01*
X134128Y504366D01*
X135188Y500871D01*
X136910Y497650D01*
X139227Y494827D01*
X142050Y492510D01*
X145271Y490788D01*
X148765Y489728D01*
X152400Y489370D01*
X156034Y489728D01*
X159529Y490788D01*
X162750Y492510D01*
X165573Y494827D01*
X167890Y497650D01*
X169612Y500871D01*
X170672Y504366D01*
X171030Y508000D01*
X170672Y511634D01*
X169612Y515129D01*
X167890Y518350D01*
X166904Y519552D01*
X167447Y520700D01*
X635000D01*
X636367Y519333D01*
D02*
G37*
%LPC*%
G36*
X458470Y206809D02*
Y198120D01*
X467159D01*
X466982Y199471D01*
X465970Y201913D01*
X464361Y204011D01*
X462263Y205620D01*
X459821Y206632D01*
X458470Y206809D01*
D02*
G37*
G36*
X467159Y195580D02*
X458470D01*
Y186891D01*
X459821Y187068D01*
X462263Y188080D01*
X464361Y189689D01*
X465970Y191787D01*
X466982Y194229D01*
X467159Y195580D01*
D02*
G37*
G36*
X455930Y206809D02*
X454579Y206632D01*
X452137Y205620D01*
X450039Y204011D01*
X448430Y201913D01*
X447418Y199471D01*
X447241Y198120D01*
X455930D01*
Y206809D01*
D02*
G37*
G36*
X549910Y265430D02*
X542380D01*
X542519Y264379D01*
X543415Y262217D01*
X544840Y260360D01*
X546697Y258935D01*
X548859Y258039D01*
X549910Y257901D01*
Y265430D01*
D02*
G37*
G36*
X559980D02*
X552450D01*
Y257901D01*
X553501Y258039D01*
X555663Y258935D01*
X557520Y260360D01*
X558945Y262217D01*
X559841Y264379D01*
X559980Y265430D01*
D02*
G37*
G36*
X659130Y220980D02*
X639886D01*
X640157Y218223D01*
X641332Y214352D01*
X643239Y210783D01*
X645806Y207656D01*
X648933Y205089D01*
X652502Y203182D01*
X656374Y202007D01*
X659130Y201736D01*
Y220980D01*
D02*
G37*
G36*
Y242764D02*
X656374Y242493D01*
X652502Y241318D01*
X648933Y239411D01*
X645806Y236844D01*
X643239Y233717D01*
X641332Y230148D01*
X640157Y226276D01*
X639886Y223520D01*
X659130D01*
Y242764D01*
D02*
G37*
G36*
X518040Y206890D02*
X497960D01*
Y186810D01*
X512397D01*
X512883Y185637D01*
X505253Y178007D01*
X504411Y176747D01*
X504115Y175260D01*
Y155333D01*
X503517Y155085D01*
X501660Y153660D01*
X500235Y151803D01*
X499339Y149641D01*
X499033Y147320D01*
X499339Y144999D01*
X500235Y142837D01*
X501660Y140980D01*
X503517Y139555D01*
X505679Y138659D01*
X508000Y138353D01*
X510321Y138659D01*
X512483Y139555D01*
X514340Y140980D01*
X515765Y142837D01*
X516661Y144999D01*
X516967Y147320D01*
X516661Y149641D01*
X515765Y151803D01*
X514340Y153660D01*
X512483Y155085D01*
X511885Y155333D01*
Y173651D01*
X520402Y182169D01*
X521479Y181449D01*
X520929Y180121D01*
X520790Y179070D01*
X538390D01*
X538251Y180121D01*
X537355Y182283D01*
X535930Y184140D01*
X534073Y185565D01*
X531911Y186461D01*
X530235Y186682D01*
X530214Y186684D01*
Y186795D01*
Y186798D01*
Y186811D01*
Y186822D01*
Y186834D01*
Y186847D01*
Y186849D01*
Y187801D01*
Y187803D01*
Y187816D01*
Y187828D01*
Y187839D01*
Y187852D01*
Y187855D01*
Y187966D01*
X530235Y187968D01*
X531911Y188189D01*
X534073Y189085D01*
X535930Y190510D01*
X537355Y192367D01*
X538251Y194529D01*
X538557Y196850D01*
X538251Y199171D01*
X537355Y201333D01*
X535930Y203190D01*
X534073Y204615D01*
X531911Y205511D01*
X529590Y205817D01*
X527269Y205511D01*
X525107Y204615D01*
X523250Y203190D01*
X521825Y201333D01*
X520929Y199171D01*
X520623Y196850D01*
X520929Y194529D01*
X521177Y193930D01*
X519213Y191967D01*
X518040Y192453D01*
Y206890D01*
D02*
G37*
G36*
X643800Y176530D02*
X636270D01*
Y169000D01*
X637321Y169139D01*
X639483Y170035D01*
X641340Y171460D01*
X642765Y173317D01*
X643661Y175479D01*
X643800Y176530D01*
D02*
G37*
G36*
X633730D02*
X626200D01*
X626339Y175479D01*
X627235Y173317D01*
X628660Y171460D01*
X630517Y170035D01*
X632679Y169139D01*
X633730Y169000D01*
Y176530D01*
D02*
G37*
G36*
Y186600D02*
X632679Y186461D01*
X630517Y185565D01*
X628660Y184140D01*
X627235Y182283D01*
X626339Y180121D01*
X626200Y179070D01*
X633730D01*
Y186600D01*
D02*
G37*
G36*
X455930Y195580D02*
X447241D01*
X447418Y194229D01*
X448430Y191787D01*
X450039Y189689D01*
X452137Y188080D01*
X454579Y187068D01*
X455930Y186891D01*
Y195580D01*
D02*
G37*
G36*
X482600Y206977D02*
X479979Y206632D01*
X477537Y205620D01*
X475439Y204011D01*
X473830Y201913D01*
X472818Y199471D01*
X472473Y196850D01*
X472818Y194229D01*
X473830Y191787D01*
X475439Y189689D01*
X477537Y188080D01*
X479979Y187068D01*
X482600Y186723D01*
X485221Y187068D01*
X487663Y188080D01*
X489761Y189689D01*
X491370Y191787D01*
X492382Y194229D01*
X492727Y196850D01*
X492382Y199471D01*
X491370Y201913D01*
X489761Y204011D01*
X487663Y205620D01*
X485221Y206632D01*
X482600Y206977D01*
D02*
G37*
G36*
X636270Y186600D02*
Y179070D01*
X643800D01*
X643661Y180121D01*
X642765Y182283D01*
X641340Y184140D01*
X639483Y185565D01*
X637321Y186461D01*
X636270Y186600D01*
D02*
G37*
G36*
X518160Y308519D02*
X517109Y308381D01*
X514947Y307485D01*
X513090Y306060D01*
X511665Y304203D01*
X510769Y302041D01*
X510630Y300990D01*
X518160D01*
Y308519D01*
D02*
G37*
G36*
X351699Y303530D02*
X344170D01*
Y296000D01*
X345221Y296139D01*
X347383Y297035D01*
X349240Y298460D01*
X350665Y300317D01*
X351561Y302479D01*
X351699Y303530D01*
D02*
G37*
G36*
X341630D02*
X334100D01*
X334239Y302479D01*
X335135Y300317D01*
X336560Y298460D01*
X338417Y297035D01*
X340579Y296139D01*
X341630Y296000D01*
Y303530D01*
D02*
G37*
G36*
X520700Y308519D02*
Y300990D01*
X528229D01*
X528091Y302041D01*
X527195Y304203D01*
X525770Y306060D01*
X523913Y307485D01*
X521751Y308381D01*
X520700Y308519D01*
D02*
G37*
G36*
X341630Y313599D02*
X340579Y313461D01*
X338417Y312565D01*
X336560Y311140D01*
X335135Y309283D01*
X334239Y307121D01*
X334100Y306070D01*
X341630D01*
Y313599D01*
D02*
G37*
G36*
X118020Y309880D02*
X110490D01*
Y302351D01*
X111541Y302489D01*
X113703Y303385D01*
X115560Y304810D01*
X116985Y306667D01*
X117881Y308829D01*
X118020Y309880D01*
D02*
G37*
G36*
X107950D02*
X100421D01*
X100559Y308829D01*
X101455Y306667D01*
X102880Y304810D01*
X104737Y303385D01*
X106899Y302489D01*
X107950Y302351D01*
Y309880D01*
D02*
G37*
G36*
X469900Y302169D02*
Y294640D01*
X477430D01*
X477291Y295691D01*
X476395Y297853D01*
X474970Y299710D01*
X473113Y301135D01*
X470951Y302031D01*
X469900Y302169D01*
D02*
G37*
G36*
X467360Y292100D02*
X459831D01*
X459969Y291049D01*
X460865Y288887D01*
X462290Y287030D01*
X464147Y285605D01*
X466309Y284709D01*
X467360Y284571D01*
Y292100D01*
D02*
G37*
G36*
X552450Y275499D02*
Y267970D01*
X559980D01*
X559841Y269021D01*
X558945Y271183D01*
X557520Y273040D01*
X555663Y274465D01*
X553501Y275361D01*
X552450Y275499D01*
D02*
G37*
G36*
X549910D02*
X548859Y275361D01*
X546697Y274465D01*
X544840Y273040D01*
X543415Y271183D01*
X542519Y269021D01*
X542380Y267970D01*
X549910D01*
Y275499D01*
D02*
G37*
G36*
X477430Y292100D02*
X469900D01*
Y284571D01*
X470951Y284709D01*
X473113Y285605D01*
X474970Y287030D01*
X476395Y288887D01*
X477291Y291049D01*
X477430Y292100D01*
D02*
G37*
G36*
X467360Y302169D02*
X466309Y302031D01*
X464147Y301135D01*
X462290Y299710D01*
X460865Y297853D01*
X459969Y295691D01*
X459831Y294640D01*
X467360D01*
Y302169D01*
D02*
G37*
G36*
X528229Y298450D02*
X520700D01*
Y290921D01*
X521751Y291059D01*
X523913Y291955D01*
X525770Y293380D01*
X527195Y295237D01*
X528091Y297399D01*
X528229Y298450D01*
D02*
G37*
G36*
X518160D02*
X510630D01*
X510769Y297399D01*
X511665Y295237D01*
X513090Y293380D01*
X514947Y291955D01*
X517109Y291059D01*
X518160Y290921D01*
Y298450D01*
D02*
G37*
G36*
X538390Y176530D02*
X530860D01*
Y169000D01*
X531911Y169139D01*
X534073Y170035D01*
X535930Y171460D01*
X537355Y173317D01*
X538251Y175479D01*
X538390Y176530D01*
D02*
G37*
G36*
X416480Y24130D02*
X407670D01*
Y15319D01*
X409052Y15502D01*
X411524Y16525D01*
X413646Y18154D01*
X415275Y20276D01*
X416298Y22748D01*
X416480Y24130D01*
D02*
G37*
G36*
X405130D02*
X396320D01*
X396502Y22748D01*
X397525Y20276D01*
X399154Y18154D01*
X401276Y16525D01*
X403748Y15502D01*
X405130Y15319D01*
Y24130D01*
D02*
G37*
G36*
X467360Y35560D02*
X447040D01*
Y15240D01*
X467360D01*
Y35560D01*
D02*
G37*
G36*
X430530Y24130D02*
X421720D01*
X421902Y22748D01*
X422925Y20276D01*
X424554Y18154D01*
X426676Y16525D01*
X429148Y15502D01*
X430530Y15319D01*
Y24130D01*
D02*
G37*
G36*
X24130D02*
X16601D01*
X16739Y23079D01*
X17635Y20917D01*
X19060Y19060D01*
X20917Y17635D01*
X23079Y16739D01*
X24130Y16601D01*
Y24130D01*
D02*
G37*
G36*
X254000Y34367D02*
X251679Y34061D01*
X249517Y33165D01*
X247660Y31740D01*
X246235Y29883D01*
X245339Y27721D01*
X245033Y25400D01*
X245339Y23079D01*
X246235Y20917D01*
X247660Y19060D01*
X249517Y17635D01*
X251679Y16739D01*
X254000Y16433D01*
X256321Y16739D01*
X258483Y17635D01*
X260340Y19060D01*
X261765Y20917D01*
X262661Y23079D01*
X262967Y25400D01*
X262661Y27721D01*
X261765Y29883D01*
X260340Y31740D01*
X258483Y33165D01*
X256321Y34061D01*
X254000Y34367D01*
D02*
G37*
G36*
X441880Y24130D02*
X433070D01*
Y15319D01*
X434452Y15502D01*
X436924Y16525D01*
X439046Y18154D01*
X440675Y20276D01*
X441698Y22748D01*
X441880Y24130D01*
D02*
G37*
G36*
X330200Y35648D02*
X327548Y35299D01*
X325076Y34275D01*
X322954Y32646D01*
X321325Y30524D01*
X320302Y28052D01*
X319952Y25400D01*
X320302Y22748D01*
X321325Y20276D01*
X322954Y18154D01*
X325076Y16525D01*
X327548Y15502D01*
X330200Y15152D01*
X332852Y15502D01*
X335324Y16525D01*
X337446Y18154D01*
X339075Y20276D01*
X340098Y22748D01*
X340448Y25400D01*
X340098Y28052D01*
X339075Y30524D01*
X337446Y32646D01*
X335324Y34275D01*
X332852Y35299D01*
X330200Y35648D01*
D02*
G37*
G36*
X304800D02*
X302148Y35299D01*
X299676Y34275D01*
X297554Y32646D01*
X295925Y30524D01*
X294902Y28052D01*
X294552Y25400D01*
X294902Y22748D01*
X295925Y20276D01*
X297554Y18154D01*
X299676Y16525D01*
X302148Y15502D01*
X304800Y15152D01*
X307452Y15502D01*
X309924Y16525D01*
X312046Y18154D01*
X313675Y20276D01*
X314699Y22748D01*
X315048Y25400D01*
X314699Y28052D01*
X313675Y30524D01*
X312046Y32646D01*
X309924Y34275D01*
X307452Y35299D01*
X304800Y35648D01*
D02*
G37*
G36*
X279400D02*
X276748Y35299D01*
X274276Y34275D01*
X272154Y32646D01*
X270525Y30524D01*
X269501Y28052D01*
X269152Y25400D01*
X269501Y22748D01*
X270525Y20276D01*
X272154Y18154D01*
X274276Y16525D01*
X276748Y15502D01*
X279400Y15152D01*
X282052Y15502D01*
X284524Y16525D01*
X286646Y18154D01*
X288275Y20276D01*
X289298Y22748D01*
X289648Y25400D01*
X289298Y28052D01*
X288275Y30524D01*
X286646Y32646D01*
X284524Y34275D01*
X282052Y35299D01*
X279400Y35648D01*
D02*
G37*
G36*
X355600D02*
X352948Y35299D01*
X350476Y34275D01*
X348354Y32646D01*
X346725Y30524D01*
X345701Y28052D01*
X345352Y25400D01*
X345701Y22748D01*
X346725Y20276D01*
X348354Y18154D01*
X350476Y16525D01*
X352948Y15502D01*
X355600Y15152D01*
X358252Y15502D01*
X360724Y16525D01*
X362846Y18154D01*
X364475Y20276D01*
X365499Y22748D01*
X365848Y25400D01*
X365499Y28052D01*
X364475Y30524D01*
X362846Y32646D01*
X360724Y34275D01*
X358252Y35299D01*
X355600Y35648D01*
D02*
G37*
G36*
X635000D02*
X632348Y35299D01*
X629876Y34275D01*
X627754Y32646D01*
X626125Y30524D01*
X625102Y28052D01*
X624752Y25400D01*
X625102Y22748D01*
X626125Y20276D01*
X627754Y18154D01*
X629876Y16525D01*
X632348Y15502D01*
X635000Y15152D01*
X637652Y15502D01*
X640124Y16525D01*
X642246Y18154D01*
X643875Y20276D01*
X644899Y22748D01*
X645248Y25400D01*
X644899Y28052D01*
X643875Y30524D01*
X642246Y32646D01*
X640124Y34275D01*
X637652Y35299D01*
X635000Y35648D01*
D02*
G37*
G36*
X609600D02*
X606948Y35299D01*
X604476Y34275D01*
X602354Y32646D01*
X600725Y30524D01*
X599701Y28052D01*
X599352Y25400D01*
X599701Y22748D01*
X600725Y20276D01*
X602354Y18154D01*
X604476Y16525D01*
X606948Y15502D01*
X609600Y15152D01*
X612252Y15502D01*
X614724Y16525D01*
X616846Y18154D01*
X618475Y20276D01*
X619498Y22748D01*
X619848Y25400D01*
X619498Y28052D01*
X618475Y30524D01*
X616846Y32646D01*
X614724Y34275D01*
X612252Y35299D01*
X609600Y35648D01*
D02*
G37*
G36*
X381000D02*
X378348Y35299D01*
X375876Y34275D01*
X373754Y32646D01*
X372125Y30524D01*
X371101Y28052D01*
X370752Y25400D01*
X371101Y22748D01*
X372125Y20276D01*
X373754Y18154D01*
X375876Y16525D01*
X378348Y15502D01*
X381000Y15152D01*
X383652Y15502D01*
X386124Y16525D01*
X388246Y18154D01*
X389875Y20276D01*
X390899Y22748D01*
X391248Y25400D01*
X390899Y28052D01*
X389875Y30524D01*
X388246Y32646D01*
X386124Y34275D01*
X383652Y35299D01*
X381000Y35648D01*
D02*
G37*
G36*
X34200Y24130D02*
X26670D01*
Y16601D01*
X27721Y16739D01*
X29883Y17635D01*
X31740Y19060D01*
X33165Y20917D01*
X34061Y23079D01*
X34200Y24130D01*
D02*
G37*
G36*
X620939Y124460D02*
X613410D01*
Y116931D01*
X614461Y117069D01*
X616623Y117965D01*
X618480Y119390D01*
X619905Y121247D01*
X620801Y123409D01*
X620939Y124460D01*
D02*
G37*
G36*
X610870D02*
X603340D01*
X603479Y123409D01*
X604375Y121247D01*
X605800Y119390D01*
X607657Y117965D01*
X609819Y117069D01*
X610870Y116931D01*
Y124460D01*
D02*
G37*
G36*
X609600Y96839D02*
X605574Y96443D01*
X601702Y95268D01*
X598133Y93361D01*
X595006Y90794D01*
X592439Y87667D01*
X590532Y84098D01*
X589357Y80226D01*
X588961Y76200D01*
X589357Y72174D01*
X590532Y68302D01*
X592439Y64733D01*
X594285Y62484D01*
Y56219D01*
X581453Y43387D01*
X580611Y42127D01*
X580315Y40640D01*
Y34788D01*
X579076Y34275D01*
X576954Y32646D01*
X575325Y30524D01*
X574301Y28052D01*
X573952Y25400D01*
X574301Y22748D01*
X575325Y20276D01*
X576954Y18154D01*
X579076Y16525D01*
X581548Y15502D01*
X584200Y15152D01*
X586852Y15502D01*
X589324Y16525D01*
X591446Y18154D01*
X593075Y20276D01*
X594099Y22748D01*
X594448Y25400D01*
X594099Y28052D01*
X593075Y30524D01*
X591446Y32646D01*
X589324Y34275D01*
X588085Y34788D01*
Y39031D01*
X600917Y51863D01*
X601759Y53123D01*
X601808Y53370D01*
X602055Y54610D01*
Y55959D01*
X603075Y56715D01*
X605574Y55957D01*
X609600Y55561D01*
X613627Y55957D01*
X617498Y57132D01*
X621067Y59039D01*
X624194Y61606D01*
X626761Y64733D01*
X628668Y68302D01*
X629843Y72174D01*
X630239Y76200D01*
X629843Y80226D01*
X628668Y84098D01*
X626761Y87667D01*
X624194Y90794D01*
X621067Y93361D01*
X617498Y95268D01*
X613627Y96443D01*
X609600Y96839D01*
D02*
G37*
G36*
X610870Y134529D02*
X609819Y134391D01*
X607657Y133495D01*
X605800Y132070D01*
X604375Y130213D01*
X603479Y128051D01*
X603340Y127000D01*
X610870D01*
Y134529D01*
D02*
G37*
G36*
X528320Y176530D02*
X520790D01*
X520929Y175479D01*
X521825Y173317D01*
X523250Y171460D01*
X525107Y170035D01*
X527269Y169139D01*
X528320Y169000D01*
Y176530D01*
D02*
G37*
G36*
X154940Y232487D02*
X152619Y232181D01*
X150457Y231285D01*
X148600Y229860D01*
X147175Y228003D01*
X146279Y225841D01*
X145973Y223520D01*
X146279Y221199D01*
X147175Y219037D01*
X148600Y217180D01*
X150457Y215755D01*
X152619Y214859D01*
X154940Y214553D01*
X157261Y214859D01*
X157859Y215107D01*
X223997Y148969D01*
X223749Y148371D01*
X223443Y146050D01*
X223749Y143729D01*
X224645Y141567D01*
X226070Y139710D01*
X227927Y138285D01*
X230089Y137389D01*
X232410Y137083D01*
X234731Y137389D01*
X236893Y138285D01*
X238750Y139710D01*
X240175Y141567D01*
X241071Y143729D01*
X241377Y146050D01*
X241071Y148371D01*
X240175Y150533D01*
X238750Y152390D01*
X236893Y153815D01*
X234731Y154711D01*
X232410Y155017D01*
X230089Y154711D01*
X229491Y154463D01*
X163353Y220600D01*
X163601Y221199D01*
X163907Y223520D01*
X163601Y225841D01*
X162705Y228003D01*
X161280Y229860D01*
X159423Y231285D01*
X157261Y232181D01*
X154940Y232487D01*
D02*
G37*
G36*
X613410Y134529D02*
Y127000D01*
X620939D01*
X620801Y128051D01*
X619905Y130213D01*
X618480Y132070D01*
X616623Y133495D01*
X614461Y134391D01*
X613410Y134529D01*
D02*
G37*
G36*
X405130Y35480D02*
X403748Y35299D01*
X401276Y34275D01*
X399154Y32646D01*
X397525Y30524D01*
X396502Y28052D01*
X396320Y26670D01*
X405130D01*
Y35480D01*
D02*
G37*
G36*
X26670Y34200D02*
Y26670D01*
X34200D01*
X34061Y27721D01*
X33165Y29883D01*
X31740Y31740D01*
X29883Y33165D01*
X27721Y34061D01*
X26670Y34200D01*
D02*
G37*
G36*
X24130D02*
X23079Y34061D01*
X20917Y33165D01*
X19060Y31740D01*
X17635Y29883D01*
X16739Y27721D01*
X16601Y26670D01*
X24130D01*
Y34200D01*
D02*
G37*
G36*
X407670Y35480D02*
Y26670D01*
X416480D01*
X416298Y28052D01*
X415275Y30524D01*
X413646Y32646D01*
X411524Y34275D01*
X409052Y35299D01*
X407670Y35480D01*
D02*
G37*
G36*
X402590Y118187D02*
X400269Y117881D01*
X398107Y116985D01*
X396250Y115560D01*
X394825Y113703D01*
X393929Y111541D01*
X393623Y109220D01*
X393929Y106899D01*
X394825Y104737D01*
X396250Y102880D01*
X398107Y101455D01*
X400269Y100559D01*
X402590Y100253D01*
X404911Y100559D01*
X407073Y101455D01*
X407752Y101976D01*
X414685Y95043D01*
X415945Y94201D01*
X417432Y93905D01*
X445372D01*
X446858Y94201D01*
X448119Y95043D01*
X453331Y100255D01*
X458529D01*
X461202Y97583D01*
X462462Y96741D01*
X463948Y96445D01*
X473704D01*
X473844Y96250D01*
X473462Y94606D01*
X471133Y93361D01*
X468006Y90794D01*
X465439Y87667D01*
X463532Y84098D01*
X462357Y80226D01*
X461961Y76200D01*
X462357Y72174D01*
X463532Y68302D01*
X465439Y64733D01*
X468006Y61606D01*
X471133Y59039D01*
X474702Y57132D01*
X477445Y56299D01*
Y50800D01*
X477741Y49313D01*
X478583Y48053D01*
X497840Y28796D01*
Y15240D01*
X518160D01*
Y35560D01*
X502064D01*
X485215Y52409D01*
Y55818D01*
X486627Y55957D01*
X490498Y57132D01*
X494067Y59039D01*
X497194Y61606D01*
X499761Y64733D01*
X501668Y68302D01*
X502062Y69599D01*
X503389D01*
X504168Y67032D01*
X506075Y63463D01*
X508642Y60336D01*
X511769Y57769D01*
X515337Y55862D01*
X519209Y54687D01*
X519351Y54673D01*
Y48264D01*
X519647Y46778D01*
X520489Y45517D01*
X529515Y36491D01*
Y34788D01*
X528276Y34275D01*
X526154Y32646D01*
X524525Y30524D01*
X523502Y28052D01*
X523152Y25400D01*
X523502Y22748D01*
X524525Y20276D01*
X526154Y18154D01*
X528276Y16525D01*
X530748Y15502D01*
X533400Y15152D01*
X536052Y15502D01*
X538524Y16525D01*
X540646Y18154D01*
X542275Y20276D01*
X543298Y22748D01*
X543648Y25400D01*
X543298Y28052D01*
X542275Y30524D01*
X540646Y32646D01*
X538524Y34275D01*
X537285Y34788D01*
Y38100D01*
X536989Y39587D01*
X536147Y40847D01*
X527121Y49873D01*
Y54673D01*
X527262Y54687D01*
X531134Y55862D01*
X534702Y57769D01*
X537830Y60336D01*
X540397Y63463D01*
X542304Y67032D01*
X543479Y70904D01*
X543617Y72312D01*
X544894D01*
X544907Y72174D01*
X546082Y68302D01*
X547989Y64733D01*
X550556Y61606D01*
X553683Y59039D01*
X554915Y58380D01*
Y34788D01*
X553676Y34275D01*
X551554Y32646D01*
X549925Y30524D01*
X548901Y28052D01*
X548552Y25400D01*
X548901Y22748D01*
X549925Y20276D01*
X551554Y18154D01*
X553676Y16525D01*
X556148Y15502D01*
X558800Y15152D01*
X561452Y15502D01*
X563924Y16525D01*
X566046Y18154D01*
X567675Y20276D01*
X568699Y22748D01*
X569048Y25400D01*
X568699Y28052D01*
X567675Y30524D01*
X566046Y32646D01*
X563924Y34275D01*
X562685Y34788D01*
Y54858D01*
X563626Y55711D01*
X565150Y55561D01*
X569176Y55957D01*
X573048Y57132D01*
X576617Y59039D01*
X579744Y61606D01*
X582311Y64733D01*
X584218Y68302D01*
X585393Y72174D01*
X585789Y76200D01*
X585393Y80226D01*
X584218Y84098D01*
X582311Y87667D01*
X579744Y90794D01*
X576617Y93361D01*
X573048Y95268D01*
X569263Y96417D01*
X569189Y96439D01*
X569175Y96444D01*
X569160Y96459D01*
X569220Y97265D01*
X569286Y97473D01*
X569418Y97774D01*
X570573Y97926D01*
X571281Y98019D01*
X573443Y98915D01*
X575300Y100340D01*
X576725Y102197D01*
X577621Y104359D01*
X577927Y106680D01*
X577621Y109001D01*
X576725Y111163D01*
X575300Y113020D01*
X573443Y114445D01*
X571281Y115341D01*
X568960Y115647D01*
X566639Y115341D01*
X564477Y114445D01*
X562620Y113020D01*
X561195Y111163D01*
X560947Y110565D01*
X466392D01*
X464989Y111967D01*
X463729Y112809D01*
X462243Y113105D01*
X428890D01*
X427980Y114290D01*
X426123Y115715D01*
X423961Y116611D01*
X421640Y116917D01*
X419319Y116611D01*
X417157Y115715D01*
X415300Y114290D01*
X413875Y112433D01*
X413161Y110711D01*
X412046Y110174D01*
X411680Y110136D01*
X411414Y110301D01*
X411251Y111541D01*
X410355Y113703D01*
X408930Y115560D01*
X407073Y116985D01*
X404911Y117881D01*
X402590Y118187D01*
D02*
G37*
G36*
X433070Y35480D02*
Y26670D01*
X441880D01*
X441698Y28052D01*
X440675Y30524D01*
X439046Y32646D01*
X436924Y34275D01*
X434452Y35299D01*
X433070Y35480D01*
D02*
G37*
G36*
X430530D02*
X429148Y35299D01*
X426676Y34275D01*
X424554Y32646D01*
X422925Y30524D01*
X421902Y28052D01*
X421720Y26670D01*
X430530D01*
Y35480D01*
D02*
G37*
G36*
X314960Y518248D02*
X312308Y517898D01*
X309836Y516875D01*
X307714Y515246D01*
X306085Y513124D01*
X305061Y510652D01*
X304712Y508000D01*
X305061Y505348D01*
X306085Y502876D01*
X307714Y500754D01*
X309836Y499125D01*
X312308Y498102D01*
X314960Y497752D01*
X317612Y498102D01*
X320084Y499125D01*
X322206Y500754D01*
X323835Y502876D01*
X324859Y505348D01*
X325208Y508000D01*
X324859Y510652D01*
X323835Y513124D01*
X322206Y515246D01*
X320084Y516875D01*
X317612Y517898D01*
X314960Y518248D01*
D02*
G37*
G36*
X289560D02*
X286908Y517898D01*
X284436Y516875D01*
X282314Y515246D01*
X280685Y513124D01*
X279662Y510652D01*
X279312Y508000D01*
X279662Y505348D01*
X280685Y502876D01*
X282314Y500754D01*
X284436Y499125D01*
X286908Y498102D01*
X289560Y497752D01*
X292212Y498102D01*
X294684Y499125D01*
X296806Y500754D01*
X298435Y502876D01*
X299459Y505348D01*
X299808Y508000D01*
X299459Y510652D01*
X298435Y513124D01*
X296806Y515246D01*
X294684Y516875D01*
X292212Y517898D01*
X289560Y518248D01*
D02*
G37*
G36*
X238760D02*
X236108Y517898D01*
X233636Y516875D01*
X231514Y515246D01*
X229885Y513124D01*
X228862Y510652D01*
X228512Y508000D01*
X228862Y505348D01*
X229885Y502876D01*
X231514Y500754D01*
X233636Y499125D01*
X236108Y498102D01*
X238760Y497752D01*
X241412Y498102D01*
X243884Y499125D01*
X246006Y500754D01*
X247635Y502876D01*
X248659Y505348D01*
X249008Y508000D01*
X248659Y510652D01*
X247635Y513124D01*
X246006Y515246D01*
X243884Y516875D01*
X241412Y517898D01*
X238760Y518248D01*
D02*
G37*
G36*
X340360D02*
X337708Y517898D01*
X335236Y516875D01*
X333114Y515246D01*
X331485Y513124D01*
X330462Y510652D01*
X330112Y508000D01*
X330462Y505348D01*
X331485Y502876D01*
X333114Y500754D01*
X335236Y499125D01*
X337708Y498102D01*
X340360Y497752D01*
X343012Y498102D01*
X345484Y499125D01*
X347606Y500754D01*
X349235Y502876D01*
X350258Y505348D01*
X350608Y508000D01*
X350258Y510652D01*
X349235Y513124D01*
X347606Y515246D01*
X345484Y516875D01*
X343012Y517898D01*
X340360Y518248D01*
D02*
G37*
G36*
X457200D02*
X454548Y517898D01*
X452076Y516875D01*
X449954Y515246D01*
X448325Y513124D01*
X447301Y510652D01*
X446952Y508000D01*
X447301Y505348D01*
X448325Y502876D01*
X449954Y500754D01*
X452076Y499125D01*
X454548Y498102D01*
X457200Y497752D01*
X459852Y498102D01*
X462324Y499125D01*
X464446Y500754D01*
X466075Y502876D01*
X467099Y505348D01*
X467448Y508000D01*
X467099Y510652D01*
X466075Y513124D01*
X464446Y515246D01*
X462324Y516875D01*
X459852Y517898D01*
X457200Y518248D01*
D02*
G37*
G36*
X391160D02*
X388508Y517898D01*
X386036Y516875D01*
X383914Y515246D01*
X382285Y513124D01*
X381261Y510652D01*
X380912Y508000D01*
X381261Y505348D01*
X382285Y502876D01*
X383914Y500754D01*
X386036Y499125D01*
X388508Y498102D01*
X391160Y497752D01*
X393812Y498102D01*
X396284Y499125D01*
X398406Y500754D01*
X400035Y502876D01*
X401059Y505348D01*
X401408Y508000D01*
X401059Y510652D01*
X400035Y513124D01*
X398406Y515246D01*
X396284Y516875D01*
X393812Y517898D01*
X391160Y518248D01*
D02*
G37*
G36*
X365760D02*
X363108Y517898D01*
X360636Y516875D01*
X358514Y515246D01*
X356885Y513124D01*
X355862Y510652D01*
X355512Y508000D01*
X355862Y505348D01*
X356885Y502876D01*
X358514Y500754D01*
X360636Y499125D01*
X363108Y498102D01*
X365760Y497752D01*
X368412Y498102D01*
X370884Y499125D01*
X373006Y500754D01*
X374635Y502876D01*
X375658Y505348D01*
X376008Y508000D01*
X375658Y510652D01*
X374635Y513124D01*
X373006Y515246D01*
X370884Y516875D01*
X368412Y517898D01*
X365760Y518248D01*
D02*
G37*
G36*
X643800Y455930D02*
X636270D01*
Y448400D01*
X637321Y448539D01*
X639483Y449435D01*
X641340Y450860D01*
X642765Y452717D01*
X643661Y454879D01*
X643800Y455930D01*
D02*
G37*
G36*
X633730D02*
X626200D01*
X626339Y454879D01*
X627235Y452717D01*
X628660Y450860D01*
X630517Y449435D01*
X632679Y448539D01*
X633730Y448400D01*
Y455930D01*
D02*
G37*
G36*
X62230Y439329D02*
Y431800D01*
X69759D01*
X69621Y432851D01*
X68725Y435013D01*
X67300Y436870D01*
X65443Y438295D01*
X63281Y439191D01*
X62230Y439329D01*
D02*
G37*
G36*
X633730Y465999D02*
X632679Y465861D01*
X630517Y464965D01*
X628660Y463540D01*
X627235Y461683D01*
X626339Y459521D01*
X626200Y458470D01*
X633730D01*
Y465999D01*
D02*
G37*
G36*
X213360Y518248D02*
X210708Y517898D01*
X208236Y516875D01*
X206114Y515246D01*
X204485Y513124D01*
X203461Y510652D01*
X203112Y508000D01*
X203461Y505348D01*
X204485Y502876D01*
X206114Y500754D01*
X208236Y499125D01*
X210708Y498102D01*
X213360Y497752D01*
X216012Y498102D01*
X218484Y499125D01*
X220606Y500754D01*
X222235Y502876D01*
X223258Y505348D01*
X223608Y508000D01*
X223258Y510652D01*
X222235Y513124D01*
X220606Y515246D01*
X218484Y516875D01*
X216012Y517898D01*
X213360Y518248D01*
D02*
G37*
G36*
X187960D02*
X185308Y517898D01*
X182836Y516875D01*
X180714Y515246D01*
X179085Y513124D01*
X178062Y510652D01*
X177712Y508000D01*
X178062Y505348D01*
X179085Y502876D01*
X180714Y500754D01*
X182836Y499125D01*
X185308Y498102D01*
X187960Y497752D01*
X190612Y498102D01*
X193084Y499125D01*
X195206Y500754D01*
X196835Y502876D01*
X197859Y505348D01*
X198208Y508000D01*
X197859Y510652D01*
X196835Y513124D01*
X195206Y515246D01*
X193084Y516875D01*
X190612Y517898D01*
X187960Y518248D01*
D02*
G37*
G36*
X636270Y465999D02*
Y458470D01*
X643800D01*
X643661Y459521D01*
X642765Y461683D01*
X641340Y463540D01*
X639483Y464965D01*
X637321Y465861D01*
X636270Y465999D01*
D02*
G37*
G36*
X482600Y518248D02*
X479948Y517898D01*
X477476Y516875D01*
X475354Y515246D01*
X473725Y513124D01*
X472701Y510652D01*
X472352Y508000D01*
X472701Y505348D01*
X473725Y502876D01*
X475354Y500754D01*
X477476Y499125D01*
X479948Y498102D01*
X482600Y497752D01*
X485252Y498102D01*
X487724Y499125D01*
X489846Y500754D01*
X491475Y502876D01*
X492499Y505348D01*
X492848Y508000D01*
X492499Y510652D01*
X491475Y513124D01*
X489846Y515246D01*
X487724Y516875D01*
X485252Y517898D01*
X482600Y518248D01*
D02*
G37*
G36*
X34200Y506730D02*
X26670D01*
Y499201D01*
X27721Y499339D01*
X29883Y500235D01*
X31740Y501660D01*
X33165Y503517D01*
X34061Y505679D01*
X34200Y506730D01*
D02*
G37*
G36*
X24130D02*
X16601D01*
X16739Y505679D01*
X17635Y503517D01*
X19060Y501660D01*
X20917Y500235D01*
X23079Y499339D01*
X24130Y499201D01*
Y506730D01*
D02*
G37*
G36*
X274240D02*
X265430D01*
Y497920D01*
X266812Y498102D01*
X269284Y499125D01*
X271406Y500754D01*
X273035Y502876D01*
X274058Y505348D01*
X274240Y506730D01*
D02*
G37*
G36*
X24130Y516800D02*
X23079Y516661D01*
X20917Y515765D01*
X19060Y514340D01*
X17635Y512483D01*
X16739Y510321D01*
X16601Y509270D01*
X24130D01*
Y516800D01*
D02*
G37*
G36*
X265430Y518080D02*
Y509270D01*
X274240D01*
X274058Y510652D01*
X273035Y513124D01*
X271406Y515246D01*
X269284Y516875D01*
X266812Y517898D01*
X265430Y518080D01*
D02*
G37*
G36*
X262890D02*
X261508Y517898D01*
X259036Y516875D01*
X256914Y515246D01*
X255285Y513124D01*
X254261Y510652D01*
X254079Y509270D01*
X262890D01*
Y518080D01*
D02*
G37*
G36*
X26670Y516800D02*
Y509270D01*
X34200D01*
X34061Y510321D01*
X33165Y512483D01*
X31740Y514340D01*
X29883Y515765D01*
X27721Y516661D01*
X26670Y516800D01*
D02*
G37*
G36*
X558800Y518248D02*
X556148Y517898D01*
X553676Y516875D01*
X551554Y515246D01*
X549925Y513124D01*
X548901Y510652D01*
X548552Y508000D01*
X548901Y505348D01*
X549925Y502876D01*
X551554Y500754D01*
X553676Y499125D01*
X556148Y498102D01*
X558800Y497752D01*
X561452Y498102D01*
X563924Y499125D01*
X566046Y500754D01*
X567675Y502876D01*
X568699Y505348D01*
X569048Y508000D01*
X568699Y510652D01*
X567675Y513124D01*
X566046Y515246D01*
X563924Y516875D01*
X561452Y517898D01*
X558800Y518248D01*
D02*
G37*
G36*
X533400D02*
X530748Y517898D01*
X528276Y516875D01*
X526154Y515246D01*
X524525Y513124D01*
X523502Y510652D01*
X523152Y508000D01*
X523502Y505348D01*
X524525Y502876D01*
X526154Y500754D01*
X528276Y499125D01*
X530748Y498102D01*
X533400Y497752D01*
X536052Y498102D01*
X538524Y499125D01*
X540646Y500754D01*
X542275Y502876D01*
X543298Y505348D01*
X543648Y508000D01*
X543298Y510652D01*
X542275Y513124D01*
X540646Y515246D01*
X538524Y516875D01*
X536052Y517898D01*
X533400Y518248D01*
D02*
G37*
G36*
X508000D02*
X505348Y517898D01*
X502876Y516875D01*
X500754Y515246D01*
X499125Y513124D01*
X498102Y510652D01*
X497752Y508000D01*
X498102Y505348D01*
X499125Y502876D01*
X500754Y500754D01*
X502876Y499125D01*
X505348Y498102D01*
X508000Y497752D01*
X510652Y498102D01*
X513124Y499125D01*
X515246Y500754D01*
X516875Y502876D01*
X517898Y505348D01*
X518248Y508000D01*
X517898Y510652D01*
X516875Y513124D01*
X515246Y515246D01*
X513124Y516875D01*
X510652Y517898D01*
X508000Y518248D01*
D02*
G37*
G36*
X584200D02*
X581548Y517898D01*
X579076Y516875D01*
X576954Y515246D01*
X575325Y513124D01*
X574301Y510652D01*
X573952Y508000D01*
X574301Y505348D01*
X575325Y502876D01*
X576954Y500754D01*
X579076Y499125D01*
X581548Y498102D01*
X584200Y497752D01*
X586852Y498102D01*
X589324Y499125D01*
X591446Y500754D01*
X593075Y502876D01*
X594099Y505348D01*
X594448Y508000D01*
X594099Y510652D01*
X593075Y513124D01*
X591446Y515246D01*
X589324Y516875D01*
X586852Y517898D01*
X584200Y518248D01*
D02*
G37*
G36*
X262890Y506730D02*
X254079D01*
X254261Y505348D01*
X255285Y502876D01*
X256914Y500754D01*
X259036Y499125D01*
X261508Y498102D01*
X262890Y497920D01*
Y506730D01*
D02*
G37*
G36*
X426720Y518160D02*
X406400D01*
Y497840D01*
X426720D01*
Y518160D01*
D02*
G37*
G36*
X609600Y518248D02*
X606948Y517898D01*
X604476Y516875D01*
X602354Y515246D01*
X600725Y513124D01*
X599701Y510652D01*
X599352Y508000D01*
X599701Y505348D01*
X600725Y502876D01*
X602354Y500754D01*
X604476Y499125D01*
X606948Y498102D01*
X609600Y497752D01*
X612252Y498102D01*
X614724Y499125D01*
X616846Y500754D01*
X618475Y502876D01*
X619498Y505348D01*
X619848Y508000D01*
X619498Y510652D01*
X618475Y513124D01*
X616846Y515246D01*
X614724Y516875D01*
X612252Y517898D01*
X609600Y518248D01*
D02*
G37*
G36*
X59690Y439329D02*
X58639Y439191D01*
X56477Y438295D01*
X54620Y436870D01*
X53195Y435013D01*
X52299Y432851D01*
X52161Y431800D01*
X59690D01*
Y439329D01*
D02*
G37*
G36*
X233680Y372110D02*
X226150D01*
X226289Y371059D01*
X227185Y368897D01*
X228610Y367040D01*
X230467Y365615D01*
X232629Y364719D01*
X233680Y364580D01*
Y372110D01*
D02*
G37*
G36*
X208190D02*
X200660D01*
Y364580D01*
X201711Y364719D01*
X203873Y365615D01*
X205730Y367040D01*
X207155Y368897D01*
X208051Y371059D01*
X208190Y372110D01*
D02*
G37*
G36*
X198120D02*
X190590D01*
X190729Y371059D01*
X191625Y368897D01*
X193050Y367040D01*
X194907Y365615D01*
X197069Y364719D01*
X198120Y364580D01*
Y372110D01*
D02*
G37*
G36*
X243750D02*
X236220D01*
Y364580D01*
X237271Y364719D01*
X239433Y365615D01*
X241290Y367040D01*
X242715Y368897D01*
X243611Y371059D01*
X243750Y372110D01*
D02*
G37*
G36*
X430530Y379730D02*
X423000D01*
X423139Y378679D01*
X424035Y376517D01*
X425460Y374660D01*
X427317Y373235D01*
X429479Y372339D01*
X430530Y372201D01*
Y379730D01*
D02*
G37*
G36*
X300900Y372110D02*
X293370D01*
Y364580D01*
X294421Y364719D01*
X296583Y365615D01*
X298440Y367040D01*
X299865Y368897D01*
X300761Y371059D01*
X300900Y372110D01*
D02*
G37*
G36*
X290830D02*
X283300D01*
X283439Y371059D01*
X284335Y368897D01*
X285760Y367040D01*
X287617Y365615D01*
X289779Y364719D01*
X290830Y364580D01*
Y372110D01*
D02*
G37*
G36*
X34200Y316230D02*
X26670D01*
Y308701D01*
X27721Y308839D01*
X29883Y309735D01*
X31740Y311160D01*
X33165Y313017D01*
X34061Y315179D01*
X34200Y316230D01*
D02*
G37*
G36*
X24130D02*
X16601D01*
X16739Y315179D01*
X17635Y313017D01*
X19060Y311160D01*
X20917Y309735D01*
X23079Y308839D01*
X24130Y308701D01*
Y316230D01*
D02*
G37*
G36*
X344170Y313599D02*
Y306070D01*
X351699D01*
X351561Y307121D01*
X350665Y309283D01*
X349240Y311140D01*
X347383Y312565D01*
X345221Y313461D01*
X344170Y313599D01*
D02*
G37*
G36*
X107950Y319949D02*
X106899Y319811D01*
X104737Y318915D01*
X102880Y317490D01*
X101455Y315633D01*
X100559Y313471D01*
X100421Y312420D01*
X107950D01*
Y319949D01*
D02*
G37*
G36*
X26670Y326300D02*
Y318770D01*
X34200D01*
X34061Y319821D01*
X33165Y321983D01*
X31740Y323840D01*
X29883Y325265D01*
X27721Y326161D01*
X26670Y326300D01*
D02*
G37*
G36*
X24130D02*
X23079Y326161D01*
X20917Y325265D01*
X19060Y323840D01*
X17635Y321983D01*
X16739Y319821D01*
X16601Y318770D01*
X24130D01*
Y326300D01*
D02*
G37*
G36*
X110490Y319949D02*
Y312420D01*
X118020D01*
X117881Y313471D01*
X116985Y315633D01*
X115560Y317490D01*
X113703Y318915D01*
X111541Y319811D01*
X110490Y319949D01*
D02*
G37*
G36*
X440600Y379730D02*
X433070D01*
Y372201D01*
X434121Y372339D01*
X436283Y373235D01*
X438140Y374660D01*
X439565Y376517D01*
X440461Y378679D01*
X440600Y379730D01*
D02*
G37*
G36*
X433070Y389799D02*
Y382270D01*
X440600D01*
X440461Y383321D01*
X439565Y385483D01*
X438140Y387340D01*
X436283Y388765D01*
X434121Y389661D01*
X433070Y389799D01*
D02*
G37*
G36*
X430530D02*
X429479Y389661D01*
X427317Y388765D01*
X425460Y387340D01*
X424035Y385483D01*
X423139Y383321D01*
X423000Y382270D01*
X430530D01*
Y389799D01*
D02*
G37*
G36*
X293370Y382179D02*
Y374650D01*
X300900D01*
X300761Y375701D01*
X299865Y377863D01*
X298440Y379720D01*
X296583Y381145D01*
X294421Y382041D01*
X293370Y382179D01*
D02*
G37*
G36*
X633730Y389799D02*
X632679Y389661D01*
X630517Y388765D01*
X628660Y387340D01*
X627235Y385483D01*
X626339Y383321D01*
X626200Y382270D01*
X633730D01*
Y389799D01*
D02*
G37*
G36*
X69759Y429260D02*
X62230D01*
Y421730D01*
X63281Y421869D01*
X65443Y422765D01*
X67300Y424190D01*
X68725Y426047D01*
X69621Y428209D01*
X69759Y429260D01*
D02*
G37*
G36*
X59690D02*
X52161D01*
X52299Y428209D01*
X53195Y426047D01*
X54620Y424190D01*
X56477Y422765D01*
X58639Y421869D01*
X59690Y421730D01*
Y429260D01*
D02*
G37*
G36*
X636270Y389799D02*
Y382270D01*
X643800D01*
X643661Y383321D01*
X642765Y385483D01*
X641340Y387340D01*
X639483Y388765D01*
X637321Y389661D01*
X636270Y389799D01*
D02*
G37*
G36*
X198120Y382179D02*
X197069Y382041D01*
X194907Y381145D01*
X193050Y379720D01*
X191625Y377863D01*
X190729Y375701D01*
X190590Y374650D01*
X198120D01*
Y382179D01*
D02*
G37*
G36*
X643800Y379730D02*
X636270D01*
Y372201D01*
X637321Y372339D01*
X639483Y373235D01*
X641340Y374660D01*
X642765Y376517D01*
X643661Y378679D01*
X643800Y379730D01*
D02*
G37*
G36*
X633730D02*
X626200D01*
X626339Y378679D01*
X627235Y376517D01*
X628660Y374660D01*
X630517Y373235D01*
X632679Y372339D01*
X633730Y372201D01*
Y379730D01*
D02*
G37*
G36*
X200660Y382179D02*
Y374650D01*
X208190D01*
X208051Y375701D01*
X207155Y377863D01*
X205730Y379720D01*
X203873Y381145D01*
X201711Y382041D01*
X200660Y382179D01*
D02*
G37*
G36*
X290830D02*
X289779Y382041D01*
X287617Y381145D01*
X285760Y379720D01*
X284335Y377863D01*
X283439Y375701D01*
X283300Y374650D01*
X290830D01*
Y382179D01*
D02*
G37*
G36*
X236220D02*
Y374650D01*
X243750D01*
X243611Y375701D01*
X242715Y377863D01*
X241290Y379720D01*
X239433Y381145D01*
X237271Y382041D01*
X236220Y382179D01*
D02*
G37*
G36*
X233680D02*
X232629Y382041D01*
X230467Y381145D01*
X228610Y379720D01*
X227185Y377863D01*
X226289Y375701D01*
X226150Y374650D01*
X233680D01*
Y382179D01*
D02*
G37*
%LPD*%
D18*
X154940Y223520D02*
X232410Y146050D01*
X422910Y109220D02*
X462243D01*
X421640Y107950D02*
X422910Y109220D01*
X406002D02*
X417432Y97790D01*
X402590Y109220D02*
X406002D01*
X417432Y97790D02*
X445372D01*
X451722Y104140D01*
X523236Y74930D02*
Y82554D01*
X505460Y100330D02*
X523236Y82554D01*
X463948Y100330D02*
X505460D01*
X460138Y104140D02*
X463948Y100330D01*
X451722Y104140D02*
X460138D01*
X464783Y106680D02*
X568960D01*
X462243Y109220D02*
X464783Y106680D01*
X508000Y175260D02*
X529590Y196850D01*
X508000Y147320D02*
Y175260D01*
X609600Y74930D02*
Y76200D01*
X598170Y63500D02*
X609600Y74930D01*
X598170Y54610D02*
Y63500D01*
X584200Y40640D02*
X598170Y54610D01*
X584200Y25400D02*
Y40640D01*
X558800Y69850D02*
X565150Y76200D01*
X558800Y25400D02*
Y69850D01*
X523236Y48264D02*
Y74930D01*
Y48264D02*
X533400Y38100D01*
Y25400D02*
Y38100D01*
X481330Y74930D02*
X482600Y76200D01*
X481330Y50800D02*
Y74930D01*
Y50800D02*
X506730Y25400D01*
X508000D01*
D19*
X523236Y74930D02*
D03*
X482600Y76200D02*
D03*
X660400Y298450D02*
D03*
Y222250D02*
D03*
Y127000D02*
D03*
X565150Y76200D02*
D03*
X609600D02*
D03*
D20*
X508000Y196850D02*
D03*
D21*
X482600D02*
D03*
X457200D02*
D03*
D22*
X406400Y25400D02*
D03*
X431800D02*
D03*
X279400D02*
D03*
X304800D02*
D03*
X330200D02*
D03*
X355600D02*
D03*
X381000D02*
D03*
X584200Y508000D02*
D03*
X609600D02*
D03*
X457200D02*
D03*
X482600D02*
D03*
X508000D02*
D03*
X533400D02*
D03*
X558800D02*
D03*
X187960D02*
D03*
X213360D02*
D03*
X238760D02*
D03*
X264160D02*
D03*
X289560D02*
D03*
X314960D02*
D03*
X340360D02*
D03*
X365760D02*
D03*
X391160D02*
D03*
X635000Y25400D02*
D03*
X609600D02*
D03*
X584200D02*
D03*
X558800D02*
D03*
X533400D02*
D03*
D23*
X457200D02*
D03*
X635000Y508000D02*
D03*
X416560D02*
D03*
X508000Y25400D02*
D03*
D24*
X152400Y508000D02*
D03*
X139700Y25400D02*
D03*
X660400Y355600D02*
D03*
Y76200D02*
D03*
D25*
X232410Y146050D02*
D03*
X154940Y223520D02*
D03*
X342900Y304800D02*
D03*
X431800Y381000D02*
D03*
X635000Y177800D02*
D03*
Y381000D02*
D03*
Y457200D02*
D03*
X25400Y508000D02*
D03*
Y317500D02*
D03*
X254000Y25400D02*
D03*
X25400D02*
D03*
X421640Y107950D02*
D03*
X402590Y109220D02*
D03*
X109220Y311150D02*
D03*
X292100Y373380D02*
D03*
X234950D02*
D03*
X199390D02*
D03*
X60960Y430530D02*
D03*
X529590Y196850D02*
D03*
X508000Y147320D02*
D03*
X568960Y106680D02*
D03*
X612140Y125730D02*
D03*
X529590Y177800D02*
D03*
X468630Y293370D02*
D03*
X551180Y266700D02*
D03*
X519430Y299720D02*
D03*
M02*
