%FSLAX44Y44*%
%MOMM*%
G71*
G01*
G75*
G04 Layer_Physical_Order=1*
G04 Layer_Color=255*
G04:AMPARAMS|DCode=10|XSize=0.7112mm|YSize=0.8128mm|CornerRadius=0.0711mm|HoleSize=0mm|Usage=FLASHONLY|Rotation=270.000|XOffset=0mm|YOffset=0mm|HoleType=Round|Shape=RoundedRectangle|*
%AMROUNDEDRECTD10*
21,1,0.7112,0.6706,0,0,270.0*
21,1,0.5690,0.8128,0,0,270.0*
1,1,0.1422,-0.3353,-0.2845*
1,1,0.1422,-0.3353,0.2845*
1,1,0.1422,0.3353,0.2845*
1,1,0.1422,0.3353,-0.2845*
%
%ADD10ROUNDEDRECTD10*%
G04:AMPARAMS|DCode=11|XSize=0.7112mm|YSize=0.8128mm|CornerRadius=0.0711mm|HoleSize=0mm|Usage=FLASHONLY|Rotation=180.000|XOffset=0mm|YOffset=0mm|HoleType=Round|Shape=RoundedRectangle|*
%AMROUNDEDRECTD11*
21,1,0.7112,0.6706,0,0,180.0*
21,1,0.5690,0.8128,0,0,180.0*
1,1,0.1422,-0.2845,0.3353*
1,1,0.1422,0.2845,0.3353*
1,1,0.1422,0.2845,-0.3353*
1,1,0.1422,-0.2845,-0.3353*
%
%ADD11ROUNDEDRECTD11*%
G04:AMPARAMS|DCode=12|XSize=0.75mm|YSize=1.5mm|CornerRadius=0.075mm|HoleSize=0mm|Usage=FLASHONLY|Rotation=90.000|XOffset=0mm|YOffset=0mm|HoleType=Round|Shape=RoundedRectangle|*
%AMROUNDEDRECTD12*
21,1,0.7500,1.3500,0,0,90.0*
21,1,0.6000,1.5000,0,0,90.0*
1,1,0.1500,0.6750,0.3000*
1,1,0.1500,0.6750,-0.3000*
1,1,0.1500,-0.6750,-0.3000*
1,1,0.1500,-0.6750,0.3000*
%
%ADD12ROUNDEDRECTD12*%
%ADD13R,1.2000X1.5000*%
%ADD14R,1.5000X1.2000*%
%ADD15R,1.5000X0.8000*%
%ADD16R,1.7000X1.4000*%
%ADD17R,1.2000X3.0000*%
%ADD18C,0.2540*%
%ADD19C,3.6000*%
%ADD20R,1.5000X1.5000*%
%ADD21C,1.5000*%
%ADD22C,1.5240*%
%ADD23R,1.5240X1.5240*%
%ADD24C,3.2000*%
%ADD25C,1.2700*%
G36*
X501660Y140980D02*
X503517Y139555D01*
X504115Y139307D01*
Y137499D01*
X479853Y113237D01*
X479011Y111977D01*
X478715Y110490D01*
Y96457D01*
X478573Y96443D01*
X474702Y95268D01*
X471133Y93361D01*
X468006Y90794D01*
X465439Y87667D01*
X463532Y84098D01*
X462357Y80226D01*
X461961Y76200D01*
X462357Y72174D01*
X463532Y68302D01*
X465439Y64733D01*
X468006Y61606D01*
X471133Y59039D01*
X474702Y57132D01*
X478573Y55957D01*
X482600Y55561D01*
X486627Y55957D01*
X490498Y57132D01*
X494067Y59039D01*
X497194Y61606D01*
X499761Y64733D01*
X501668Y68302D01*
X502062Y69599D01*
X503389D01*
X504168Y67032D01*
X506075Y63463D01*
X508642Y60336D01*
X511769Y57769D01*
X515337Y55862D01*
X519209Y54687D01*
X523236Y54291D01*
X527262Y54687D01*
X531134Y55862D01*
X534702Y57769D01*
X537830Y60336D01*
X540397Y63463D01*
X542304Y67032D01*
X543479Y70904D01*
X543617Y72312D01*
X544894D01*
X544907Y72174D01*
X546082Y68302D01*
X547989Y64733D01*
X550556Y61606D01*
X553683Y59039D01*
X557252Y57132D01*
X561124Y55957D01*
X565150Y55561D01*
X569176Y55957D01*
X573048Y57132D01*
X576617Y59039D01*
X579744Y61606D01*
X582311Y64733D01*
X584218Y68302D01*
X585393Y72174D01*
X585789Y76200D01*
X585393Y80226D01*
X584218Y84098D01*
X582311Y87667D01*
X579744Y90794D01*
X576617Y93361D01*
X573048Y95268D01*
X569176Y96443D01*
X568866Y96473D01*
X568960Y97713D01*
X571281Y98019D01*
X573443Y98915D01*
X575300Y100340D01*
X576725Y102197D01*
X576973Y102795D01*
X640080D01*
X641567Y103091D01*
X642827Y103933D01*
X648823Y109929D01*
X648933Y109839D01*
X652502Y107932D01*
X656374Y106757D01*
X660400Y106361D01*
X664426Y106757D01*
X668298Y107932D01*
X671867Y109839D01*
X671952Y109909D01*
X673100Y109366D01*
Y91247D01*
X671952Y90704D01*
X670750Y91690D01*
X667529Y93412D01*
X664035Y94472D01*
X660400Y94830D01*
X656766Y94472D01*
X653271Y93412D01*
X650050Y91690D01*
X647227Y89373D01*
X644910Y86550D01*
X643188Y83329D01*
X642128Y79834D01*
X641770Y76200D01*
X642128Y72565D01*
X643188Y69071D01*
X644910Y65850D01*
X647227Y63027D01*
X650050Y60710D01*
X653271Y58988D01*
X656766Y57928D01*
X660400Y57570D01*
X664035Y57928D01*
X667529Y58988D01*
X670750Y60710D01*
X671952Y61696D01*
X673100Y61153D01*
Y38100D01*
X647700Y12700D01*
X578653D01*
X578167Y13873D01*
X580308Y16015D01*
X581548Y15502D01*
X584200Y15152D01*
X586852Y15502D01*
X589324Y16525D01*
X591446Y18154D01*
X593075Y20276D01*
X594099Y22748D01*
X594448Y25400D01*
X594099Y28052D01*
X593075Y30524D01*
X591446Y32646D01*
X589324Y34275D01*
X586852Y35299D01*
X584200Y35648D01*
X581548Y35299D01*
X579076Y34275D01*
X576954Y32646D01*
X575325Y30524D01*
X574301Y28052D01*
X573952Y25400D01*
X574301Y22748D01*
X574815Y21509D01*
X568621Y15315D01*
X564642D01*
X563995Y16450D01*
X564001Y16585D01*
X566046Y18154D01*
X567675Y20276D01*
X568699Y22748D01*
X569048Y25400D01*
X568699Y28052D01*
X567675Y30524D01*
X566046Y32646D01*
X563924Y34275D01*
X561452Y35299D01*
X558800Y35648D01*
X556148Y35299D01*
X553676Y34275D01*
X551554Y32646D01*
X549925Y30524D01*
X548901Y28052D01*
X548552Y25400D01*
X548901Y22748D01*
X549925Y20276D01*
X551554Y18154D01*
X553599Y16585D01*
X553605Y16450D01*
X552958Y15315D01*
X539242D01*
X538595Y16450D01*
X538601Y16585D01*
X540646Y18154D01*
X542275Y20276D01*
X543298Y22748D01*
X543648Y25400D01*
X543298Y28052D01*
X542275Y30524D01*
X540646Y32646D01*
X538524Y34275D01*
X536052Y35299D01*
X533400Y35648D01*
X530748Y35299D01*
X528276Y34275D01*
X526154Y32646D01*
X524525Y30524D01*
X523502Y28052D01*
X523152Y25400D01*
X523502Y22748D01*
X524525Y20276D01*
X526154Y18154D01*
X528199Y16585D01*
X528205Y16450D01*
X527558Y15315D01*
X518160D01*
Y35560D01*
X497840D01*
Y15315D01*
X467360D01*
Y35560D01*
X447040D01*
Y15315D01*
X437642D01*
X436995Y16450D01*
X437001Y16585D01*
X439046Y18154D01*
X440675Y20276D01*
X441698Y22748D01*
X441880Y24130D01*
X421720D01*
X421902Y22748D01*
X422925Y20276D01*
X424554Y18154D01*
X426599Y16585D01*
X426605Y16450D01*
X425958Y15315D01*
X412242D01*
X411595Y16450D01*
X411601Y16585D01*
X413646Y18154D01*
X415275Y20276D01*
X416298Y22748D01*
X416480Y24130D01*
X396320D01*
X396502Y22748D01*
X397525Y20276D01*
X399154Y18154D01*
X401199Y16585D01*
X401205Y16450D01*
X400558Y15315D01*
X386842D01*
X386195Y16450D01*
X386201Y16585D01*
X388246Y18154D01*
X389875Y20276D01*
X390899Y22748D01*
X391248Y25400D01*
X390899Y28052D01*
X389875Y30524D01*
X388246Y32646D01*
X386124Y34275D01*
X385369Y34587D01*
X385189Y35961D01*
X432973Y83745D01*
X445334D01*
X446821Y84041D01*
X448081Y84883D01*
X461217Y98019D01*
X462059Y99279D01*
X462355Y100766D01*
Y120539D01*
X462583Y120585D01*
X463395Y121127D01*
X464588Y121628D01*
X465676Y120901D01*
X466960Y120646D01*
X480460D01*
X481744Y120901D01*
X482832Y121628D01*
X483559Y122716D01*
X483735Y123600D01*
X484712Y124253D01*
X499317Y138858D01*
X500159Y140118D01*
X500274Y140699D01*
X501632Y141015D01*
X501660Y140980D01*
D02*
G37*
G36*
X640839Y292175D02*
X641332Y290552D01*
X643239Y286983D01*
X645806Y283856D01*
X648933Y281289D01*
X652502Y279382D01*
X656374Y278207D01*
X660400Y277811D01*
X664426Y278207D01*
X668298Y279382D01*
X671867Y281289D01*
X671952Y281359D01*
X673100Y280816D01*
Y239884D01*
X671952Y239341D01*
X671867Y239411D01*
X668298Y241318D01*
X664426Y242493D01*
X661670Y242764D01*
Y222250D01*
Y201736D01*
X664426Y202007D01*
X668298Y203182D01*
X671867Y205089D01*
X671952Y205159D01*
X673100Y204616D01*
Y144634D01*
X671952Y144091D01*
X671867Y144161D01*
X668298Y146068D01*
X664426Y147243D01*
X660400Y147639D01*
X656374Y147243D01*
X652502Y146068D01*
X648933Y144161D01*
X645806Y141594D01*
X643239Y138467D01*
X641332Y134898D01*
X640157Y131026D01*
X639761Y127000D01*
X640157Y122973D01*
X641332Y119102D01*
X643239Y115533D01*
X643329Y115423D01*
X638471Y110565D01*
X576973D01*
X576725Y111163D01*
X575300Y113020D01*
X573443Y114445D01*
X571281Y115341D01*
X568960Y115647D01*
X566639Y115341D01*
X564477Y114445D01*
X563824Y113944D01*
X562685Y114506D01*
Y119676D01*
X563421Y119823D01*
X564344Y120439D01*
X564844Y120569D01*
X565456D01*
X565956Y120439D01*
X566879Y119823D01*
X568147Y119570D01*
X574853D01*
X576121Y119823D01*
X577044Y120439D01*
X577544Y120569D01*
X578156D01*
X578656Y120439D01*
X579579Y119823D01*
X580847Y119570D01*
X582930D01*
Y125730D01*
Y131890D01*
X580847D01*
X579579Y131637D01*
X578656Y131021D01*
X578156Y130892D01*
X577544D01*
X577044Y131021D01*
X576121Y131637D01*
X574853Y131890D01*
X568147D01*
X566879Y131637D01*
X565956Y131021D01*
X565456Y130892D01*
X564844D01*
X564344Y131021D01*
X563421Y131637D01*
X562153Y131890D01*
X555447D01*
X554179Y131637D01*
X553103Y130919D01*
X553080Y130885D01*
X551820D01*
X551797Y130919D01*
X550721Y131637D01*
X549453Y131890D01*
X542747D01*
X541479Y131637D01*
X540759Y131157D01*
X540247Y131206D01*
X539463Y131404D01*
X539304Y131486D01*
X538712Y132372D01*
X538391Y132586D01*
Y134114D01*
X538712Y134328D01*
X539304Y135214D01*
X539463Y135296D01*
X540247Y135494D01*
X540759Y135543D01*
X541479Y135063D01*
X542747Y134810D01*
X549453D01*
X550721Y135063D01*
X551644Y135679D01*
X552144Y135808D01*
X552756D01*
X553256Y135679D01*
X554179Y135063D01*
X555447Y134810D01*
X562153D01*
X563421Y135063D01*
X564344Y135679D01*
X564844Y135808D01*
X565456D01*
X565956Y135679D01*
X566879Y135063D01*
X568147Y134810D01*
X574853D01*
X576121Y135063D01*
X577044Y135679D01*
X577544Y135808D01*
X578156D01*
X578656Y135679D01*
X579579Y135063D01*
X580847Y134810D01*
X587553D01*
X588821Y135063D01*
X589744Y135679D01*
X590244Y135808D01*
X590856D01*
X591356Y135679D01*
X592279Y135063D01*
X593547Y134810D01*
X600253D01*
X601521Y135063D01*
X602597Y135781D01*
X603315Y136857D01*
X603568Y138125D01*
Y143815D01*
X603315Y145083D01*
X602597Y146159D01*
X601521Y146877D01*
X600253Y147130D01*
X593547D01*
X592279Y146877D01*
X591356Y146261D01*
X590856Y146131D01*
X590244D01*
X589744Y146261D01*
X588821Y146877D01*
X587553Y147130D01*
X580847D01*
X579579Y146877D01*
X578656Y146261D01*
X578156Y146131D01*
X577544D01*
X577044Y146261D01*
X576121Y146877D01*
X574853Y147130D01*
X568147D01*
X566879Y146877D01*
X565956Y146261D01*
X565456Y146131D01*
X564844D01*
X564344Y146261D01*
X563421Y146877D01*
X562153Y147130D01*
X555447D01*
X554179Y146877D01*
X553608Y146496D01*
X553410Y146590D01*
X552579Y147336D01*
X552768Y148285D01*
Y153975D01*
X552515Y155243D01*
X551797Y156319D01*
X550721Y157037D01*
X549453Y157290D01*
X542747D01*
X541479Y157037D01*
X540759Y156557D01*
X540247Y156606D01*
X539463Y156804D01*
X539304Y156886D01*
X538712Y157772D01*
X538391Y157986D01*
Y159514D01*
X538712Y159728D01*
X539279Y160577D01*
X539533Y160714D01*
X540247Y160894D01*
X540759Y160943D01*
X541479Y160463D01*
X542747Y160210D01*
X544830D01*
Y166370D01*
Y172530D01*
X542747D01*
X541479Y172277D01*
X540403Y171559D01*
X539934Y170856D01*
X539041Y170575D01*
X538425Y170663D01*
X537624Y171199D01*
X537370Y171250D01*
X536843Y172649D01*
X537355Y173317D01*
X538251Y175479D01*
X538390Y176530D01*
X520790D01*
X520929Y175479D01*
X521825Y173317D01*
X522337Y172649D01*
X521810Y171250D01*
X521556Y171199D01*
X520468Y170472D01*
X519741Y169384D01*
X519486Y168100D01*
Y166370D01*
X529590D01*
Y163830D01*
X519486D01*
Y162100D01*
X519741Y160816D01*
X520078Y160312D01*
X519091Y159502D01*
X511885Y166709D01*
Y186810D01*
X518040D01*
Y195046D01*
X519401Y196407D01*
X520742Y195952D01*
X520929Y194529D01*
X521825Y192367D01*
X523250Y190510D01*
X525107Y189085D01*
X527269Y188189D01*
X528966Y187966D01*
Y187880D01*
X530214D01*
Y187966D01*
X531911Y188189D01*
X534073Y189085D01*
X535930Y190510D01*
X537355Y192367D01*
X538251Y194529D01*
X538557Y196850D01*
X538399Y198045D01*
X539513Y199315D01*
X576876D01*
X577023Y198579D01*
X577741Y197503D01*
X578817Y196785D01*
X580085Y196532D01*
X585775D01*
X587043Y196785D01*
X588119Y197503D01*
X588837Y198579D01*
X589090Y199847D01*
Y206553D01*
X588837Y207821D01*
X588119Y208897D01*
X587043Y209615D01*
X586815Y209661D01*
Y214820D01*
X587553D01*
X588821Y215073D01*
X589744Y215689D01*
X590244Y215819D01*
X590856D01*
X591356Y215689D01*
X592279Y215073D01*
X593015Y214926D01*
Y208920D01*
X592981Y208897D01*
X592263Y207821D01*
X592010Y206553D01*
Y199847D01*
X592263Y198579D01*
X592981Y197503D01*
X594057Y196785D01*
X595325Y196532D01*
X601015D01*
X602283Y196785D01*
X603359Y197503D01*
X604077Y198579D01*
X604330Y199847D01*
Y206553D01*
X604077Y207821D01*
X603359Y208897D01*
X602283Y209615D01*
X601015Y209868D01*
X600785D01*
Y214926D01*
X601521Y215073D01*
X602444Y215689D01*
X602944Y215819D01*
X603556D01*
X604056Y215689D01*
X604979Y215073D01*
X606247Y214820D01*
X608330D01*
Y220980D01*
Y227140D01*
X606247D01*
X604979Y226887D01*
X604056Y226271D01*
X603556Y226141D01*
X602944D01*
X602444Y226271D01*
X601521Y226887D01*
X600253Y227140D01*
X593547D01*
X592279Y226887D01*
X591356Y226271D01*
X590856Y226141D01*
X590244D01*
X589744Y226271D01*
X588821Y226887D01*
X587553Y227140D01*
X580994D01*
X578878Y229256D01*
X579532Y230242D01*
X579627Y230303D01*
X580847Y230060D01*
X587553D01*
X588821Y230313D01*
X589744Y230929D01*
X590244Y231059D01*
X590856D01*
X591356Y230929D01*
X592279Y230313D01*
X593547Y230060D01*
X600253D01*
X601521Y230313D01*
X602444Y230929D01*
X602944Y231059D01*
X603556D01*
X604056Y230929D01*
X604979Y230313D01*
X606247Y230060D01*
X612953D01*
X614221Y230313D01*
X615144Y230929D01*
X615644Y231059D01*
X616256D01*
X616756Y230929D01*
X617679Y230313D01*
X618947Y230060D01*
X625653D01*
X626921Y230313D01*
X627997Y231031D01*
X628715Y232107D01*
X628968Y233375D01*
Y239065D01*
X629435Y239634D01*
X633713D01*
X641982Y231364D01*
X641332Y230148D01*
X640157Y226276D01*
X640018Y224865D01*
X628761D01*
X628715Y225093D01*
X627997Y226169D01*
X626921Y226887D01*
X625653Y227140D01*
X623570D01*
Y220980D01*
Y214820D01*
X625653D01*
X626921Y215073D01*
X627997Y215791D01*
X628715Y216867D01*
X628761Y217095D01*
X640499D01*
X641332Y214352D01*
X643239Y210783D01*
X645806Y207656D01*
X648933Y205089D01*
X652502Y203182D01*
X656374Y202007D01*
X659130Y201736D01*
Y222250D01*
Y242764D01*
X656374Y242493D01*
X652502Y241318D01*
X648933Y239411D01*
X646730Y237603D01*
X638068Y246265D01*
X636808Y247107D01*
X635322Y247403D01*
X629432D01*
X628722Y248606D01*
X628727Y248673D01*
X628968Y249885D01*
Y251460D01*
X622300D01*
Y252730D01*
X621030D01*
Y258890D01*
X618947D01*
X617679Y258637D01*
X616756Y258021D01*
X616256Y257892D01*
X615644D01*
X615144Y258021D01*
X614221Y258637D01*
X612953Y258890D01*
X610870D01*
Y252730D01*
Y246570D01*
X612953D01*
X614221Y246823D01*
X615144Y247439D01*
X615644Y247568D01*
X616256D01*
X616756Y247439D01*
X617679Y246823D01*
X618617Y246636D01*
X618711Y246163D01*
X619553Y244903D01*
X620903Y243553D01*
X620417Y242380D01*
X618947D01*
X617679Y242127D01*
X616756Y241511D01*
X616256Y241381D01*
X615644D01*
X615144Y241511D01*
X614221Y242127D01*
X612953Y242380D01*
X606247D01*
X604979Y242127D01*
X604056Y241511D01*
X603556Y241381D01*
X602944D01*
X602444Y241511D01*
X601521Y242127D01*
X600253Y242380D01*
X593547D01*
X592279Y242127D01*
X591356Y241511D01*
X590856Y241381D01*
X590244D01*
X589744Y241511D01*
X588821Y242127D01*
X587553Y242380D01*
X580994D01*
X579327Y244047D01*
X578067Y244889D01*
X577661Y244970D01*
X577539Y245584D01*
X576987Y246410D01*
X577072Y247574D01*
X577179Y247946D01*
X577761Y248307D01*
X578058Y248207D01*
X578503Y247541D01*
X579579Y246823D01*
X580847Y246570D01*
X587553D01*
X588821Y246823D01*
X589744Y247439D01*
X590244Y247568D01*
X590856D01*
X591356Y247439D01*
X592279Y246823D01*
X593547Y246570D01*
X600253D01*
X601521Y246823D01*
X602444Y247439D01*
X602944Y247568D01*
X603556D01*
X604056Y247439D01*
X604979Y246823D01*
X606247Y246570D01*
X608330D01*
Y252730D01*
Y259494D01*
X607283Y260540D01*
X607809Y261810D01*
X612953D01*
X614221Y262063D01*
X615144Y262679D01*
X615644Y262808D01*
X616256D01*
X616756Y262679D01*
X617679Y262063D01*
X618947Y261810D01*
X625653D01*
X626921Y262063D01*
X627997Y262781D01*
X628715Y263857D01*
X628968Y265125D01*
Y270815D01*
X628715Y272083D01*
X627997Y273159D01*
X626921Y273877D01*
X626185Y274024D01*
Y279061D01*
X639607Y292484D01*
X640839Y292175D01*
D02*
G37*
G36*
X244297Y414210D02*
X247146D01*
X247632Y413037D01*
X245884Y411290D01*
X244297D01*
X243029Y411037D01*
X241953Y410319D01*
X241235Y409243D01*
X240982Y407975D01*
Y402285D01*
X241235Y401017D01*
X241953Y399941D01*
X243029Y399223D01*
X243765Y399076D01*
Y394674D01*
X243029Y394527D01*
X241953Y393809D01*
X241235Y392733D01*
X240982Y391465D01*
Y385775D01*
X241235Y384507D01*
X241953Y383431D01*
X243029Y382713D01*
X244297Y382460D01*
X251003D01*
X252271Y382713D01*
X253347Y383431D01*
X254065Y384507D01*
X254318Y385775D01*
Y391465D01*
X254065Y392733D01*
X253347Y393809D01*
X252271Y394527D01*
X251535Y394674D01*
Y399076D01*
X252271Y399223D01*
X253347Y399941D01*
X254065Y401017D01*
X254318Y402285D01*
Y407975D01*
X254191Y408609D01*
X256601Y411019D01*
X257772Y410394D01*
X257735Y410210D01*
Y371179D01*
X255122Y368566D01*
X254136Y369220D01*
X254075Y369315D01*
X254318Y370535D01*
Y372110D01*
X248920D01*
Y367220D01*
X251003D01*
X252223Y367463D01*
X252318Y367402D01*
X252972Y366416D01*
X246041Y359485D01*
X221829D01*
X221708Y359644D01*
X221360Y360755D01*
X226648Y366043D01*
X227172Y366827D01*
X228519Y367026D01*
X228686Y366981D01*
X230467Y365615D01*
X232629Y364719D01*
X233680Y364580D01*
Y373380D01*
Y382179D01*
X232629Y382041D01*
X230467Y381145D01*
X229056Y380063D01*
X227786Y380641D01*
Y398823D01*
X243360Y414397D01*
X244297Y414210D01*
D02*
G37*
G36*
X128063Y427783D02*
X129323Y426941D01*
X129570Y426892D01*
X130810Y426645D01*
X196511D01*
X205533Y417623D01*
X206793Y416781D01*
X207040Y416732D01*
X208280Y416485D01*
X209439D01*
X209485Y416257D01*
X210203Y415181D01*
X211279Y414463D01*
X212547Y414210D01*
X218960D01*
X219400Y413508D01*
X219514Y412967D01*
X217836Y411290D01*
X212547D01*
X211279Y411037D01*
X210203Y410319D01*
X209485Y409243D01*
X209232Y407975D01*
Y402285D01*
X209485Y401017D01*
X210203Y399941D01*
X211279Y399223D01*
X212015Y399076D01*
Y394674D01*
X211279Y394527D01*
X210203Y393809D01*
X209485Y392733D01*
X209232Y391465D01*
Y385775D01*
X209485Y384507D01*
X210203Y383431D01*
X211279Y382713D01*
X212547Y382460D01*
X219253D01*
X220017Y381833D01*
Y380167D01*
X219253Y379540D01*
X217170D01*
Y373380D01*
X214630D01*
Y379540D01*
X212547D01*
X211279Y379287D01*
X210203Y378569D01*
X209485Y377493D01*
X209439Y377265D01*
X207403D01*
X207155Y377863D01*
X205730Y379720D01*
X203873Y381145D01*
X201711Y382041D01*
X200660Y382179D01*
Y373380D01*
X199390D01*
Y372110D01*
X190590D01*
X190729Y371059D01*
X191625Y368897D01*
X192126Y368244D01*
X191564Y367105D01*
X176890D01*
Y385160D01*
Y403160D01*
Y423240D01*
X159810D01*
Y403160D01*
Y385160D01*
Y367105D01*
X136229D01*
X103387Y399947D01*
X102127Y400789D01*
X100640Y401085D01*
X54390D01*
Y401660D01*
Y412660D01*
Y422765D01*
X55660Y423391D01*
X56477Y422765D01*
X58639Y421869D01*
X59690Y421730D01*
Y430530D01*
X60960D01*
Y431800D01*
X69759D01*
X69621Y432851D01*
X68725Y435013D01*
X67934Y436045D01*
X68560Y437315D01*
X118531D01*
X128063Y427783D01*
D02*
G37*
G36*
X636367Y519333D02*
X635881Y518160D01*
X624840D01*
Y497840D01*
X645160D01*
Y508881D01*
X646333Y509367D01*
X647700Y508000D01*
Y393700D01*
X667144Y374255D01*
X666471Y373133D01*
X664035Y373872D01*
X660400Y374230D01*
X656766Y373872D01*
X653271Y372812D01*
X650050Y371090D01*
X647227Y368773D01*
X644910Y365950D01*
X643188Y362729D01*
X642128Y359235D01*
X641770Y355600D01*
X642128Y351965D01*
X643188Y348471D01*
X644910Y345250D01*
X647227Y342427D01*
X650050Y340110D01*
X653271Y338388D01*
X656766Y337328D01*
X660400Y336970D01*
X664035Y337328D01*
X667529Y338388D01*
X670750Y340110D01*
X671952Y341096D01*
X673100Y340553D01*
Y316084D01*
X671952Y315541D01*
X671867Y315611D01*
X668298Y317518D01*
X664426Y318693D01*
X660400Y319089D01*
X656374Y318693D01*
X652502Y317518D01*
X648933Y315611D01*
X645806Y313044D01*
X643239Y309917D01*
X641332Y306348D01*
X640157Y302477D01*
X640143Y302335D01*
X640080D01*
X638840Y302088D01*
X638593Y302039D01*
X637333Y301197D01*
X619553Y283417D01*
X618711Y282157D01*
X618415Y280670D01*
Y274024D01*
X617679Y273877D01*
X616756Y273261D01*
X616256Y273132D01*
X615644D01*
X615144Y273261D01*
X614221Y273877D01*
X612953Y274130D01*
X606247D01*
X604979Y273877D01*
X604056Y273261D01*
X603556Y273132D01*
X602944D01*
X602444Y273261D01*
X601521Y273877D01*
X600253Y274130D01*
X596234D01*
X588217Y282147D01*
X586957Y282989D01*
X585470Y283285D01*
X547370D01*
X545883Y282989D01*
X544623Y282147D01*
X534331Y271855D01*
X521077D01*
X520932Y272072D01*
X519844Y272799D01*
X518560Y273055D01*
X515695D01*
Y275590D01*
X515399Y277077D01*
X514557Y278337D01*
X510858Y282036D01*
Y287325D01*
X510605Y288593D01*
X509887Y289669D01*
X508811Y290387D01*
X507543Y290640D01*
X500837D01*
X499569Y290387D01*
X498493Y289669D01*
X497775Y288593D01*
X497522Y287325D01*
Y281635D01*
X497775Y280367D01*
X498493Y279291D01*
X499569Y278573D01*
X500837Y278320D01*
X503586D01*
X507582Y274324D01*
X507096Y273055D01*
X505060D01*
X503776Y272799D01*
X502688Y272072D01*
X501961Y270984D01*
X501706Y269700D01*
Y263700D01*
X501961Y262416D01*
X502513Y261590D01*
X502428Y260426D01*
X502321Y260054D01*
X501739Y259692D01*
X501442Y259793D01*
X500997Y260459D01*
X499921Y261177D01*
X498653Y261430D01*
X491947D01*
X490706Y261183D01*
X490596Y261260D01*
X489860Y261996D01*
X489783Y262106D01*
X490030Y263347D01*
Y270053D01*
X489777Y271321D01*
X489161Y272244D01*
X489031Y272744D01*
Y273356D01*
X489161Y273856D01*
X489777Y274779D01*
X490030Y276047D01*
Y282753D01*
X489777Y284021D01*
X489059Y285097D01*
X487983Y285815D01*
X486715Y286068D01*
X481025D01*
X479757Y285815D01*
X478681Y285097D01*
X477963Y284021D01*
X477710Y282753D01*
Y276047D01*
X477963Y274779D01*
X478579Y273856D01*
X478708Y273356D01*
Y272744D01*
X478579Y272244D01*
X477963Y271321D01*
X477710Y270053D01*
Y263347D01*
X477963Y262079D01*
X478579Y261156D01*
X478708Y260656D01*
Y260044D01*
X478579Y259544D01*
X477963Y258621D01*
X477710Y257353D01*
Y250647D01*
X477963Y249379D01*
X478579Y248456D01*
X478708Y247956D01*
Y247344D01*
X478579Y246844D01*
X477963Y245921D01*
X477710Y244653D01*
Y237947D01*
X477963Y236679D01*
X478092Y236485D01*
X477508Y235073D01*
X477217Y235015D01*
X476141Y234297D01*
X475423Y233221D01*
X475170Y231953D01*
Y229870D01*
X481330D01*
Y227330D01*
X475170D01*
Y225394D01*
X463343Y213567D01*
X462501Y212307D01*
X462205Y210820D01*
Y207349D01*
X461000Y206143D01*
X459821Y206632D01*
X458470Y206809D01*
Y196850D01*
Y186891D01*
X459821Y187068D01*
X462263Y188080D01*
X464361Y189689D01*
X465970Y191787D01*
X466135Y192186D01*
X467405Y191933D01*
Y189689D01*
X447971Y170255D01*
X408940D01*
X407453Y169959D01*
X406193Y169117D01*
X401113Y164037D01*
X400271Y162777D01*
X399975Y161290D01*
Y117759D01*
X398107Y116985D01*
X396250Y115560D01*
X394825Y113703D01*
X393929Y111541D01*
X393623Y109220D01*
X393929Y106899D01*
X394825Y104737D01*
X396250Y102880D01*
X398107Y101455D01*
X400269Y100559D01*
X402590Y100253D01*
X404911Y100559D01*
X407073Y101455D01*
X408930Y102880D01*
X410355Y104737D01*
X411251Y106899D01*
X411557Y109220D01*
X411251Y111541D01*
X410355Y113703D01*
X408930Y115560D01*
X407745Y116470D01*
Y159681D01*
X410549Y162485D01*
X449580D01*
X451067Y162781D01*
X452327Y163623D01*
X469809Y181105D01*
X470795Y180295D01*
X470121Y179287D01*
X469825Y177800D01*
Y171455D01*
X466960D01*
X465676Y171199D01*
X464588Y170472D01*
X463861Y169384D01*
X463605Y168100D01*
Y162100D01*
X463861Y160816D01*
X464426Y159971D01*
X464343Y158812D01*
X464246Y158449D01*
X463639Y158071D01*
X463366Y158156D01*
X462897Y158859D01*
X461821Y159577D01*
X460553Y159830D01*
X453847D01*
X452579Y159577D01*
X451656Y158961D01*
X451156Y158832D01*
X450544D01*
X450044Y158961D01*
X449121Y159577D01*
X447853Y159830D01*
X441147D01*
X439879Y159577D01*
X438956Y158961D01*
X438456Y158832D01*
X437844D01*
X437344Y158961D01*
X436421Y159577D01*
X435153Y159830D01*
X428447D01*
X427179Y159577D01*
X426256Y158961D01*
X425756Y158832D01*
X425144D01*
X424644Y158961D01*
X423721Y159577D01*
X422453Y159830D01*
X415747D01*
X414479Y159577D01*
X413403Y158859D01*
X412685Y157783D01*
X412432Y156515D01*
Y150825D01*
X412685Y149557D01*
X413403Y148481D01*
X414479Y147763D01*
X415747Y147510D01*
X422453D01*
X423721Y147763D01*
X424644Y148379D01*
X425144Y148509D01*
X425756D01*
X426256Y148379D01*
X427179Y147763D01*
X428447Y147510D01*
X435153D01*
X436421Y147763D01*
X437344Y148379D01*
X437844Y148509D01*
X438456D01*
X438956Y148379D01*
X439879Y147763D01*
X441147Y147510D01*
X447853D01*
X449121Y147763D01*
X450044Y148379D01*
X450544Y148509D01*
X451156D01*
X451656Y148379D01*
X452579Y147763D01*
X453847Y147510D01*
X460553D01*
X461821Y147763D01*
X462541Y148243D01*
X463053Y148194D01*
X463767Y148014D01*
X464021Y147877D01*
X464588Y147028D01*
X464909Y146814D01*
Y145286D01*
X464588Y145072D01*
X463996Y144186D01*
X463837Y144104D01*
X463053Y143906D01*
X462541Y143857D01*
X461821Y144337D01*
X460553Y144590D01*
X453847D01*
X452579Y144337D01*
X451503Y143619D01*
X450216Y143590D01*
X450197Y143619D01*
X449121Y144337D01*
X447853Y144590D01*
X441147D01*
X439879Y144337D01*
X438956Y143721D01*
X438456Y143591D01*
X437844D01*
X437344Y143721D01*
X436421Y144337D01*
X435153Y144590D01*
X428447D01*
X427179Y144337D01*
X426256Y143721D01*
X425756Y143591D01*
X425144D01*
X424644Y143721D01*
X423721Y144337D01*
X422453Y144590D01*
X415747D01*
X414479Y144337D01*
X413403Y143619D01*
X412685Y142543D01*
X412432Y141275D01*
Y135585D01*
X412685Y134317D01*
X413403Y133241D01*
X414479Y132523D01*
X415215Y132376D01*
Y124460D01*
X415511Y122973D01*
X416353Y121713D01*
X417755Y120311D01*
Y115963D01*
X417157Y115715D01*
X415300Y114290D01*
X413875Y112433D01*
X412979Y110271D01*
X412673Y107950D01*
X412979Y105629D01*
X413875Y103467D01*
X415300Y101610D01*
X417157Y100185D01*
X419319Y99289D01*
X421640Y98983D01*
X423961Y99289D01*
X426123Y100185D01*
X427980Y101610D01*
X429405Y103467D01*
X430301Y105629D01*
X430607Y107950D01*
X430301Y110271D01*
X429405Y112433D01*
X427980Y114290D01*
X426123Y115715D01*
X425525Y115963D01*
Y121920D01*
X425229Y123407D01*
X424387Y124667D01*
X422985Y126069D01*
Y132376D01*
X423721Y132523D01*
X424644Y133139D01*
X425144Y133268D01*
X425756D01*
X426256Y133139D01*
X427179Y132523D01*
X428447Y132270D01*
X435153D01*
X436394Y132517D01*
X436504Y132440D01*
X437240Y131704D01*
X437317Y131594D01*
X437070Y130353D01*
Y128270D01*
X443230D01*
Y127000D01*
X444500D01*
Y120332D01*
X446075D01*
X447343Y120585D01*
X447506Y120331D01*
X447515Y120288D01*
X448235Y119210D01*
Y103209D01*
X441621Y96595D01*
X429260D01*
X427773Y96299D01*
X426513Y95457D01*
X365553Y34497D01*
X364711Y33237D01*
X364563Y32494D01*
X363206Y32178D01*
X362846Y32646D01*
X360724Y34275D01*
X358252Y35299D01*
X355600Y35648D01*
X352948Y35299D01*
X350476Y34275D01*
X350025Y33929D01*
X240823Y143131D01*
X241071Y143729D01*
X241377Y146050D01*
X241071Y148371D01*
X240175Y150533D01*
X238750Y152390D01*
X236893Y153815D01*
X234731Y154711D01*
X232410Y155017D01*
X230089Y154711D01*
X227927Y153815D01*
X226070Y152390D01*
X224645Y150533D01*
X223749Y148371D01*
X223443Y146050D01*
X223749Y143729D01*
X224645Y141567D01*
X226070Y139710D01*
X227927Y138285D01*
X230089Y137389D01*
X232410Y137083D01*
X234731Y137389D01*
X235329Y137637D01*
X345610Y27356D01*
X345352Y25400D01*
X345701Y22748D01*
X346725Y20276D01*
X348354Y18154D01*
X350476Y16525D01*
X352948Y15502D01*
X355600Y15152D01*
X358252Y15502D01*
X360724Y16525D01*
X362846Y18154D01*
X363213Y18632D01*
X364415Y18223D01*
Y16510D01*
X364711Y15023D01*
X365415Y13970D01*
X365032Y12700D01*
X154747D01*
X154204Y13848D01*
X155190Y15050D01*
X156912Y18271D01*
X157972Y21765D01*
X158330Y25400D01*
X157972Y29035D01*
X156912Y32529D01*
X155190Y35750D01*
X152873Y38573D01*
X150050Y40890D01*
X146829Y42612D01*
X143335Y43672D01*
X139700Y44030D01*
X136066Y43672D01*
X132571Y42612D01*
X129350Y40890D01*
X126527Y38573D01*
X124210Y35750D01*
X122488Y32529D01*
X121428Y29035D01*
X121070Y25400D01*
X121428Y21765D01*
X122488Y18271D01*
X124210Y15050D01*
X125196Y13848D01*
X124653Y12700D01*
X12700D01*
Y328660D01*
X27390D01*
Y347740D01*
X12700D01*
Y455660D01*
X26595D01*
Y427182D01*
X26891Y425695D01*
X27733Y424435D01*
X32525Y419643D01*
X33785Y418801D01*
X34032Y418752D01*
X34310Y418697D01*
Y412660D01*
Y409542D01*
X30293Y405525D01*
X29451Y404265D01*
X29155Y402778D01*
Y367390D01*
X29451Y365903D01*
X30293Y364643D01*
X76374Y318563D01*
X76212Y316928D01*
X76091Y316847D01*
X75373Y315771D01*
X75120Y314503D01*
Y307797D01*
X75373Y306529D01*
X76091Y305453D01*
X77167Y304735D01*
X77395Y304689D01*
Y299720D01*
X77691Y298233D01*
X78533Y296973D01*
X147317Y228189D01*
X147175Y228003D01*
X146279Y225841D01*
X145973Y223520D01*
X146279Y221199D01*
X147175Y219037D01*
X148600Y217180D01*
X150457Y215755D01*
X152619Y214859D01*
X154940Y214553D01*
X157261Y214859D01*
X159423Y215755D01*
X161280Y217180D01*
X162705Y219037D01*
X163601Y221199D01*
X163907Y223520D01*
X163601Y225841D01*
X162705Y228003D01*
X161280Y229860D01*
X159423Y231285D01*
X157261Y232181D01*
X154940Y232487D01*
X154115Y232378D01*
X85165Y301329D01*
Y304689D01*
X85393Y304735D01*
X86469Y305453D01*
X87187Y306529D01*
X87440Y307797D01*
Y314503D01*
X87187Y315771D01*
X86469Y316847D01*
X85393Y317565D01*
X85165Y317611D01*
Y319150D01*
X84869Y320637D01*
X84027Y321897D01*
X38437Y367487D01*
X38923Y368660D01*
X54390D01*
Y379660D01*
Y382315D01*
X101141D01*
X130603Y352853D01*
X131863Y352011D01*
X132110Y351962D01*
X133350Y351715D01*
X247650D01*
X249137Y352011D01*
X250397Y352853D01*
X264367Y366823D01*
X265209Y368083D01*
X265258Y368330D01*
X265394Y369012D01*
X266239Y369185D01*
X266715Y369146D01*
X267353Y368191D01*
X268429Y367473D01*
X269697Y367220D01*
X271780D01*
Y373380D01*
Y379540D01*
X269697D01*
X268429Y379287D01*
X267353Y378569D01*
X266775Y377703D01*
X265822Y377796D01*
X265505Y377914D01*
Y384086D01*
X265822Y384204D01*
X266775Y384297D01*
X267353Y383431D01*
X268429Y382713D01*
X269697Y382460D01*
X276403D01*
X277671Y382713D01*
X278747Y383431D01*
X279465Y384507D01*
X279718Y385775D01*
Y391465D01*
X279465Y392733D01*
X278747Y393809D01*
X277671Y394527D01*
X276935Y394674D01*
Y399076D01*
X277671Y399223D01*
X278747Y399941D01*
X279465Y401017D01*
X279511Y401245D01*
X282049D01*
X283536Y401541D01*
X284796Y402383D01*
X368507Y486094D01*
X369349Y487354D01*
X369645Y488841D01*
Y498612D01*
X370884Y499125D01*
X373006Y500754D01*
X374635Y502876D01*
X375658Y505348D01*
X376008Y508000D01*
X375658Y510652D01*
X374635Y513124D01*
X373006Y515246D01*
X370884Y516875D01*
X368412Y517898D01*
X365760Y518248D01*
X363108Y517898D01*
X360636Y516875D01*
X358514Y515246D01*
X356885Y513124D01*
X355862Y510652D01*
X355512Y508000D01*
X355862Y505348D01*
X356885Y502876D01*
X358514Y500754D01*
X360636Y499125D01*
X361875Y498612D01*
Y490450D01*
X280745Y409319D01*
X280284Y409292D01*
X279342Y409428D01*
X278747Y410319D01*
X277671Y411037D01*
X276403Y411290D01*
X269989D01*
X269550Y411992D01*
X269436Y412533D01*
X271114Y414210D01*
X276403D01*
X277671Y414463D01*
X278747Y415181D01*
X279465Y416257D01*
X279718Y417525D01*
Y423215D01*
X279465Y424483D01*
X278747Y425559D01*
X277671Y426277D01*
X276403Y426530D01*
X274933D01*
X274447Y427703D01*
X343107Y496363D01*
X343949Y497623D01*
X344137Y498567D01*
X345484Y499125D01*
X347606Y500754D01*
X349235Y502876D01*
X350258Y505348D01*
X350608Y508000D01*
X350258Y510652D01*
X349235Y513124D01*
X347606Y515246D01*
X345484Y516875D01*
X343012Y517898D01*
X340360Y518248D01*
X337708Y517898D01*
X335236Y516875D01*
X333114Y515246D01*
X331485Y513124D01*
X330462Y510652D01*
X330112Y508000D01*
X330462Y505348D01*
X331485Y502876D01*
X333114Y500754D01*
X334271Y499865D01*
X334355Y498598D01*
X267266Y431510D01*
X266584Y431374D01*
X266338Y431325D01*
X265078Y430483D01*
X255491Y420896D01*
X254318Y421382D01*
Y423215D01*
X254065Y424483D01*
X253347Y425559D01*
X252271Y426277D01*
X251003Y426530D01*
X244297D01*
X243029Y426277D01*
X241953Y425559D01*
X241235Y424483D01*
X240982Y423215D01*
Y423006D01*
X239688Y421711D01*
X238517Y422337D01*
X238581Y422656D01*
Y425583D01*
X241929Y428931D01*
X244856D01*
X246343Y429227D01*
X247603Y430069D01*
X315336Y497802D01*
X317612Y498102D01*
X320084Y499125D01*
X322206Y500754D01*
X323835Y502876D01*
X324859Y505348D01*
X325208Y508000D01*
X324859Y510652D01*
X323835Y513124D01*
X322206Y515246D01*
X320084Y516875D01*
X317612Y517898D01*
X314960Y518248D01*
X312308Y517898D01*
X309836Y516875D01*
X307714Y515246D01*
X306085Y513124D01*
X305061Y510652D01*
X304712Y508000D01*
X305061Y505348D01*
X306085Y502876D01*
X307534Y500988D01*
X243247Y436701D01*
X240320D01*
X239080Y436454D01*
X238834Y436405D01*
X237573Y435563D01*
X231949Y429939D01*
X231107Y428678D01*
X230811Y427192D01*
Y424265D01*
X223811Y417264D01*
X223270Y417378D01*
X222568Y417817D01*
Y423215D01*
X222315Y424483D01*
X221597Y425559D01*
X220521Y426277D01*
X219253Y426530D01*
X212547D01*
X211279Y426277D01*
X210203Y425559D01*
X210111Y425421D01*
X208847Y425297D01*
X200867Y433277D01*
X199607Y434119D01*
X198120Y434415D01*
X132419D01*
X122887Y443947D01*
X121627Y444789D01*
X120140Y445085D01*
X54390D01*
Y445660D01*
Y458740D01*
X36633D01*
X36147Y459913D01*
X48359Y472125D01*
X87810D01*
Y454160D01*
X104890D01*
Y457660D01*
X122390D01*
Y472125D01*
X144810D01*
Y438660D01*
X161890D01*
Y454160D01*
X176890D01*
Y472125D01*
X257570D01*
X259057Y472421D01*
X260317Y473263D01*
X285669Y498615D01*
X286908Y498102D01*
X289560Y497752D01*
X292212Y498102D01*
X294684Y499125D01*
X296806Y500754D01*
X298435Y502876D01*
X299459Y505348D01*
X299808Y508000D01*
X299459Y510652D01*
X298435Y513124D01*
X296806Y515246D01*
X294684Y516875D01*
X292212Y517898D01*
X289560Y518248D01*
X286908Y517898D01*
X284436Y516875D01*
X282314Y515246D01*
X280685Y513124D01*
X279662Y510652D01*
X279312Y508000D01*
X279662Y505348D01*
X280175Y504109D01*
X255961Y479895D01*
X46750D01*
X45263Y479599D01*
X44003Y478757D01*
X28660Y463414D01*
X27390Y463940D01*
Y474740D01*
X12700D01*
Y520700D01*
X137353D01*
X137896Y519552D01*
X136910Y518350D01*
X135188Y515129D01*
X134128Y511634D01*
X133770Y508000D01*
X134128Y504366D01*
X135188Y500871D01*
X136910Y497650D01*
X139227Y494827D01*
X142050Y492510D01*
X145271Y490788D01*
X148765Y489728D01*
X152400Y489370D01*
X156034Y489728D01*
X159529Y490788D01*
X162750Y492510D01*
X165573Y494827D01*
X167890Y497650D01*
X169612Y500871D01*
X170672Y504366D01*
X171030Y508000D01*
X170672Y511634D01*
X169612Y515129D01*
X167890Y518350D01*
X166904Y519552D01*
X167447Y520700D01*
X635000D01*
X636367Y519333D01*
D02*
G37*
G36*
X542252Y266992D02*
X542213Y266700D01*
X542519Y264379D01*
X543415Y262217D01*
X544840Y260360D01*
X546697Y258935D01*
X548859Y258039D01*
X549910Y257901D01*
Y266700D01*
X552450D01*
Y257901D01*
X553501Y258039D01*
X555663Y258935D01*
X557520Y260360D01*
X557619Y260488D01*
X557850Y260409D01*
X557992Y260204D01*
X558270Y258926D01*
X557841Y258284D01*
X557585Y257000D01*
Y251000D01*
X557841Y249716D01*
X558568Y248628D01*
X558889Y248414D01*
Y246886D01*
X558568Y246672D01*
X557841Y245584D01*
X557585Y244300D01*
Y238300D01*
X557841Y237016D01*
X558568Y235928D01*
X558889Y235714D01*
Y234186D01*
X558568Y233972D01*
X557841Y232884D01*
X557585Y231600D01*
Y225600D01*
X557841Y224316D01*
X558568Y223228D01*
X559656Y222501D01*
X560940Y222246D01*
X574440D01*
X574824Y222322D01*
X577532Y219614D01*
Y218135D01*
X577785Y216867D01*
X578503Y215791D01*
X579045Y215429D01*
Y209661D01*
X578817Y209615D01*
X577741Y208897D01*
X577023Y207821D01*
X576876Y207085D01*
X535940D01*
X534700Y206838D01*
X534453Y206789D01*
X533193Y205947D01*
X532509Y205263D01*
X531911Y205511D01*
X530488Y205698D01*
X530033Y207039D01*
X536147Y213153D01*
X536989Y214413D01*
X537285Y215900D01*
Y264353D01*
X537427Y264381D01*
X538687Y265223D01*
X541049Y267585D01*
X542252Y266992D01*
D02*
G37*
%LPC*%
G36*
X118020Y309880D02*
X110490D01*
Y302351D01*
X111541Y302489D01*
X113703Y303385D01*
X115560Y304810D01*
X116985Y306667D01*
X117881Y308829D01*
X118020Y309880D01*
D02*
G37*
G36*
X455930Y195580D02*
X447241D01*
X447418Y194229D01*
X448430Y191787D01*
X450039Y189689D01*
X452137Y188080D01*
X454579Y187068D01*
X455930Y186891D01*
Y195580D01*
D02*
G37*
G36*
Y206809D02*
X454579Y206632D01*
X452137Y205620D01*
X450039Y204011D01*
X448430Y201913D01*
X447418Y199471D01*
X447241Y198120D01*
X455930D01*
Y206809D01*
D02*
G37*
G36*
X502920Y305880D02*
X500837D01*
X499569Y305627D01*
X498493Y304909D01*
X497775Y303833D01*
X497522Y302565D01*
Y300990D01*
X502920D01*
Y305880D01*
D02*
G37*
G36*
X520700Y308519D02*
Y300990D01*
X528229D01*
X528091Y302041D01*
X527195Y304203D01*
X525770Y306060D01*
X523913Y307485D01*
X521751Y308381D01*
X520700Y308519D01*
D02*
G37*
G36*
X528320Y186600D02*
X527269Y186461D01*
X525107Y185565D01*
X523250Y184140D01*
X521825Y182283D01*
X520929Y180121D01*
X520790Y179070D01*
X528320D01*
Y186600D01*
D02*
G37*
G36*
X518160Y308519D02*
X517109Y308381D01*
X514947Y307485D01*
X513090Y306060D01*
X511721Y304276D01*
X511697Y304267D01*
X511323Y304219D01*
X510316Y304266D01*
X509887Y304909D01*
X508811Y305627D01*
X507543Y305880D01*
X505460D01*
Y299720D01*
Y293560D01*
X507543D01*
X508811Y293813D01*
X509887Y294531D01*
X510316Y295174D01*
X511323Y295221D01*
X511697Y295173D01*
X511721Y295164D01*
X513090Y293380D01*
X514947Y291955D01*
X517109Y291059D01*
X518160Y290921D01*
Y299720D01*
Y308519D01*
D02*
G37*
G36*
X530860Y186600D02*
Y179070D01*
X538390D01*
X538251Y180121D01*
X537355Y182283D01*
X535930Y184140D01*
X534073Y185565D01*
X531911Y186461D01*
X530860Y186600D01*
D02*
G37*
G36*
X636270D02*
Y179070D01*
X643800D01*
X643661Y180121D01*
X642765Y182283D01*
X641340Y184140D01*
X639483Y185565D01*
X637321Y186461D01*
X636270Y186600D01*
D02*
G37*
G36*
X633730D02*
X632679Y186461D01*
X630517Y185565D01*
X628660Y184140D01*
X627235Y182283D01*
X626339Y180121D01*
X626200Y179070D01*
X633730D01*
Y186600D01*
D02*
G37*
G36*
X621030Y227140D02*
X618947D01*
X617679Y226887D01*
X616756Y226271D01*
X616256Y226141D01*
X615644D01*
X615144Y226271D01*
X614221Y226887D01*
X612953Y227140D01*
X610870D01*
Y220980D01*
Y214820D01*
X612953D01*
X614221Y215073D01*
X615144Y215689D01*
X615644Y215819D01*
X616256D01*
X616756Y215689D01*
X617679Y215073D01*
X618947Y214820D01*
X621030D01*
Y220980D01*
Y227140D01*
D02*
G37*
G36*
X528229Y298450D02*
X520700D01*
Y290921D01*
X521751Y291059D01*
X523913Y291955D01*
X525770Y293380D01*
X527195Y295237D01*
X528091Y297399D01*
X528229Y298450D01*
D02*
G37*
G36*
X477430Y292100D02*
X459831D01*
X459969Y291049D01*
X460865Y288887D01*
X462290Y287030D01*
X463108Y286402D01*
X463441Y285097D01*
X463262Y284829D01*
X462723Y284021D01*
X462470Y282753D01*
Y280670D01*
X474790D01*
Y282753D01*
X474537Y284021D01*
X473997Y284829D01*
X473819Y285097D01*
X474152Y286402D01*
X474970Y287030D01*
X476395Y288887D01*
X477291Y291049D01*
X477430Y292100D01*
D02*
G37*
G36*
X502920Y298450D02*
X497522D01*
Y296875D01*
X497775Y295607D01*
X498493Y294531D01*
X499569Y293813D01*
X500837Y293560D01*
X502920D01*
Y298450D01*
D02*
G37*
G36*
X469900Y302169D02*
Y294640D01*
X477430D01*
X477291Y295691D01*
X476395Y297853D01*
X474970Y299710D01*
X473113Y301135D01*
X470951Y302031D01*
X469900Y302169D01*
D02*
G37*
G36*
X467360D02*
X466309Y302031D01*
X464147Y301135D01*
X462290Y299710D01*
X460865Y297853D01*
X459969Y295691D01*
X459831Y294640D01*
X467360D01*
Y302169D01*
D02*
G37*
G36*
X625653Y258890D02*
X623570D01*
Y254000D01*
X628968D01*
Y255575D01*
X628715Y256843D01*
X627997Y257919D01*
X626921Y258637D01*
X625653Y258890D01*
D02*
G37*
G36*
X474790Y265430D02*
X462470D01*
Y263347D01*
X462723Y262079D01*
X463339Y261156D01*
X463469Y260656D01*
Y260044D01*
X463339Y259544D01*
X462723Y258621D01*
X462470Y257353D01*
Y250647D01*
X462723Y249379D01*
X463339Y248456D01*
X463469Y247956D01*
Y247344D01*
X463339Y246844D01*
X462723Y245921D01*
X462470Y244653D01*
Y237947D01*
X462723Y236679D01*
X463441Y235603D01*
X464517Y234885D01*
X465785Y234632D01*
X471475D01*
X472743Y234885D01*
X473819Y235603D01*
X474537Y236679D01*
X474790Y237947D01*
Y244653D01*
X474537Y245921D01*
X473921Y246844D01*
X473792Y247344D01*
Y247956D01*
X473921Y248456D01*
X474537Y249379D01*
X474790Y250647D01*
Y257353D01*
X474537Y258621D01*
X473921Y259544D01*
X473792Y260044D01*
Y260656D01*
X473921Y261156D01*
X474537Y262079D01*
X474790Y263347D01*
Y265430D01*
D02*
G37*
G36*
X351699Y303530D02*
X344170D01*
Y296000D01*
X345221Y296139D01*
X347383Y297035D01*
X349240Y298460D01*
X350665Y300317D01*
X351561Y302479D01*
X351699Y303530D01*
D02*
G37*
G36*
X341630D02*
X334100D01*
X334239Y302479D01*
X335135Y300317D01*
X336560Y298460D01*
X338417Y297035D01*
X340579Y296139D01*
X341630Y296000D01*
Y303530D01*
D02*
G37*
G36*
X474790Y278130D02*
X462470D01*
Y276047D01*
X462723Y274779D01*
X463339Y273856D01*
X463469Y273356D01*
Y272744D01*
X463339Y272244D01*
X462723Y271321D01*
X462470Y270053D01*
Y267970D01*
X474790D01*
Y270053D01*
X474537Y271321D01*
X473921Y272244D01*
X473792Y272744D01*
Y273356D01*
X473921Y273856D01*
X474537Y274779D01*
X474790Y276047D01*
Y278130D01*
D02*
G37*
G36*
X24130Y34200D02*
X23079Y34061D01*
X20917Y33165D01*
X19060Y31740D01*
X17635Y29883D01*
X16739Y27721D01*
X16601Y26670D01*
X24130D01*
Y34200D01*
D02*
G37*
G36*
X34200Y24130D02*
X26670D01*
Y16601D01*
X27721Y16739D01*
X29883Y17635D01*
X31740Y19060D01*
X33165Y20917D01*
X34061Y23079D01*
X34200Y24130D01*
D02*
G37*
G36*
X24130D02*
X16601D01*
X16739Y23079D01*
X17635Y20917D01*
X19060Y19060D01*
X20917Y17635D01*
X23079Y16739D01*
X24130Y16601D01*
Y24130D01*
D02*
G37*
G36*
X407670Y35480D02*
Y26670D01*
X416480D01*
X416298Y28052D01*
X415275Y30524D01*
X413646Y32646D01*
X411524Y34275D01*
X409052Y35299D01*
X407670Y35480D01*
D02*
G37*
G36*
X405130D02*
X403748Y35299D01*
X401276Y34275D01*
X399154Y32646D01*
X397525Y30524D01*
X396502Y28052D01*
X396320Y26670D01*
X405130D01*
Y35480D01*
D02*
G37*
G36*
X26670Y34200D02*
Y26670D01*
X34200D01*
X34061Y27721D01*
X33165Y29883D01*
X31740Y31740D01*
X29883Y33165D01*
X27721Y34061D01*
X26670Y34200D01*
D02*
G37*
G36*
X330200Y35648D02*
X327548Y35299D01*
X325076Y34275D01*
X322954Y32646D01*
X321325Y30524D01*
X320302Y28052D01*
X319952Y25400D01*
X320302Y22748D01*
X321325Y20276D01*
X322954Y18154D01*
X325076Y16525D01*
X327548Y15502D01*
X330200Y15152D01*
X332852Y15502D01*
X335324Y16525D01*
X337446Y18154D01*
X339075Y20276D01*
X340098Y22748D01*
X340448Y25400D01*
X340098Y28052D01*
X339075Y30524D01*
X337446Y32646D01*
X335324Y34275D01*
X332852Y35299D01*
X330200Y35648D01*
D02*
G37*
G36*
X304800D02*
X302148Y35299D01*
X299676Y34275D01*
X297554Y32646D01*
X295925Y30524D01*
X294902Y28052D01*
X294552Y25400D01*
X294902Y22748D01*
X295925Y20276D01*
X297554Y18154D01*
X299676Y16525D01*
X302148Y15502D01*
X304800Y15152D01*
X307452Y15502D01*
X309924Y16525D01*
X312046Y18154D01*
X313675Y20276D01*
X314699Y22748D01*
X315048Y25400D01*
X314699Y28052D01*
X313675Y30524D01*
X312046Y32646D01*
X309924Y34275D01*
X307452Y35299D01*
X304800Y35648D01*
D02*
G37*
G36*
X279400D02*
X276748Y35299D01*
X274276Y34275D01*
X272154Y32646D01*
X270525Y30524D01*
X269501Y28052D01*
X269152Y25400D01*
X269501Y22748D01*
X270525Y20276D01*
X272154Y18154D01*
X274276Y16525D01*
X276748Y15502D01*
X279400Y15152D01*
X282052Y15502D01*
X284524Y16525D01*
X286646Y18154D01*
X288275Y20276D01*
X289298Y22748D01*
X289648Y25400D01*
X289298Y28052D01*
X288275Y30524D01*
X286646Y32646D01*
X284524Y34275D01*
X282052Y35299D01*
X279400Y35648D01*
D02*
G37*
G36*
X254000Y34367D02*
X251679Y34061D01*
X249517Y33165D01*
X247660Y31740D01*
X246235Y29883D01*
X245339Y27721D01*
X245033Y25400D01*
X245339Y23079D01*
X246235Y20917D01*
X247660Y19060D01*
X249517Y17635D01*
X251679Y16739D01*
X254000Y16433D01*
X256321Y16739D01*
X258483Y17635D01*
X260340Y19060D01*
X261765Y20917D01*
X262661Y23079D01*
X262967Y25400D01*
X262661Y27721D01*
X261765Y29883D01*
X260340Y31740D01*
X258483Y33165D01*
X256321Y34061D01*
X254000Y34367D01*
D02*
G37*
G36*
X635000Y35648D02*
X632348Y35299D01*
X629876Y34275D01*
X627754Y32646D01*
X626125Y30524D01*
X625102Y28052D01*
X624752Y25400D01*
X625102Y22748D01*
X626125Y20276D01*
X627754Y18154D01*
X629876Y16525D01*
X632348Y15502D01*
X635000Y15152D01*
X637652Y15502D01*
X640124Y16525D01*
X642246Y18154D01*
X643875Y20276D01*
X644899Y22748D01*
X645248Y25400D01*
X644899Y28052D01*
X643875Y30524D01*
X642246Y32646D01*
X640124Y34275D01*
X637652Y35299D01*
X635000Y35648D01*
D02*
G37*
G36*
X609600D02*
X606948Y35299D01*
X604476Y34275D01*
X602354Y32646D01*
X600725Y30524D01*
X599701Y28052D01*
X599352Y25400D01*
X599701Y22748D01*
X600725Y20276D01*
X602354Y18154D01*
X604476Y16525D01*
X606948Y15502D01*
X609600Y15152D01*
X612252Y15502D01*
X614724Y16525D01*
X616846Y18154D01*
X618475Y20276D01*
X619498Y22748D01*
X619848Y25400D01*
X619498Y28052D01*
X618475Y30524D01*
X616846Y32646D01*
X614724Y34275D01*
X612252Y35299D01*
X609600Y35648D01*
D02*
G37*
G36*
X552768Y165100D02*
X547370D01*
Y160210D01*
X549453D01*
X550721Y160463D01*
X551797Y161181D01*
X552515Y162257D01*
X552768Y163525D01*
Y165100D01*
D02*
G37*
G36*
X595630Y131890D02*
X593547D01*
X592279Y131637D01*
X591356Y131021D01*
X590856Y130892D01*
X590244D01*
X589744Y131021D01*
X588821Y131637D01*
X587553Y131890D01*
X585470D01*
Y125730D01*
Y119570D01*
X587553D01*
X588821Y119823D01*
X589744Y120439D01*
X590244Y120569D01*
X590856D01*
X591356Y120439D01*
X592279Y119823D01*
X593547Y119570D01*
X595630D01*
Y125730D01*
Y131890D01*
D02*
G37*
G36*
X610870Y134529D02*
X609819Y134391D01*
X607657Y133495D01*
X605800Y132070D01*
X604431Y130286D01*
X604407Y130277D01*
X604033Y130229D01*
X603026Y130276D01*
X602597Y130919D01*
X601521Y131637D01*
X600253Y131890D01*
X598170D01*
Y125730D01*
Y119570D01*
X600253D01*
X601521Y119823D01*
X602597Y120541D01*
X603026Y121184D01*
X604033Y121231D01*
X604407Y121183D01*
X604431Y121174D01*
X605800Y119390D01*
X607657Y117965D01*
X609819Y117069D01*
X610870Y116931D01*
Y125730D01*
Y134529D01*
D02*
G37*
G36*
X643800Y176530D02*
X636270D01*
Y169000D01*
X637321Y169139D01*
X639483Y170035D01*
X641340Y171460D01*
X642765Y173317D01*
X643661Y175479D01*
X643800Y176530D01*
D02*
G37*
G36*
X633730D02*
X626200D01*
X626339Y175479D01*
X627235Y173317D01*
X628660Y171460D01*
X630517Y170035D01*
X632679Y169139D01*
X633730Y169000D01*
Y176530D01*
D02*
G37*
G36*
X549453Y172530D02*
X547370D01*
Y167640D01*
X552768D01*
Y169215D01*
X552515Y170483D01*
X551797Y171559D01*
X550721Y172277D01*
X549453Y172530D01*
D02*
G37*
G36*
X609600Y96839D02*
X605574Y96443D01*
X601702Y95268D01*
X598133Y93361D01*
X595006Y90794D01*
X592439Y87667D01*
X590532Y84098D01*
X589357Y80226D01*
X588961Y76200D01*
X589357Y72174D01*
X590532Y68302D01*
X592439Y64733D01*
X595006Y61606D01*
X598133Y59039D01*
X601702Y57132D01*
X605574Y55957D01*
X609600Y55561D01*
X613627Y55957D01*
X617498Y57132D01*
X621067Y59039D01*
X624194Y61606D01*
X626761Y64733D01*
X628668Y68302D01*
X629843Y72174D01*
X630239Y76200D01*
X629843Y80226D01*
X628668Y84098D01*
X626761Y87667D01*
X624194Y90794D01*
X621067Y93361D01*
X617498Y95268D01*
X613627Y96443D01*
X609600Y96839D01*
D02*
G37*
G36*
X433070Y35480D02*
Y26670D01*
X441880D01*
X441698Y28052D01*
X440675Y30524D01*
X439046Y32646D01*
X436924Y34275D01*
X434452Y35299D01*
X433070Y35480D01*
D02*
G37*
G36*
X430530D02*
X429148Y35299D01*
X426676Y34275D01*
X424554Y32646D01*
X422925Y30524D01*
X421902Y28052D01*
X421720Y26670D01*
X430530D01*
Y35480D01*
D02*
G37*
G36*
X613410Y134529D02*
Y127000D01*
X620939D01*
X620801Y128051D01*
X619905Y130213D01*
X618480Y132070D01*
X616623Y133495D01*
X614461Y134391D01*
X613410Y134529D01*
D02*
G37*
G36*
X441960Y125730D02*
X437070D01*
Y123647D01*
X437323Y122379D01*
X438041Y121303D01*
X439117Y120585D01*
X440385Y120332D01*
X441960D01*
Y125730D01*
D02*
G37*
G36*
X620939Y124460D02*
X613410D01*
Y116931D01*
X614461Y117069D01*
X616623Y117965D01*
X618480Y119390D01*
X619905Y121247D01*
X620801Y123409D01*
X620939Y124460D01*
D02*
G37*
G36*
X95250Y309880D02*
X90360D01*
Y307797D01*
X90613Y306529D01*
X91331Y305453D01*
X92407Y304735D01*
X93675Y304482D01*
X95250D01*
Y309880D01*
D02*
G37*
G36*
X457200Y518248D02*
X454548Y517898D01*
X452076Y516875D01*
X449954Y515246D01*
X448325Y513124D01*
X447301Y510652D01*
X446952Y508000D01*
X447301Y505348D01*
X448325Y502876D01*
X449954Y500754D01*
X452076Y499125D01*
X454548Y498102D01*
X457200Y497752D01*
X459852Y498102D01*
X462324Y499125D01*
X464446Y500754D01*
X466075Y502876D01*
X467099Y505348D01*
X467448Y508000D01*
X467099Y510652D01*
X466075Y513124D01*
X464446Y515246D01*
X462324Y516875D01*
X459852Y517898D01*
X457200Y518248D01*
D02*
G37*
G36*
X391160D02*
X388508Y517898D01*
X386036Y516875D01*
X383914Y515246D01*
X382285Y513124D01*
X381261Y510652D01*
X380912Y508000D01*
X381261Y505348D01*
X382285Y502876D01*
X383914Y500754D01*
X386036Y499125D01*
X388508Y498102D01*
X391160Y497752D01*
X393812Y498102D01*
X396284Y499125D01*
X398406Y500754D01*
X400035Y502876D01*
X401059Y505348D01*
X401408Y508000D01*
X401059Y510652D01*
X400035Y513124D01*
X398406Y515246D01*
X396284Y516875D01*
X393812Y517898D01*
X391160Y518248D01*
D02*
G37*
G36*
X238760D02*
X236108Y517898D01*
X233636Y516875D01*
X231514Y515246D01*
X229885Y513124D01*
X228862Y510652D01*
X228512Y508000D01*
X228862Y505348D01*
X229885Y502876D01*
X231514Y500754D01*
X233636Y499125D01*
X236108Y498102D01*
X238760Y497752D01*
X241412Y498102D01*
X243884Y499125D01*
X246006Y500754D01*
X247635Y502876D01*
X248659Y505348D01*
X249008Y508000D01*
X248659Y510652D01*
X247635Y513124D01*
X246006Y515246D01*
X243884Y516875D01*
X241412Y517898D01*
X238760Y518248D01*
D02*
G37*
G36*
X533400D02*
X530748Y517898D01*
X528276Y516875D01*
X526154Y515246D01*
X524525Y513124D01*
X523502Y510652D01*
X523152Y508000D01*
X523502Y505348D01*
X524525Y502876D01*
X526154Y500754D01*
X528276Y499125D01*
X530748Y498102D01*
X533400Y497752D01*
X536052Y498102D01*
X538524Y499125D01*
X540646Y500754D01*
X542275Y502876D01*
X543298Y505348D01*
X543648Y508000D01*
X543298Y510652D01*
X542275Y513124D01*
X540646Y515246D01*
X538524Y516875D01*
X536052Y517898D01*
X533400Y518248D01*
D02*
G37*
G36*
X508000D02*
X505348Y517898D01*
X502876Y516875D01*
X500754Y515246D01*
X499125Y513124D01*
X498102Y510652D01*
X497752Y508000D01*
X498102Y505348D01*
X499125Y502876D01*
X500754Y500754D01*
X502876Y499125D01*
X505348Y498102D01*
X508000Y497752D01*
X510652Y498102D01*
X513124Y499125D01*
X515246Y500754D01*
X516875Y502876D01*
X517898Y505348D01*
X518248Y508000D01*
X517898Y510652D01*
X516875Y513124D01*
X515246Y515246D01*
X513124Y516875D01*
X510652Y517898D01*
X508000Y518248D01*
D02*
G37*
G36*
X482600D02*
X479948Y517898D01*
X477476Y516875D01*
X475354Y515246D01*
X473725Y513124D01*
X472701Y510652D01*
X472352Y508000D01*
X472701Y505348D01*
X473725Y502876D01*
X475354Y500754D01*
X477476Y499125D01*
X479948Y498102D01*
X482600Y497752D01*
X485252Y498102D01*
X487724Y499125D01*
X489846Y500754D01*
X491475Y502876D01*
X492499Y505348D01*
X492848Y508000D01*
X492499Y510652D01*
X491475Y513124D01*
X489846Y515246D01*
X487724Y516875D01*
X485252Y517898D01*
X482600Y518248D01*
D02*
G37*
G36*
X633730Y465999D02*
X632679Y465861D01*
X630517Y464965D01*
X628660Y463540D01*
X627235Y461683D01*
X626339Y459521D01*
X626200Y458470D01*
X633730D01*
Y465999D01*
D02*
G37*
G36*
X643800Y455930D02*
X636270D01*
Y448400D01*
X637321Y448539D01*
X639483Y449435D01*
X641340Y450860D01*
X642765Y452717D01*
X643661Y454879D01*
X643800Y455930D01*
D02*
G37*
G36*
X633730D02*
X626200D01*
X626339Y454879D01*
X627235Y452717D01*
X628660Y450860D01*
X630517Y449435D01*
X632679Y448539D01*
X633730Y448400D01*
Y455930D01*
D02*
G37*
G36*
X213360Y518248D02*
X210708Y517898D01*
X208236Y516875D01*
X206114Y515246D01*
X204485Y513124D01*
X203461Y510652D01*
X203112Y508000D01*
X203461Y505348D01*
X204485Y502876D01*
X206114Y500754D01*
X208236Y499125D01*
X210708Y498102D01*
X213360Y497752D01*
X216012Y498102D01*
X218484Y499125D01*
X220606Y500754D01*
X222235Y502876D01*
X223258Y505348D01*
X223608Y508000D01*
X223258Y510652D01*
X222235Y513124D01*
X220606Y515246D01*
X218484Y516875D01*
X216012Y517898D01*
X213360Y518248D01*
D02*
G37*
G36*
X187960D02*
X185308Y517898D01*
X182836Y516875D01*
X180714Y515246D01*
X179085Y513124D01*
X178062Y510652D01*
X177712Y508000D01*
X178062Y505348D01*
X179085Y502876D01*
X180714Y500754D01*
X182836Y499125D01*
X185308Y498102D01*
X187960Y497752D01*
X190612Y498102D01*
X193084Y499125D01*
X195206Y500754D01*
X196835Y502876D01*
X197859Y505348D01*
X198208Y508000D01*
X197859Y510652D01*
X196835Y513124D01*
X195206Y515246D01*
X193084Y516875D01*
X190612Y517898D01*
X187960Y518248D01*
D02*
G37*
G36*
X636270Y465999D02*
Y458470D01*
X643800D01*
X643661Y459521D01*
X642765Y461683D01*
X641340Y463540D01*
X639483Y464965D01*
X637321Y465861D01*
X636270Y465999D01*
D02*
G37*
G36*
X24130Y516800D02*
X23079Y516661D01*
X20917Y515765D01*
X19060Y514340D01*
X17635Y512483D01*
X16739Y510321D01*
X16601Y509270D01*
X24130D01*
Y516800D01*
D02*
G37*
G36*
X34200Y506730D02*
X26670D01*
Y499201D01*
X27721Y499339D01*
X29883Y500235D01*
X31740Y501660D01*
X33165Y503517D01*
X34061Y505679D01*
X34200Y506730D01*
D02*
G37*
G36*
X24130D02*
X16601D01*
X16739Y505679D01*
X17635Y503517D01*
X19060Y501660D01*
X20917Y500235D01*
X23079Y499339D01*
X24130Y499201D01*
Y506730D01*
D02*
G37*
G36*
X265430Y518080D02*
Y509270D01*
X274240D01*
X274058Y510652D01*
X273035Y513124D01*
X271406Y515246D01*
X269284Y516875D01*
X266812Y517898D01*
X265430Y518080D01*
D02*
G37*
G36*
X262890D02*
X261508Y517898D01*
X259036Y516875D01*
X256914Y515246D01*
X255285Y513124D01*
X254261Y510652D01*
X254079Y509270D01*
X262890D01*
Y518080D01*
D02*
G37*
G36*
X26670Y516800D02*
Y509270D01*
X34200D01*
X34061Y510321D01*
X33165Y512483D01*
X31740Y514340D01*
X29883Y515765D01*
X27721Y516661D01*
X26670Y516800D01*
D02*
G37*
G36*
X609600Y518248D02*
X606948Y517898D01*
X604476Y516875D01*
X602354Y515246D01*
X600725Y513124D01*
X599701Y510652D01*
X599352Y508000D01*
X599701Y505348D01*
X600725Y502876D01*
X602354Y500754D01*
X604476Y499125D01*
X606948Y498102D01*
X609600Y497752D01*
X612252Y498102D01*
X614724Y499125D01*
X616846Y500754D01*
X618475Y502876D01*
X619498Y505348D01*
X619848Y508000D01*
X619498Y510652D01*
X618475Y513124D01*
X616846Y515246D01*
X614724Y516875D01*
X612252Y517898D01*
X609600Y518248D01*
D02*
G37*
G36*
X584200D02*
X581548Y517898D01*
X579076Y516875D01*
X576954Y515246D01*
X575325Y513124D01*
X574301Y510652D01*
X573952Y508000D01*
X574301Y505348D01*
X575325Y502876D01*
X576954Y500754D01*
X579076Y499125D01*
X581548Y498102D01*
X584200Y497752D01*
X586852Y498102D01*
X589324Y499125D01*
X591446Y500754D01*
X593075Y502876D01*
X594099Y505348D01*
X594448Y508000D01*
X594099Y510652D01*
X593075Y513124D01*
X591446Y515246D01*
X589324Y516875D01*
X586852Y517898D01*
X584200Y518248D01*
D02*
G37*
G36*
X558800D02*
X556148Y517898D01*
X553676Y516875D01*
X551554Y515246D01*
X549925Y513124D01*
X548901Y510652D01*
X548552Y508000D01*
X548901Y505348D01*
X549925Y502876D01*
X551554Y500754D01*
X553676Y499125D01*
X556148Y498102D01*
X558800Y497752D01*
X561452Y498102D01*
X563924Y499125D01*
X566046Y500754D01*
X567675Y502876D01*
X568699Y505348D01*
X569048Y508000D01*
X568699Y510652D01*
X567675Y513124D01*
X566046Y515246D01*
X563924Y516875D01*
X561452Y517898D01*
X558800Y518248D01*
D02*
G37*
G36*
X274240Y506730D02*
X265430D01*
Y497920D01*
X266812Y498102D01*
X269284Y499125D01*
X271406Y500754D01*
X273035Y502876D01*
X274058Y505348D01*
X274240Y506730D01*
D02*
G37*
G36*
X262890D02*
X254079D01*
X254261Y505348D01*
X255285Y502876D01*
X256914Y500754D01*
X259036Y499125D01*
X261508Y498102D01*
X262890Y497920D01*
Y506730D01*
D02*
G37*
G36*
X426720Y518160D02*
X406400D01*
Y497840D01*
X426720D01*
Y518160D01*
D02*
G37*
G36*
X26670Y326300D02*
Y318770D01*
X34200D01*
X34061Y319821D01*
X33165Y321983D01*
X31740Y323840D01*
X29883Y325265D01*
X27721Y326161D01*
X26670Y326300D01*
D02*
G37*
G36*
X24130D02*
X23079Y326161D01*
X20917Y325265D01*
X19060Y323840D01*
X17635Y321983D01*
X16739Y319821D01*
X16601Y318770D01*
X24130D01*
Y326300D01*
D02*
G37*
G36*
X107950Y319949D02*
X106899Y319811D01*
X104737Y318915D01*
X102880Y317490D01*
X102369Y316825D01*
X101709Y316847D01*
X100633Y317565D01*
X99365Y317818D01*
X97790D01*
Y311150D01*
Y304482D01*
X99365D01*
X100633Y304735D01*
X101709Y305453D01*
X102369Y305475D01*
X102880Y304810D01*
X104737Y303385D01*
X106899Y302489D01*
X107950Y302351D01*
Y311150D01*
Y319949D01*
D02*
G37*
G36*
X430530Y379730D02*
X423000D01*
X423139Y378679D01*
X424035Y376517D01*
X425460Y374660D01*
X427317Y373235D01*
X429479Y372339D01*
X430530Y372201D01*
Y379730D01*
D02*
G37*
G36*
X236220Y382179D02*
Y373380D01*
Y364580D01*
X237271Y364719D01*
X239433Y365615D01*
X241290Y367040D01*
X242099Y368094D01*
X243029Y367473D01*
X244297Y367220D01*
X246380D01*
Y373380D01*
Y379540D01*
X244297D01*
X243029Y379287D01*
X242099Y378666D01*
X241290Y379720D01*
X239433Y381145D01*
X237271Y382041D01*
X236220Y382179D01*
D02*
G37*
G36*
X300900Y372110D02*
X293370D01*
Y364580D01*
X294421Y364719D01*
X296583Y365615D01*
X298440Y367040D01*
X299865Y368897D01*
X300761Y371059D01*
X300900Y372110D01*
D02*
G37*
G36*
X24130Y316230D02*
X16601D01*
X16739Y315179D01*
X17635Y313017D01*
X19060Y311160D01*
X20917Y309735D01*
X23079Y308839D01*
X24130Y308701D01*
Y316230D01*
D02*
G37*
G36*
X344170Y313599D02*
Y306070D01*
X351699D01*
X351561Y307121D01*
X350665Y309283D01*
X349240Y311140D01*
X347383Y312565D01*
X345221Y313461D01*
X344170Y313599D01*
D02*
G37*
G36*
X341630D02*
X340579Y313461D01*
X338417Y312565D01*
X336560Y311140D01*
X335135Y309283D01*
X334239Y307121D01*
X334100Y306070D01*
X341630D01*
Y313599D01*
D02*
G37*
G36*
X110490Y319949D02*
Y312420D01*
X118020D01*
X117881Y313471D01*
X116985Y315633D01*
X115560Y317490D01*
X113703Y318915D01*
X111541Y319811D01*
X110490Y319949D01*
D02*
G37*
G36*
X95250Y317818D02*
X93675D01*
X92407Y317565D01*
X91331Y316847D01*
X90613Y315771D01*
X90360Y314503D01*
Y312420D01*
X95250D01*
Y317818D01*
D02*
G37*
G36*
X34200Y316230D02*
X26670D01*
Y308701D01*
X27721Y308839D01*
X29883Y309735D01*
X31740Y311160D01*
X33165Y313017D01*
X34061Y315179D01*
X34200Y316230D01*
D02*
G37*
G36*
X433070Y389799D02*
Y382270D01*
X440600D01*
X440461Y383321D01*
X439565Y385483D01*
X438140Y387340D01*
X436283Y388765D01*
X434121Y389661D01*
X433070Y389799D01*
D02*
G37*
G36*
X430530D02*
X429479Y389661D01*
X427317Y388765D01*
X425460Y387340D01*
X424035Y385483D01*
X423139Y383321D01*
X423000Y382270D01*
X430530D01*
Y389799D01*
D02*
G37*
G36*
X290830Y382179D02*
X289779Y382041D01*
X287617Y381145D01*
X285760Y379720D01*
X284335Y377863D01*
X284087Y377265D01*
X279511D01*
X279465Y377493D01*
X278747Y378569D01*
X277671Y379287D01*
X276403Y379540D01*
X274320D01*
Y373380D01*
Y367220D01*
X276403D01*
X277671Y367473D01*
X278747Y368191D01*
X279465Y369267D01*
X279511Y369495D01*
X284087D01*
X284335Y368897D01*
X285760Y367040D01*
X287617Y365615D01*
X289779Y364719D01*
X290830Y364580D01*
Y373380D01*
Y382179D01*
D02*
G37*
G36*
X69759Y429260D02*
X62230D01*
Y421730D01*
X63281Y421869D01*
X65443Y422765D01*
X67300Y424190D01*
X68725Y426047D01*
X69621Y428209D01*
X69759Y429260D01*
D02*
G37*
G36*
X636270Y389799D02*
Y382270D01*
X643800D01*
X643661Y383321D01*
X642765Y385483D01*
X641340Y387340D01*
X639483Y388765D01*
X637321Y389661D01*
X636270Y389799D01*
D02*
G37*
G36*
X633730D02*
X632679Y389661D01*
X630517Y388765D01*
X628660Y387340D01*
X627235Y385483D01*
X626339Y383321D01*
X626200Y382270D01*
X633730D01*
Y389799D01*
D02*
G37*
G36*
X643800Y379730D02*
X636270D01*
Y372201D01*
X637321Y372339D01*
X639483Y373235D01*
X641340Y374660D01*
X642765Y376517D01*
X643661Y378679D01*
X643800Y379730D01*
D02*
G37*
G36*
X633730D02*
X626200D01*
X626339Y378679D01*
X627235Y376517D01*
X628660Y374660D01*
X630517Y373235D01*
X632679Y372339D01*
X633730Y372201D01*
Y379730D01*
D02*
G37*
G36*
X440600D02*
X433070D01*
Y372201D01*
X434121Y372339D01*
X436283Y373235D01*
X438140Y374660D01*
X439565Y376517D01*
X440461Y378679D01*
X440600Y379730D01*
D02*
G37*
G36*
X293370Y382179D02*
Y374650D01*
X300900D01*
X300761Y375701D01*
X299865Y377863D01*
X298440Y379720D01*
X296583Y381145D01*
X294421Y382041D01*
X293370Y382179D01*
D02*
G37*
G36*
X251003Y379540D02*
X248920D01*
Y374650D01*
X254318D01*
Y376225D01*
X254065Y377493D01*
X253347Y378569D01*
X252271Y379287D01*
X251003Y379540D01*
D02*
G37*
G36*
X198120Y382179D02*
X197069Y382041D01*
X194907Y381145D01*
X193050Y379720D01*
X191625Y377863D01*
X190729Y375701D01*
X190590Y374650D01*
X198120D01*
Y382179D01*
D02*
G37*
%LPD*%
D10*
X596900Y125730D02*
D03*
Y140970D02*
D03*
X584200Y125730D02*
D03*
Y140970D02*
D03*
X571500Y125730D02*
D03*
Y140970D02*
D03*
X558800Y125730D02*
D03*
Y140970D02*
D03*
X546100Y125730D02*
D03*
Y140970D02*
D03*
X431800Y138430D02*
D03*
Y153670D02*
D03*
X444500Y138430D02*
D03*
Y153670D02*
D03*
X457200Y138430D02*
D03*
Y153670D02*
D03*
X419100D02*
D03*
Y138430D02*
D03*
X273050Y373380D02*
D03*
Y388620D02*
D03*
X247650Y405130D02*
D03*
Y420370D02*
D03*
Y388620D02*
D03*
Y373380D02*
D03*
X215900Y420370D02*
D03*
Y405130D02*
D03*
Y388620D02*
D03*
Y373380D02*
D03*
X495300Y240030D02*
D03*
Y255270D02*
D03*
X622300Y220980D02*
D03*
Y236220D02*
D03*
X609600Y220980D02*
D03*
Y236220D02*
D03*
X596900Y220980D02*
D03*
Y236220D02*
D03*
X584200Y220980D02*
D03*
Y236220D02*
D03*
X609600Y252730D02*
D03*
Y267970D02*
D03*
X596900D02*
D03*
Y252730D02*
D03*
X584200Y267970D02*
D03*
Y252730D02*
D03*
X622300D02*
D03*
Y267970D02*
D03*
X504190Y299720D02*
D03*
Y284480D02*
D03*
X546100Y166370D02*
D03*
Y151130D02*
D03*
X273050Y405130D02*
D03*
Y420370D02*
D03*
D11*
X458470Y127000D02*
D03*
X443230D02*
D03*
X496570Y228600D02*
D03*
X481330D02*
D03*
X483870Y241300D02*
D03*
X468630D02*
D03*
Y254000D02*
D03*
X483870D02*
D03*
X468630Y266700D02*
D03*
X483870D02*
D03*
X468630Y279400D02*
D03*
X483870D02*
D03*
X582930Y203200D02*
D03*
X598170D02*
D03*
X96520Y311150D02*
D03*
X81280D02*
D03*
D12*
X529590Y127000D02*
D03*
Y139700D02*
D03*
Y152400D02*
D03*
Y165100D02*
D03*
X473710Y127000D02*
D03*
Y139700D02*
D03*
Y152400D02*
D03*
Y165100D02*
D03*
X567690Y228600D02*
D03*
Y241300D02*
D03*
Y254000D02*
D03*
Y266700D02*
D03*
X511810Y228600D02*
D03*
Y241300D02*
D03*
Y254000D02*
D03*
Y266700D02*
D03*
D13*
X168350Y395200D02*
D03*
Y375200D02*
D03*
Y464200D02*
D03*
Y413200D02*
D03*
X96350Y464200D02*
D03*
D14*
X112350Y466200D02*
D03*
D15*
X44350Y452200D02*
D03*
Y441200D02*
D03*
Y430200D02*
D03*
Y419200D02*
D03*
Y408200D02*
D03*
Y397200D02*
D03*
Y386200D02*
D03*
Y375200D02*
D03*
D16*
X16350Y338200D02*
D03*
Y465200D02*
D03*
D17*
X153350Y456200D02*
D03*
D18*
X584200Y236220D02*
X596900D01*
X154940Y223520D02*
Y226060D01*
X81280Y299720D02*
X154940Y226060D01*
X353060Y25400D02*
X355600D01*
X232410Y146050D02*
X353060Y25400D01*
X455930Y138430D02*
X457200Y139700D01*
X471170D01*
X452120D02*
X457200D01*
X451866Y138430D02*
X455930D01*
X444500D02*
X451866D01*
Y139446D01*
Y137414D02*
Y138430D01*
Y139446D02*
X452120Y139700D01*
X451866Y137414D02*
X452120Y137160D01*
Y134257D02*
Y137160D01*
X451104Y133242D02*
X452120Y134257D01*
X451104Y121775D02*
Y133242D01*
Y121775D02*
X452120Y120758D01*
Y101600D02*
Y120758D01*
X443230Y92710D02*
X452120Y101600D01*
X429260Y92710D02*
X443230D01*
X368300Y31750D02*
X429260Y92710D01*
X458470Y100766D02*
Y127000D01*
X445334Y87630D02*
X458470Y100766D01*
X431364Y87630D02*
X445334D01*
X381000Y37266D02*
X431364Y87630D01*
X381000Y25400D02*
Y37266D01*
X368300Y16510D02*
Y31750D01*
Y16510D02*
X373380Y11430D01*
X421640Y107950D02*
Y121920D01*
X419100Y124460D02*
X421640Y121920D01*
X402590Y109220D02*
X403860Y110490D01*
Y161290D01*
X408940Y166370D01*
X449580D01*
X496570Y141605D02*
Y228600D01*
X481965Y127000D02*
X496570Y141605D01*
X488696Y218941D02*
Y233825D01*
X471290Y201535D02*
X488696Y218941D01*
X481330Y226060D02*
Y228600D01*
X466090Y210820D02*
X481330Y226060D01*
X471290Y188080D02*
Y201535D01*
X466090Y205740D02*
Y210820D01*
X81280Y299720D02*
Y311150D01*
X96520D02*
X109220D01*
X273050Y373380D02*
X292100D01*
X234950D02*
X247650D01*
X223902Y400432D02*
X243840Y420370D01*
X223902Y368790D02*
Y400432D01*
X218332Y363220D02*
X223902Y368790D01*
X134620Y363220D02*
X218332D01*
X100640Y397200D02*
X134620Y363220D01*
X199390Y373380D02*
X215900D01*
X60630Y430200D02*
X60960Y430530D01*
X44350Y430200D02*
X60630D01*
X81280Y311150D02*
Y319150D01*
X33040Y367390D02*
X81280Y319150D01*
X33040Y367390D02*
Y402778D01*
X38462Y408200D01*
X44350D01*
Y386200D02*
X102750D01*
X133350Y355600D01*
X247650D01*
X261620Y369570D01*
Y410210D01*
X271780Y420370D01*
X273050D01*
X243840D02*
X247650D01*
Y407561D02*
X267824Y427736D01*
X247650Y405130D02*
Y407561D01*
Y388620D02*
Y405130D01*
X340360Y499110D02*
Y508000D01*
X267824Y427736D02*
X268986D01*
X340360Y499110D01*
X244856Y432816D02*
X314960Y502920D01*
X240320Y432816D02*
X244856D01*
X234696Y427192D02*
X240320Y432816D01*
X234696Y422656D02*
Y427192D01*
X217170Y405130D02*
X234696Y422656D01*
X44350Y397200D02*
X100640D01*
X257570Y476010D02*
X289560Y508000D01*
X46750Y476010D02*
X257570D01*
X30480Y459740D02*
X46750Y476010D01*
X30480Y427182D02*
Y459740D01*
Y427182D02*
X35272Y422390D01*
X41160D01*
X44350Y419200D01*
Y441200D02*
X120140D01*
X130810Y430530D01*
X198120D01*
X208280Y420370D02*
X215900D01*
X198120Y430530D02*
X208280Y420370D01*
X215900Y388620D02*
Y405130D01*
X217170D01*
X314960Y502920D02*
Y508000D01*
X273050Y388620D02*
Y405130D01*
X282049D01*
X365760Y488841D01*
Y508000D01*
X483870Y236474D02*
X486048D01*
X419100Y124460D02*
Y138430D01*
X449580Y166370D02*
X471290Y188080D01*
X486048Y236474D02*
X488696Y233825D01*
X483870Y236474D02*
Y241300D01*
X473710Y177800D02*
X482600Y186690D01*
X473710Y165100D02*
Y177800D01*
X482600Y186690D02*
Y196850D01*
X473710Y127000D02*
X481965D01*
X482600Y110490D02*
X508000Y135890D01*
X482600Y76200D02*
Y110490D01*
X533400Y215900D02*
Y267970D01*
X514350Y196850D02*
X533400Y215900D01*
X508000Y196850D02*
X514350D01*
X535940Y203200D02*
X582930D01*
X529590Y196850D02*
X535940Y203200D01*
X508000Y135890D02*
Y147320D01*
X568960Y106680D02*
X640080D01*
X660400Y127000D01*
X558800Y82550D02*
Y125730D01*
Y82550D02*
X565150Y76200D01*
X373380Y11430D02*
X570230D01*
X584200Y25400D01*
X596900Y125730D02*
X612140D01*
X584200D02*
X596900D01*
X529590Y165100D02*
Y177800D01*
Y165100D02*
X530860D01*
X532130Y166370D01*
X546100D01*
X595994Y76200D02*
X609600D01*
X529590Y127000D02*
X541020D01*
X542290Y125730D01*
X546100D01*
X547370Y127000D01*
X553720D01*
X554990Y125730D01*
X558800D01*
X571500D01*
X584200Y140970D02*
X596900D01*
X571500D02*
X584200D01*
X558800D02*
X571500D01*
X546100D02*
X558800D01*
X544830Y139700D02*
X546100Y140970D01*
X529590Y139700D02*
X544830D01*
X471170D02*
X473710D01*
X469900Y138430D02*
X471170Y139700D01*
X457200Y138430D02*
X469900D01*
X443230D02*
X444500Y137160D01*
X457200Y138430D02*
Y139700D01*
X444500Y137160D02*
Y138430D01*
X431800D02*
X443230D01*
X472440Y151130D02*
X473710Y152400D01*
X468630Y151130D02*
X472440D01*
X466090Y153670D02*
X468630Y151130D01*
X457200Y153670D02*
X466090D01*
X444500D02*
X457200D01*
X431800D02*
X444500D01*
X419100D02*
X431800D01*
X458470Y127000D02*
X473710D01*
X533400Y267970D02*
X535940D01*
X513080D02*
X533400D01*
X544830Y152400D02*
X546100Y151130D01*
X529590Y152400D02*
X544830D01*
X520700D02*
X529590D01*
X508000Y165100D02*
X520700Y152400D01*
X508000Y165100D02*
Y196850D01*
X511810Y266700D02*
X513080Y267970D01*
X535940D02*
X547370Y279400D01*
X585470D01*
X596900Y267970D01*
X496570Y228600D02*
X511810D01*
X457200Y196850D02*
X466090Y205740D01*
X509270Y238760D02*
X511810Y241300D01*
X500380Y238760D02*
X509270D01*
X499110Y240030D02*
X500380Y238760D01*
X495300Y240030D02*
X499110D01*
X488950D02*
X495300D01*
X487680Y241300D02*
X488950Y240030D01*
X483870Y241300D02*
X487680D01*
X468630D02*
Y254000D01*
Y279400D02*
Y293370D01*
Y266700D02*
Y279400D01*
X483870Y266700D02*
Y279400D01*
Y254000D02*
Y266700D01*
Y254000D02*
X485140Y255270D01*
X495300D01*
X496570Y254000D01*
X511810D01*
X551180Y266700D02*
X567690D01*
X504190Y299720D02*
X519430D01*
X511810Y266700D02*
Y275590D01*
X504190Y283210D02*
X511810Y275590D01*
X504190Y283210D02*
Y284480D01*
X584200Y267970D02*
X591820Y260350D01*
X601980D01*
X609600Y252730D01*
X659130Y220980D02*
X660400Y222250D01*
X622300Y220980D02*
X659130D01*
X609600D02*
X622300D01*
X596900Y204470D02*
X598170Y203200D01*
X596900Y204470D02*
Y220980D01*
X582930Y219710D02*
X584200Y220980D01*
X582930Y203200D02*
Y219710D01*
X581660Y220980D02*
X584200D01*
X574040Y228600D02*
X581660Y220980D01*
X567690Y228600D02*
X574040D01*
X567690Y241300D02*
X576580D01*
X581660Y236220D01*
X584200D01*
X596900D02*
X609600D01*
X622300D01*
X656590Y222250D02*
X660400D01*
X635322Y243518D02*
X656590Y222250D01*
X626432Y243518D02*
X635322D01*
X622300Y247650D02*
X626432Y243518D01*
X622300Y247650D02*
Y252730D01*
X640080Y298450D02*
X660400D01*
X622300Y280670D02*
X640080Y298450D01*
X622300Y267970D02*
Y280670D01*
X596900Y267970D02*
X609600D01*
X622300D01*
X660400Y294640D02*
Y298450D01*
X609600Y252730D02*
X622300D01*
X582930Y266700D02*
X584200Y267970D01*
X567690Y266700D02*
X582930D01*
X584200Y252730D02*
X596900D01*
X582930D02*
X584200D01*
X581660Y254000D02*
X582930Y252730D01*
X567690Y254000D02*
X581660D01*
D19*
X523236Y74930D02*
D03*
X482600Y76200D02*
D03*
X660400Y298450D02*
D03*
Y222250D02*
D03*
Y127000D02*
D03*
X565150Y76200D02*
D03*
X609600D02*
D03*
D20*
X508000Y196850D02*
D03*
D21*
X482600D02*
D03*
X457200D02*
D03*
D22*
X406400Y25400D02*
D03*
X431800D02*
D03*
X279400D02*
D03*
X304800D02*
D03*
X330200D02*
D03*
X355600D02*
D03*
X381000D02*
D03*
X584200Y508000D02*
D03*
X609600D02*
D03*
X457200D02*
D03*
X482600D02*
D03*
X508000D02*
D03*
X533400D02*
D03*
X558800D02*
D03*
X187960D02*
D03*
X213360D02*
D03*
X238760D02*
D03*
X264160D02*
D03*
X289560D02*
D03*
X314960D02*
D03*
X340360D02*
D03*
X365760D02*
D03*
X391160D02*
D03*
X635000Y25400D02*
D03*
X609600D02*
D03*
X584200D02*
D03*
X558800D02*
D03*
X533400D02*
D03*
D23*
X457200D02*
D03*
X635000Y508000D02*
D03*
X416560D02*
D03*
X508000Y25400D02*
D03*
D24*
X152400Y508000D02*
D03*
X139700Y25400D02*
D03*
X660400Y355600D02*
D03*
Y76200D02*
D03*
D25*
X232410Y146050D02*
D03*
X154940Y223520D02*
D03*
X342900Y304800D02*
D03*
X431800Y381000D02*
D03*
X635000Y177800D02*
D03*
Y381000D02*
D03*
Y457200D02*
D03*
X25400Y508000D02*
D03*
Y317500D02*
D03*
X254000Y25400D02*
D03*
X25400D02*
D03*
X421640Y107950D02*
D03*
X402590Y109220D02*
D03*
X109220Y311150D02*
D03*
X292100Y373380D02*
D03*
X234950D02*
D03*
X199390D02*
D03*
X60960Y430530D02*
D03*
X529590Y196850D02*
D03*
X508000Y147320D02*
D03*
X568960Y106680D02*
D03*
X612140Y125730D02*
D03*
X529590Y177800D02*
D03*
X468630Y293370D02*
D03*
X551180Y266700D02*
D03*
X519430Y299720D02*
D03*
M02*
