M48
;Layer_Color=9474304
;FILE_FORMAT=4:4
METRIC,LZ
;TYPE=PLATED
T1F00S00C0.7112
T2F00S00C0.7620
T3F00S00C0.9000
T4F00S00C1.6000
T5F00S00C3.2000
%
T01
X000254Y000254
X00254
X00508Y0014732
X0052959Y001778
Y0019685
X0055118Y002667
X0051943Y0029972
X00635Y00381
Y004572
Y001778
X0061214Y0012573
X0056896Y0010668
X0042164Y0010795
X0040259Y0010922
X0023241Y0014605
X0015494Y0022352
X0010922Y0031115
X0019939Y0037338
X0023495
X002921
X003429Y003048
X0046863Y0029337
X004318Y00381
X0006096Y0043053
X000254Y003175
Y00508
T02
X002794Y000254
X003048
X003302
X003556
X00381
X004064
X004318
X004572
X00508
X005334
X005588
X005842
X006096
X00635
X004826Y00508
X004572
X0041656
X0039116
X0036576
X0034036
X0031496
X0028956
X0026416
X0023876
X0021336
X0018796
X00508
X005334
X005588
X005842
X006096
X00635
T03
X00508Y0019685
X004826
X004572
T04
X004826Y000762
X00523236Y0007493
X0056515Y000762
X006096
X006604Y00127
Y0022225
Y0029845
T05
X001397Y000254
X006604Y000762
Y003556
X001524Y00508
M30
