%FSLAX44Y44*%
%MOMM*%
G71*
G01*
G75*
G04 Layer_Color=65535*
G04:AMPARAMS|DCode=10|XSize=0.7112mm|YSize=0.8128mm|CornerRadius=0.0711mm|HoleSize=0mm|Usage=FLASHONLY|Rotation=270.000|XOffset=0mm|YOffset=0mm|HoleType=Round|Shape=RoundedRectangle|*
%AMROUNDEDRECTD10*
21,1,0.7112,0.6706,0,0,270.0*
21,1,0.5690,0.8128,0,0,270.0*
1,1,0.1422,-0.3353,-0.2845*
1,1,0.1422,-0.3353,0.2845*
1,1,0.1422,0.3353,0.2845*
1,1,0.1422,0.3353,-0.2845*
%
%ADD10ROUNDEDRECTD10*%
G04:AMPARAMS|DCode=11|XSize=0.7112mm|YSize=0.8128mm|CornerRadius=0.0711mm|HoleSize=0mm|Usage=FLASHONLY|Rotation=180.000|XOffset=0mm|YOffset=0mm|HoleType=Round|Shape=RoundedRectangle|*
%AMROUNDEDRECTD11*
21,1,0.7112,0.6706,0,0,180.0*
21,1,0.5690,0.8128,0,0,180.0*
1,1,0.1422,-0.2845,0.3353*
1,1,0.1422,0.2845,0.3353*
1,1,0.1422,0.2845,-0.3353*
1,1,0.1422,-0.2845,-0.3353*
%
%ADD11ROUNDEDRECTD11*%
G04:AMPARAMS|DCode=12|XSize=0.75mm|YSize=1.5mm|CornerRadius=0.075mm|HoleSize=0mm|Usage=FLASHONLY|Rotation=90.000|XOffset=0mm|YOffset=0mm|HoleType=Round|Shape=RoundedRectangle|*
%AMROUNDEDRECTD12*
21,1,0.7500,1.3500,0,0,90.0*
21,1,0.6000,1.5000,0,0,90.0*
1,1,0.1500,0.6750,0.3000*
1,1,0.1500,0.6750,-0.3000*
1,1,0.1500,-0.6750,-0.3000*
1,1,0.1500,-0.6750,0.3000*
%
%ADD12ROUNDEDRECTD12*%
%ADD13R,1.2000X1.5000*%
%ADD14R,1.5000X1.2000*%
%ADD15R,1.5000X0.8000*%
%ADD16R,1.7000X1.4000*%
%ADD17R,1.2000X3.0000*%
%ADD18C,0.2540*%
%ADD19C,3.6000*%
%ADD20R,1.5000X1.5000*%
%ADD21C,1.5000*%
%ADD22C,1.5240*%
%ADD23R,1.5240X1.5240*%
%ADD24C,3.2000*%
%ADD25C,1.2700*%
%ADD26C,0.2032*%
%ADD27C,0.1524*%
%ADD28C,0.2000*%
%ADD29C,0.0127*%
%ADD30C,0.1270*%
G36*
X59339Y217705D02*
X58037D01*
Y227224D01*
X49596D01*
Y218225D01*
X48295D01*
Y227224D01*
X39370D01*
Y228637D01*
X59339D01*
Y217705D01*
D02*
G37*
G36*
X59413Y132029D02*
Y131137D01*
X39370Y123253D01*
Y124852D01*
X46435Y127604D01*
Y135710D01*
X39370Y138499D01*
Y140024D01*
X59413Y132029D01*
D02*
G37*
G36*
X655191Y106048D02*
X655278Y106038D01*
X655386Y106028D01*
X655493Y106009D01*
X655620Y105979D01*
X655893Y105901D01*
X656030Y105853D01*
X656176Y105784D01*
X656312Y105716D01*
X656459Y105628D01*
X656585Y105531D01*
X656712Y105414D01*
X656722Y105404D01*
X656742Y105384D01*
X656771Y105345D01*
X656820Y105297D01*
X656868Y105238D01*
X656917Y105160D01*
X656976Y105063D01*
X657044Y104965D01*
X657103Y104848D01*
X657161Y104711D01*
X657210Y104575D01*
X657268Y104419D01*
X657307Y104253D01*
X657337Y104077D01*
X657356Y103882D01*
X657366Y103687D01*
Y103668D01*
Y103629D01*
Y103551D01*
Y103443D01*
X654430D01*
Y103424D01*
Y103375D01*
X654440Y103297D01*
X654449Y103209D01*
X654489Y103005D01*
X654518Y102907D01*
X654566Y102829D01*
X654576Y102819D01*
X654596Y102800D01*
X654635Y102770D01*
X654693Y102731D01*
X654762Y102692D01*
X654859Y102663D01*
X654966Y102644D01*
X655103Y102634D01*
X655152D01*
X655191Y102644D01*
X655288Y102663D01*
X655396Y102702D01*
X655513Y102761D01*
X655630Y102858D01*
X655678Y102927D01*
X655717Y102995D01*
X655747Y103073D01*
X655776Y103170D01*
X657366Y103053D01*
Y103043D01*
X657356Y103024D01*
X657346Y102995D01*
X657337Y102946D01*
X657317Y102887D01*
X657288Y102829D01*
X657219Y102673D01*
X657122Y102507D01*
X656995Y102322D01*
X656829Y102136D01*
X656742Y102049D01*
X656634Y101961D01*
X656625D01*
X656605Y101941D01*
X656576Y101922D01*
X656527Y101893D01*
X656469Y101854D01*
X656400Y101815D01*
X656312Y101776D01*
X656215Y101737D01*
X656108Y101698D01*
X655991Y101658D01*
X655864Y101620D01*
X655717Y101580D01*
X655571Y101551D01*
X655405Y101532D01*
X655239Y101522D01*
X655054Y101512D01*
X654947D01*
X654869Y101522D01*
X654781Y101532D01*
X654674Y101542D01*
X654547Y101561D01*
X654420Y101590D01*
X654137Y101668D01*
X653991Y101717D01*
X653845Y101776D01*
X653699Y101854D01*
X653552Y101941D01*
X653416Y102039D01*
X653289Y102146D01*
X653279Y102156D01*
X653260Y102176D01*
X653230Y102214D01*
X653191Y102263D01*
X653133Y102322D01*
X653084Y102400D01*
X653026Y102488D01*
X652967Y102585D01*
X652899Y102692D01*
X652840Y102809D01*
X652791Y102936D01*
X652743Y103083D01*
X652694Y103229D01*
X652665Y103385D01*
X652645Y103551D01*
X652635Y103726D01*
Y103736D01*
Y103765D01*
Y103824D01*
X652645Y103892D01*
X652655Y103970D01*
X652674Y104068D01*
X652694Y104175D01*
X652713Y104302D01*
X652791Y104555D01*
X652840Y104692D01*
X652908Y104838D01*
X652977Y104975D01*
X653064Y105111D01*
X653162Y105248D01*
X653279Y105375D01*
X653289Y105384D01*
X653308Y105404D01*
X653347Y105433D01*
X653396Y105482D01*
X653464Y105531D01*
X653542Y105589D01*
X653640Y105658D01*
X653737Y105716D01*
X653864Y105784D01*
X653991Y105843D01*
X654137Y105901D01*
X654284Y105950D01*
X654449Y105999D01*
X654635Y106028D01*
X654820Y106048D01*
X655015Y106057D01*
X655113D01*
X655191Y106048D01*
D02*
G37*
G36*
X59339Y213428D02*
X46138D01*
X45915Y213391D01*
X45692D01*
X45394Y213354D01*
X44762Y213242D01*
X44055Y213019D01*
X43312Y212759D01*
X42605Y212350D01*
X42233Y212127D01*
X41936Y211829D01*
Y211792D01*
X41861Y211755D01*
X41676Y211532D01*
X41415Y211160D01*
X41155Y210676D01*
X40857Y210007D01*
X40597Y209226D01*
X40411Y208334D01*
X40374Y207813D01*
X40337Y207293D01*
Y207255D01*
Y207181D01*
Y207032D01*
X40374Y206809D01*
Y206586D01*
X40411Y206326D01*
X40523Y205694D01*
X40709Y204987D01*
X41006Y204243D01*
X41378Y203537D01*
X41899Y202905D01*
X41936Y202868D01*
X41973Y202830D01*
X42196Y202645D01*
X42531Y202384D01*
X43051Y202087D01*
X43646Y201826D01*
X44427Y201566D01*
X45283Y201380D01*
X45766Y201306D01*
X59339D01*
Y199930D01*
X46063D01*
X45840Y199967D01*
X45543Y200004D01*
X45208Y200042D01*
X44464Y200190D01*
X43572Y200413D01*
X42680Y200785D01*
X42270Y201008D01*
X41824Y201269D01*
X41415Y201566D01*
X41043Y201938D01*
X41006Y201975D01*
X40969Y202012D01*
X40857Y202124D01*
X40746Y202310D01*
X40597Y202496D01*
X40448Y202756D01*
X40262Y203053D01*
X40076Y203351D01*
X39891Y203723D01*
X39705Y204169D01*
X39556Y204615D01*
X39407Y205099D01*
X39296Y205657D01*
X39184Y206214D01*
X39147Y206809D01*
X39110Y207479D01*
Y207516D01*
Y207627D01*
Y207813D01*
X39147Y208036D01*
X39184Y208334D01*
X39221Y208668D01*
X39258Y209040D01*
X39370Y209449D01*
X39593Y210305D01*
X39928Y211234D01*
X40151Y211681D01*
X40411Y212090D01*
X40709Y212536D01*
X41043Y212908D01*
X41080Y212945D01*
X41118Y212982D01*
X41229Y213094D01*
X41415Y213205D01*
X41601Y213354D01*
X41824Y213503D01*
X42122Y213689D01*
X42456Y213874D01*
X42828Y214060D01*
X43237Y214246D01*
X43684Y214395D01*
X44167Y214544D01*
X44688Y214655D01*
X45245Y214767D01*
X45840Y214804D01*
X46472Y214841D01*
X59339D01*
Y213428D01*
D02*
G37*
G36*
X49819Y158468D02*
X50079D01*
X50377Y158431D01*
X50749Y158394D01*
X51121Y158356D01*
X51939Y158208D01*
X52868Y157985D01*
X53798Y157687D01*
X54690Y157278D01*
X54728D01*
X54802Y157204D01*
X54914Y157129D01*
X55100Y157055D01*
X55509Y156757D01*
X56029Y156348D01*
X56624Y155865D01*
X57219Y155233D01*
X57814Y154526D01*
X58335Y153708D01*
Y153671D01*
X58409Y153597D01*
X58446Y153485D01*
X58558Y153299D01*
X58632Y153076D01*
X58744Y152816D01*
X58855Y152481D01*
X59004Y152146D01*
X59227Y151365D01*
X59450Y150436D01*
X59599Y149432D01*
X59636Y148316D01*
Y148279D01*
Y148167D01*
Y147982D01*
Y147759D01*
X59599Y147498D01*
X59562Y147163D01*
X59525Y146792D01*
X59487Y146383D01*
X59339Y145453D01*
X59153Y144486D01*
X58855Y143482D01*
X58446Y142478D01*
X57182Y143036D01*
Y143073D01*
X57219Y143147D01*
X57294Y143296D01*
X57368Y143482D01*
X57479Y143705D01*
X57554Y144003D01*
X57665Y144337D01*
X57814Y144672D01*
X58037Y145490D01*
X58223Y146420D01*
X58372Y147387D01*
X58409Y148428D01*
Y148465D01*
Y148614D01*
Y148800D01*
X58372Y149060D01*
X58335Y149395D01*
X58298Y149804D01*
X58223Y150213D01*
X58112Y150696D01*
X57814Y151700D01*
X57628Y152221D01*
X57368Y152741D01*
X57108Y153225D01*
X56773Y153745D01*
X56401Y154229D01*
X55955Y154675D01*
X55918Y154712D01*
X55843Y154787D01*
X55694Y154898D01*
X55509Y155047D01*
X55248Y155196D01*
X54951Y155419D01*
X54616Y155605D01*
X54207Y155828D01*
X53761Y156051D01*
X53277Y156237D01*
X52720Y156460D01*
X52162Y156609D01*
X51530Y156757D01*
X50860Y156869D01*
X50117Y156943D01*
X49373Y156980D01*
X48927D01*
X48629Y156943D01*
X48257Y156906D01*
X47848Y156869D01*
X47365Y156795D01*
X46844Y156720D01*
X45729Y156460D01*
X45171Y156274D01*
X44613Y156051D01*
X44055Y155791D01*
X43535Y155493D01*
X43051Y155158D01*
X42605Y154787D01*
X42568Y154749D01*
X42494Y154675D01*
X42382Y154564D01*
X42270Y154377D01*
X42084Y154154D01*
X41899Y153857D01*
X41676Y153522D01*
X41490Y153150D01*
X41266Y152704D01*
X41043Y152258D01*
X40857Y151700D01*
X40709Y151142D01*
X40560Y150510D01*
X40448Y149804D01*
X40374Y149097D01*
X40337Y148316D01*
Y148279D01*
Y148205D01*
Y148056D01*
Y147870D01*
X40374Y147610D01*
Y147350D01*
X40448Y146680D01*
X40523Y145974D01*
X40634Y145193D01*
X40820Y144375D01*
X41080Y143631D01*
X48109D01*
Y149581D01*
X49447D01*
Y142218D01*
X40337D01*
Y142255D01*
X40300Y142367D01*
X40225Y142515D01*
X40151Y142738D01*
X40039Y142999D01*
X39965Y143333D01*
X39853Y143705D01*
X39742Y144114D01*
X39593Y144598D01*
X39482Y145081D01*
X39296Y146197D01*
X39147Y147424D01*
X39110Y148725D01*
Y148763D01*
Y148948D01*
Y149172D01*
X39147Y149506D01*
X39184Y149915D01*
X39258Y150361D01*
X39333Y150882D01*
X39444Y151403D01*
X39593Y151998D01*
X39742Y152593D01*
X39965Y153188D01*
X40225Y153820D01*
X40523Y154415D01*
X40895Y154972D01*
X41304Y155530D01*
X41750Y156014D01*
X41787Y156051D01*
X41861Y156125D01*
X42047Y156237D01*
X42233Y156386D01*
X42531Y156609D01*
X42865Y156795D01*
X43237Y157018D01*
X43684Y157241D01*
X44204Y157501D01*
X44762Y157724D01*
X45394Y157910D01*
X46063Y158096D01*
X46807Y158282D01*
X47588Y158394D01*
X48406Y158468D01*
X49299Y158505D01*
X49596D01*
X49819Y158468D01*
D02*
G37*
G36*
X59339Y177656D02*
X40709D01*
Y168136D01*
X39370D01*
Y179032D01*
X59339D01*
Y177656D01*
D02*
G37*
G36*
Y183568D02*
X58037D01*
Y193088D01*
X50489D01*
Y184089D01*
X49187D01*
Y193088D01*
X40672D01*
Y183568D01*
X39370D01*
Y194464D01*
X59339D01*
Y183568D01*
D02*
G37*
G36*
X670933Y106048D02*
X671021Y106038D01*
X671128Y106028D01*
X671235Y106009D01*
X671362Y105979D01*
X671635Y105901D01*
X671772Y105853D01*
X671918Y105784D01*
X672055Y105716D01*
X672201Y105628D01*
X672328Y105531D01*
X672455Y105414D01*
X672464Y105404D01*
X672484Y105384D01*
X672513Y105345D01*
X672562Y105297D01*
X672611Y105238D01*
X672660Y105160D01*
X672718Y105063D01*
X672786Y104965D01*
X672845Y104848D01*
X672903Y104711D01*
X672952Y104575D01*
X673011Y104419D01*
X673050Y104253D01*
X673079Y104077D01*
X673098Y103882D01*
X673108Y103687D01*
Y103668D01*
Y103629D01*
Y103551D01*
Y103443D01*
X670172D01*
Y103424D01*
Y103375D01*
X670182Y103297D01*
X670192Y103209D01*
X670231Y103005D01*
X670260Y102907D01*
X670309Y102829D01*
X670319Y102819D01*
X670338Y102800D01*
X670377Y102770D01*
X670436Y102731D01*
X670504Y102692D01*
X670602Y102663D01*
X670709Y102644D01*
X670845Y102634D01*
X670894D01*
X670933Y102644D01*
X671031Y102663D01*
X671138Y102702D01*
X671255Y102761D01*
X671372Y102858D01*
X671421Y102927D01*
X671460Y102995D01*
X671489Y103073D01*
X671518Y103170D01*
X673108Y103053D01*
Y103043D01*
X673098Y103024D01*
X673089Y102995D01*
X673079Y102946D01*
X673059Y102887D01*
X673030Y102829D01*
X672962Y102673D01*
X672864Y102507D01*
X672738Y102322D01*
X672572Y102136D01*
X672484Y102049D01*
X672377Y101961D01*
X672367D01*
X672347Y101941D01*
X672318Y101922D01*
X672269Y101893D01*
X672211Y101854D01*
X672142Y101815D01*
X672055Y101776D01*
X671957Y101737D01*
X671850Y101698D01*
X671733Y101658D01*
X671606Y101620D01*
X671460Y101580D01*
X671313Y101551D01*
X671148Y101532D01*
X670982Y101522D01*
X670797Y101512D01*
X670689D01*
X670611Y101522D01*
X670523Y101532D01*
X670416Y101542D01*
X670289Y101561D01*
X670163Y101590D01*
X669880Y101668D01*
X669733Y101717D01*
X669587Y101776D01*
X669441Y101854D01*
X669295Y101941D01*
X669158Y102039D01*
X669031Y102146D01*
X669021Y102156D01*
X669002Y102176D01*
X668973Y102214D01*
X668934Y102263D01*
X668875Y102322D01*
X668826Y102400D01*
X668768Y102488D01*
X668709Y102585D01*
X668641Y102692D01*
X668583Y102809D01*
X668534Y102936D01*
X668485Y103083D01*
X668436Y103229D01*
X668407Y103385D01*
X668387Y103551D01*
X668378Y103726D01*
Y103736D01*
Y103765D01*
Y103824D01*
X668387Y103892D01*
X668397Y103970D01*
X668417Y104068D01*
X668436Y104175D01*
X668456Y104302D01*
X668534Y104555D01*
X668583Y104692D01*
X668651Y104838D01*
X668719Y104975D01*
X668807Y105111D01*
X668904Y105248D01*
X669021Y105375D01*
X669031Y105384D01*
X669051Y105404D01*
X669090Y105433D01*
X669138Y105482D01*
X669207Y105531D01*
X669285Y105589D01*
X669382Y105658D01*
X669480Y105716D01*
X669607Y105784D01*
X669733Y105843D01*
X669880Y105901D01*
X670026Y105950D01*
X670192Y105999D01*
X670377Y106028D01*
X670562Y106048D01*
X670758Y106057D01*
X670855D01*
X670933Y106048D01*
D02*
G37*
G36*
X650714D02*
X650831Y106038D01*
X650958Y106009D01*
X651085Y105979D01*
X651221Y105931D01*
X651348Y105872D01*
X651367Y105862D01*
X651406Y105843D01*
X651465Y105794D01*
X651533Y105745D01*
X651611Y105677D01*
X651689Y105589D01*
X651758Y105501D01*
X651816Y105394D01*
X651826Y105384D01*
X651835Y105336D01*
X651865Y105267D01*
X651894Y105160D01*
X651914Y105023D01*
X651943Y104848D01*
X651953Y104750D01*
Y104643D01*
X651962Y104516D01*
Y104389D01*
Y101600D01*
X650246D01*
Y104341D01*
Y104360D01*
Y104399D01*
X650236Y104458D01*
Y104526D01*
X650197Y104672D01*
X650177Y104731D01*
X650138Y104780D01*
X650119Y104799D01*
X650070Y104828D01*
X649982Y104858D01*
X649875Y104877D01*
X649855D01*
X649807Y104867D01*
X649729Y104838D01*
X649651Y104799D01*
X649563Y104721D01*
X649524Y104663D01*
X649485Y104604D01*
X649456Y104526D01*
X649436Y104438D01*
X649426Y104341D01*
X649417Y104224D01*
Y101600D01*
X647700D01*
Y105970D01*
X649290D01*
Y105355D01*
X649309Y105375D01*
X649329Y105414D01*
X649358Y105453D01*
X649397Y105511D01*
X649446Y105570D01*
X649504Y105638D01*
X649582Y105706D01*
X649660Y105765D01*
X649748Y105833D01*
X649855Y105892D01*
X649973Y105950D01*
X650099Y105989D01*
X650236Y106028D01*
X650382Y106048D01*
X650548Y106057D01*
X650626D01*
X650714Y106048D01*
D02*
G37*
G36*
X662233Y106984D02*
X662340Y106974D01*
X662467Y106965D01*
X662604Y106955D01*
X662564Y105794D01*
X662438D01*
X662399Y105804D01*
X662350D01*
X662243Y105814D01*
X662077D01*
X662018Y105804D01*
X661930Y105794D01*
X661852Y105774D01*
X661774Y105736D01*
X661706Y105696D01*
X661657Y105638D01*
X661667D01*
X661677Y105618D01*
X661735Y105570D01*
X661814Y105482D01*
X661911Y105365D01*
X661999Y105228D01*
X662077Y105063D01*
X662135Y104867D01*
X662145Y104770D01*
X662155Y104663D01*
Y104653D01*
Y104633D01*
Y104604D01*
X662145Y104555D01*
X662135Y104497D01*
X662126Y104438D01*
X662087Y104292D01*
X662028Y104126D01*
X661930Y103960D01*
X661872Y103882D01*
X661794Y103804D01*
X661716Y103726D01*
X661618Y103658D01*
X661609D01*
X661599Y103648D01*
X661560Y103629D01*
X661521Y103609D01*
X661472Y103580D01*
X661404Y103551D01*
X661326Y103521D01*
X661238Y103492D01*
X661141Y103463D01*
X661033Y103434D01*
X660916Y103404D01*
X660789Y103375D01*
X660653Y103356D01*
X660497Y103336D01*
X660175Y103326D01*
X659921D01*
X659853Y103336D01*
X659687D01*
X659629Y103326D01*
X659551Y103307D01*
X659473Y103287D01*
X659414Y103248D01*
X659365Y103190D01*
X659346Y103122D01*
Y103112D01*
X659356Y103092D01*
X659365Y103063D01*
X659395Y103024D01*
X659434Y102995D01*
X659502Y102956D01*
X659590Y102936D01*
X659707Y102917D01*
X661111Y102858D01*
X661141D01*
X661189Y102849D01*
X661238D01*
X661296Y102839D01*
X661375Y102829D01*
X661540Y102790D01*
X661726Y102741D01*
X661911Y102663D01*
X662087Y102566D01*
X662243Y102429D01*
X662262Y102409D01*
X662301Y102361D01*
X662360Y102283D01*
X662428Y102166D01*
X662486Y102039D01*
X662545Y101883D01*
X662584Y101707D01*
X662604Y101512D01*
Y101503D01*
Y101483D01*
Y101454D01*
X662594Y101405D01*
X662574Y101298D01*
X662535Y101151D01*
X662477Y100985D01*
X662379Y100820D01*
X662321Y100732D01*
X662243Y100644D01*
X662165Y100566D01*
X662067Y100488D01*
X662057D01*
X662038Y100469D01*
X662009Y100449D01*
X661960Y100430D01*
X661891Y100400D01*
X661814Y100361D01*
X661716Y100322D01*
X661609Y100293D01*
X661472Y100254D01*
X661326Y100215D01*
X661150Y100186D01*
X660965Y100147D01*
X660750Y100127D01*
X660516Y100108D01*
X660263Y100088D01*
X659824D01*
X659765Y100098D01*
X659609Y100108D01*
X659424Y100118D01*
X659229Y100147D01*
X659014Y100176D01*
X658790Y100225D01*
X658566Y100283D01*
X658351Y100361D01*
X658156Y100449D01*
X657971Y100556D01*
X657824Y100683D01*
X657756Y100751D01*
X657707Y100829D01*
X657658Y100907D01*
X657629Y100995D01*
X657610Y101093D01*
X657600Y101190D01*
Y101200D01*
Y101220D01*
Y101249D01*
X657610Y101288D01*
X657629Y101385D01*
X657678Y101512D01*
X657756Y101649D01*
X657805Y101717D01*
X657863Y101785D01*
X657941Y101844D01*
X658029Y101912D01*
X658127Y101961D01*
X658234Y102010D01*
X658214Y102019D01*
X658166Y102058D01*
X658107Y102127D01*
X658029Y102205D01*
X657951Y102302D01*
X657893Y102419D01*
X657844Y102556D01*
X657824Y102692D01*
Y102702D01*
Y102722D01*
X657834Y102751D01*
Y102800D01*
X657873Y102917D01*
X657893Y102985D01*
X657932Y103063D01*
X657971Y103141D01*
X658029Y103219D01*
X658097Y103297D01*
X658175Y103375D01*
X658273Y103463D01*
X658390Y103531D01*
X658517Y103600D01*
X658663Y103668D01*
X658653D01*
X658634Y103687D01*
X658595Y103697D01*
X658556Y103726D01*
X658439Y103804D01*
X658312Y103912D01*
X658185Y104048D01*
X658068Y104224D01*
X658029Y104321D01*
X657990Y104438D01*
X657971Y104555D01*
X657961Y104682D01*
Y104692D01*
Y104711D01*
Y104741D01*
X657971Y104789D01*
X657980Y104848D01*
X657990Y104907D01*
X658029Y105053D01*
X658097Y105219D01*
X658146Y105306D01*
X658205Y105384D01*
X658263Y105472D01*
X658341Y105550D01*
X658429Y105628D01*
X658527Y105696D01*
X658536D01*
X658556Y105716D01*
X658585Y105726D01*
X658634Y105755D01*
X658692Y105784D01*
X658761Y105814D01*
X658839Y105843D01*
X658936Y105882D01*
X659034Y105911D01*
X659151Y105940D01*
X659277Y105970D01*
X659424Y105999D01*
X659570Y106028D01*
X659726Y106038D01*
X659902Y106057D01*
X660243D01*
X660350Y106048D01*
X660477Y106038D01*
X660614Y106018D01*
X660897Y105960D01*
Y105970D01*
X660906Y106009D01*
X660916Y106057D01*
X660936Y106126D01*
X660965Y106204D01*
X660994Y106292D01*
X661043Y106379D01*
X661092Y106477D01*
X661160Y106574D01*
X661228Y106662D01*
X661326Y106750D01*
X661423Y106828D01*
X661540Y106896D01*
X661677Y106945D01*
X661823Y106984D01*
X661989Y106994D01*
X662145D01*
X662233Y106984D01*
D02*
G37*
G36*
X676005Y107754D02*
X676180Y107745D01*
X676366Y107725D01*
X676561Y107706D01*
X676766Y107676D01*
Y106545D01*
X676746D01*
X676697Y106555D01*
X676629Y106565D01*
X676532Y106574D01*
X676337Y106594D01*
X676239Y106604D01*
X676083D01*
X676034Y106594D01*
X675917Y106565D01*
X675790Y106516D01*
X675781D01*
X675761Y106496D01*
X675742Y106477D01*
X675712Y106438D01*
X675673Y106389D01*
X675654Y106311D01*
X675634Y106223D01*
X675625Y106116D01*
Y105970D01*
X676737D01*
Y104858D01*
X675634D01*
Y101600D01*
X674015D01*
Y104858D01*
X673362D01*
Y105970D01*
X674015D01*
Y105979D01*
Y105989D01*
Y106018D01*
Y106057D01*
Y106155D01*
X674025Y106272D01*
Y106399D01*
X674035Y106526D01*
X674044Y106652D01*
X674054Y106760D01*
Y106769D01*
X674064Y106808D01*
X674083Y106857D01*
X674103Y106925D01*
X674132Y106994D01*
X674171Y107081D01*
X674230Y107169D01*
X674288Y107257D01*
X674298Y107267D01*
X674327Y107296D01*
X674366Y107345D01*
X674425Y107394D01*
X674503Y107452D01*
X674581Y107520D01*
X674688Y107579D01*
X674796Y107628D01*
X674815Y107638D01*
X674854Y107647D01*
X674922Y107667D01*
X675020Y107696D01*
X675147Y107725D01*
X675293Y107745D01*
X675459Y107754D01*
X675654Y107764D01*
X675868D01*
X676005Y107754D01*
D02*
G37*
G36*
X667968Y106048D02*
X668075Y106038D01*
Y104507D01*
X668065D01*
X668046Y104516D01*
X668007Y104526D01*
X667968Y104536D01*
X667861Y104546D01*
X667744Y104555D01*
X667705D01*
X667666Y104546D01*
X667607D01*
X667549Y104526D01*
X667480Y104507D01*
X667402Y104477D01*
X667324Y104438D01*
X667236Y104389D01*
X667168Y104321D01*
X667090Y104243D01*
X667032Y104155D01*
X666973Y104038D01*
X666934Y103912D01*
X666905Y103765D01*
X666895Y103600D01*
Y101600D01*
X665257D01*
Y105970D01*
X666681D01*
Y105072D01*
X666690Y105101D01*
X666710Y105150D01*
X666729Y105219D01*
X666768Y105297D01*
X666807Y105375D01*
X666856Y105472D01*
X666915Y105560D01*
X666983Y105658D01*
X667071Y105745D01*
X667158Y105823D01*
X667266Y105901D01*
X667383Y105970D01*
X667519Y106018D01*
X667666Y106048D01*
X667822Y106057D01*
X667890D01*
X667968Y106048D01*
D02*
G37*
G36*
X59339Y119274D02*
X46138D01*
X45915Y119237D01*
X45692D01*
X45394Y119200D01*
X44762Y119088D01*
X44055Y118865D01*
X43312Y118605D01*
X42605Y118196D01*
X42233Y117973D01*
X41936Y117675D01*
Y117638D01*
X41861Y117601D01*
X41676Y117378D01*
X41415Y117006D01*
X41155Y116523D01*
X40857Y115853D01*
X40597Y115072D01*
X40411Y114180D01*
X40374Y113659D01*
X40337Y113139D01*
Y113102D01*
Y113027D01*
Y112878D01*
X40374Y112655D01*
Y112432D01*
X40411Y112172D01*
X40523Y111540D01*
X40709Y110833D01*
X41006Y110090D01*
X41378Y109383D01*
X41899Y108751D01*
X41936Y108714D01*
X41973Y108676D01*
X42196Y108490D01*
X42531Y108230D01*
X43051Y107933D01*
X43646Y107672D01*
X44427Y107412D01*
X45283Y107226D01*
X45766Y107152D01*
X59339D01*
Y105776D01*
X46063D01*
X45840Y105813D01*
X45543Y105850D01*
X45208Y105887D01*
X44464Y106036D01*
X43572Y106259D01*
X42680Y106631D01*
X42270Y106854D01*
X41824Y107115D01*
X41415Y107412D01*
X41043Y107784D01*
X41006Y107821D01*
X40969Y107858D01*
X40857Y107970D01*
X40746Y108156D01*
X40597Y108342D01*
X40448Y108602D01*
X40262Y108900D01*
X40076Y109197D01*
X39891Y109569D01*
X39705Y110015D01*
X39556Y110461D01*
X39407Y110945D01*
X39296Y111503D01*
X39184Y112060D01*
X39147Y112655D01*
X39110Y113325D01*
Y113362D01*
Y113473D01*
Y113659D01*
X39147Y113882D01*
X39184Y114180D01*
X39221Y114515D01*
X39258Y114886D01*
X39370Y115295D01*
X39593Y116151D01*
X39928Y117080D01*
X40151Y117527D01*
X40411Y117936D01*
X40709Y118382D01*
X41043Y118754D01*
X41080Y118791D01*
X41118Y118828D01*
X41229Y118940D01*
X41415Y119051D01*
X41601Y119200D01*
X41824Y119349D01*
X42122Y119535D01*
X42456Y119721D01*
X42828Y119907D01*
X43237Y120092D01*
X43684Y120241D01*
X44167Y120390D01*
X44688Y120501D01*
X45245Y120613D01*
X45840Y120650D01*
X46472Y120687D01*
X59339D01*
Y119274D01*
D02*
G37*
G36*
X49819Y101351D02*
X50079D01*
X50377Y101314D01*
X50749Y101277D01*
X51121Y101239D01*
X51939Y101091D01*
X52868Y100868D01*
X53798Y100570D01*
X54690Y100161D01*
X54728D01*
X54802Y100087D01*
X54914Y100012D01*
X55100Y99938D01*
X55509Y99640D01*
X56029Y99231D01*
X56624Y98748D01*
X57219Y98116D01*
X57814Y97409D01*
X58335Y96591D01*
Y96554D01*
X58409Y96480D01*
X58446Y96368D01*
X58558Y96182D01*
X58632Y95959D01*
X58744Y95699D01*
X58855Y95364D01*
X59004Y95029D01*
X59227Y94248D01*
X59450Y93319D01*
X59599Y92315D01*
X59636Y91199D01*
Y91162D01*
Y91051D01*
Y90864D01*
Y90641D01*
X59599Y90381D01*
X59562Y90047D01*
X59525Y89675D01*
X59487Y89266D01*
X59339Y88336D01*
X59153Y87369D01*
X58855Y86365D01*
X58446Y85361D01*
X57182Y85919D01*
Y85956D01*
X57219Y86030D01*
X57294Y86179D01*
X57368Y86365D01*
X57479Y86588D01*
X57554Y86886D01*
X57665Y87220D01*
X57814Y87555D01*
X58037Y88373D01*
X58223Y89303D01*
X58372Y90270D01*
X58409Y91311D01*
Y91348D01*
Y91497D01*
Y91683D01*
X58372Y91943D01*
X58335Y92278D01*
X58298Y92687D01*
X58223Y93096D01*
X58112Y93579D01*
X57814Y94583D01*
X57628Y95104D01*
X57368Y95624D01*
X57108Y96108D01*
X56773Y96628D01*
X56401Y97112D01*
X55955Y97558D01*
X55918Y97595D01*
X55843Y97669D01*
X55694Y97781D01*
X55509Y97930D01*
X55248Y98078D01*
X54951Y98302D01*
X54616Y98488D01*
X54207Y98711D01*
X53761Y98934D01*
X53277Y99120D01*
X52720Y99343D01*
X52162Y99492D01*
X51530Y99640D01*
X50860Y99752D01*
X50117Y99826D01*
X49373Y99864D01*
X48927D01*
X48629Y99826D01*
X48257Y99789D01*
X47848Y99752D01*
X47365Y99677D01*
X46844Y99603D01*
X45729Y99343D01*
X45171Y99157D01*
X44613Y98934D01*
X44055Y98673D01*
X43535Y98376D01*
X43051Y98041D01*
X42605Y97669D01*
X42568Y97632D01*
X42494Y97558D01*
X42382Y97446D01*
X42270Y97261D01*
X42084Y97037D01*
X41899Y96740D01*
X41676Y96405D01*
X41490Y96033D01*
X41266Y95587D01*
X41043Y95141D01*
X40857Y94583D01*
X40709Y94025D01*
X40560Y93393D01*
X40448Y92687D01*
X40374Y91980D01*
X40337Y91199D01*
Y91162D01*
Y91088D01*
Y90939D01*
Y90753D01*
X40374Y90493D01*
Y90232D01*
X40448Y89563D01*
X40523Y88856D01*
X40634Y88076D01*
X40820Y87257D01*
X41080Y86514D01*
X48109D01*
Y92464D01*
X49447D01*
Y85101D01*
X40337D01*
Y85138D01*
X40300Y85250D01*
X40225Y85398D01*
X40151Y85621D01*
X40039Y85882D01*
X39965Y86216D01*
X39853Y86588D01*
X39742Y86997D01*
X39593Y87481D01*
X39482Y87964D01*
X39296Y89080D01*
X39147Y90307D01*
X39110Y91608D01*
Y91645D01*
Y91831D01*
Y92055D01*
X39147Y92389D01*
X39184Y92798D01*
X39258Y93244D01*
X39333Y93765D01*
X39444Y94286D01*
X39593Y94881D01*
X39742Y95476D01*
X39965Y96070D01*
X40225Y96703D01*
X40523Y97298D01*
X40895Y97855D01*
X41304Y98413D01*
X41750Y98897D01*
X41787Y98934D01*
X41861Y99008D01*
X42047Y99120D01*
X42233Y99269D01*
X42531Y99492D01*
X42865Y99677D01*
X43237Y99901D01*
X43684Y100124D01*
X44204Y100384D01*
X44762Y100607D01*
X45394Y100793D01*
X46063Y100979D01*
X46807Y101165D01*
X47588Y101277D01*
X48406Y101351D01*
X49299Y101388D01*
X49596D01*
X49819Y101351D01*
D02*
G37*
G36*
X59339Y69185D02*
X58037D01*
Y78705D01*
X50489D01*
Y69706D01*
X49187D01*
Y78705D01*
X40672D01*
Y69185D01*
X39370D01*
Y80081D01*
X59339D01*
Y69185D01*
D02*
G37*
%LPC*%
G36*
X47662Y135227D02*
Y128087D01*
X54839Y130802D01*
X54876D01*
X54988Y130876D01*
X55174Y130951D01*
X55471Y131025D01*
X55806Y131137D01*
X56178Y131285D01*
X56661Y131434D01*
X57182Y131620D01*
X57108D01*
X56959Y131694D01*
X56698Y131769D01*
X56401Y131843D01*
X56029Y131955D01*
X55620Y132103D01*
X54802Y132401D01*
X47662Y135227D01*
D02*
G37*
G36*
X655035Y105043D02*
X654976D01*
X654937Y105033D01*
X654840Y105004D01*
X654732Y104955D01*
X654674Y104916D01*
X654625Y104858D01*
X654566Y104799D01*
X654528Y104731D01*
X654489Y104643D01*
X654459Y104546D01*
X654440Y104429D01*
X654430Y104302D01*
X655649D01*
Y104312D01*
Y104321D01*
Y104370D01*
X655639Y104448D01*
X655620Y104536D01*
X655600Y104633D01*
X655571Y104731D01*
X655522Y104819D01*
X655464Y104887D01*
X655454Y104897D01*
X655435Y104916D01*
X655396Y104936D01*
X655347Y104965D01*
X655278Y104994D01*
X655210Y105023D01*
X655123Y105033D01*
X655035Y105043D01*
D02*
G37*
G36*
X670777D02*
X670719D01*
X670679Y105033D01*
X670582Y105004D01*
X670475Y104955D01*
X670416Y104916D01*
X670367Y104858D01*
X670309Y104799D01*
X670270Y104731D01*
X670231Y104643D01*
X670202Y104546D01*
X670182Y104429D01*
X670172Y104302D01*
X671392D01*
Y104312D01*
Y104321D01*
Y104370D01*
X671382Y104448D01*
X671362Y104536D01*
X671343Y104633D01*
X671313Y104731D01*
X671265Y104819D01*
X671206Y104887D01*
X671196Y104897D01*
X671177Y104916D01*
X671138Y104936D01*
X671089Y104965D01*
X671021Y104994D01*
X670953Y105023D01*
X670865Y105033D01*
X670777Y105043D01*
D02*
G37*
G36*
X659648Y101639D02*
X659395D01*
X659326Y101629D01*
X659248Y101610D01*
X659161Y101580D01*
X659092Y101532D01*
X659043Y101473D01*
X659034Y101434D01*
X659024Y101385D01*
Y101376D01*
X659034Y101346D01*
X659043Y101298D01*
X659063Y101249D01*
X659102Y101200D01*
X659161Y101142D01*
X659248Y101093D01*
X659356Y101064D01*
X659375D01*
X659414Y101054D01*
X659492Y101044D01*
X659590Y101025D01*
X659716Y101015D01*
X659873Y100995D01*
X660048Y100985D01*
X660341D01*
X660428Y100995D01*
X660536D01*
X660653Y101005D01*
X660760Y101025D01*
X660858Y101054D01*
X660936Y101083D01*
X660945D01*
X660965Y101103D01*
X661014Y101151D01*
X661072Y101220D01*
X661082Y101268D01*
X661092Y101327D01*
Y101337D01*
Y101346D01*
X661082Y101395D01*
X661062Y101454D01*
X661014Y101512D01*
X661004Y101522D01*
X660975Y101542D01*
X660945Y101551D01*
X660906Y101571D01*
X660848Y101580D01*
X660780Y101590D01*
X660692Y101600D01*
X659648Y101639D01*
D02*
G37*
G36*
X660068Y105199D02*
X660048D01*
X659989Y105189D01*
X659911Y105170D01*
X659824Y105131D01*
X659726Y105063D01*
X659687Y105023D01*
X659648Y104965D01*
X659619Y104897D01*
X659590Y104828D01*
X659580Y104741D01*
X659570Y104643D01*
Y104633D01*
Y104624D01*
X659580Y104565D01*
X659599Y104487D01*
X659638Y104389D01*
X659697Y104292D01*
X659785Y104214D01*
X659843Y104185D01*
X659921Y104155D01*
X659999Y104146D01*
X660087Y104136D01*
X660107D01*
X660165Y104146D01*
X660243Y104165D01*
X660341Y104204D01*
X660428Y104263D01*
X660507Y104351D01*
X660536Y104409D01*
X660565Y104487D01*
X660575Y104565D01*
X660584Y104653D01*
Y104663D01*
Y104672D01*
X660575Y104741D01*
X660555Y104828D01*
X660516Y104926D01*
X660458Y105023D01*
X660370Y105111D01*
X660311Y105150D01*
X660243Y105180D01*
X660155Y105189D01*
X660068Y105199D01*
D02*
G37*
%LPD*%
D18*
X516860Y125730D02*
G03*
X516860Y125730I-1255J0D01*
G01*
X554960Y227330D02*
G03*
X554960Y227330I-1255J0D01*
G01*
X524510Y118110D02*
Y120650D01*
X478790Y118110D02*
X524510D01*
X478790D02*
Y120650D01*
X524510Y171450D02*
Y173990D01*
X478790D02*
X524510D01*
X478790Y171450D02*
Y173990D01*
X562610Y219710D02*
Y222250D01*
X516890Y219710D02*
X562610D01*
X516890D02*
Y222250D01*
X562610Y273050D02*
Y275590D01*
X516890D02*
X562610D01*
X516890Y273050D02*
Y275590D01*
X444500Y12700D02*
Y38100D01*
X266700D02*
X469900D01*
X266700Y12700D02*
Y38100D01*
Y12700D02*
X469900D01*
Y38100D01*
X622300Y495300D02*
Y520700D01*
X444500D02*
X647700D01*
X444500Y495300D02*
Y520700D01*
Y495300D02*
X647700D01*
Y520700D01*
X403860D02*
X429260D01*
X175260Y495300D02*
X403860D01*
X175260D02*
Y520700D01*
X403860D01*
Y495300D02*
Y520700D01*
Y495300D02*
X429260D01*
Y520700D01*
X495300Y12700D02*
Y25400D01*
Y12700D02*
X520700D01*
Y38100D01*
X647700D01*
Y12700D02*
Y38100D01*
X520700Y12700D02*
X647700D01*
X495300Y38100D02*
X520700D01*
X495300Y25400D02*
Y38100D01*
X666750Y254000D02*
X673100Y247650D01*
X679450Y254000D01*
X673100Y247650D02*
Y273050D01*
D26*
X-26650Y348200D02*
G03*
X-18650Y340200I8000J0D01*
G01*
Y464200D02*
G03*
X-26650Y456200I0J-8000D01*
G01*
Y348200D02*
Y456200D01*
X-18650Y464200D02*
X6350D01*
X-18650Y340200D02*
X6350D01*
Y330200D02*
X173350D01*
X6350Y473200D02*
X173350D01*
Y330200D02*
Y473200D01*
X6350Y330200D02*
Y473200D01*
D27*
X590550Y137160D02*
Y146812D01*
X603250D01*
Y137160D02*
Y146812D01*
Y119888D02*
Y129540D01*
X590550Y119888D02*
X603250D01*
X590550D02*
Y129540D01*
X577850Y137160D02*
Y146812D01*
X590550D01*
Y137160D02*
Y146812D01*
Y119888D02*
Y129540D01*
X577850Y119888D02*
X590550D01*
X577850D02*
Y129540D01*
Y137160D02*
Y146812D01*
X565150D02*
X577850D01*
X565150Y137160D02*
Y146812D01*
Y119888D02*
Y129540D01*
Y119888D02*
X577850D01*
Y129540D01*
X552450Y137160D02*
Y146812D01*
X565150D01*
Y137160D02*
Y146812D01*
Y119888D02*
Y129540D01*
X552450Y119888D02*
X565150D01*
X552450D02*
Y129540D01*
X539750Y137160D02*
Y146812D01*
X552450D01*
Y137160D02*
Y146812D01*
Y119888D02*
Y129540D01*
X539750Y119888D02*
X552450D01*
X539750D02*
Y129540D01*
X437388Y133350D02*
X447040D01*
X437388Y120650D02*
Y133350D01*
Y120650D02*
X447040D01*
X454660D02*
X464312D01*
Y133350D01*
X454660D02*
X464312D01*
X438150Y149860D02*
Y159512D01*
X425450D02*
X438150D01*
X425450Y149860D02*
Y159512D01*
Y132588D02*
Y142240D01*
Y132588D02*
X438150D01*
Y142240D01*
Y149860D02*
Y159512D01*
X450850D01*
Y149860D02*
Y159512D01*
Y132588D02*
Y142240D01*
X438150Y132588D02*
X450850D01*
X438150D02*
Y142240D01*
X450850Y149860D02*
Y159512D01*
X463550D01*
Y149860D02*
Y159512D01*
Y132588D02*
Y142240D01*
X450850Y132588D02*
X463550D01*
X450850D02*
Y142240D01*
X425450Y132588D02*
Y142240D01*
X412750Y132588D02*
X425450D01*
X412750D02*
Y142240D01*
Y149860D02*
Y159512D01*
X425450D01*
Y149860D02*
Y159512D01*
X266700Y384810D02*
Y394462D01*
X279400D01*
Y384810D02*
Y394462D01*
Y367538D02*
Y377190D01*
X266700Y367538D02*
X279400D01*
X266700D02*
Y377190D01*
X241300Y416560D02*
Y426212D01*
X254000D01*
Y416560D02*
Y426212D01*
Y399288D02*
Y408940D01*
X241300Y399288D02*
X254000D01*
X241300D02*
Y408940D01*
Y367538D02*
Y377190D01*
Y367538D02*
X254000D01*
Y377190D01*
Y384810D02*
Y394462D01*
X241300D02*
X254000D01*
X241300Y384810D02*
Y394462D01*
X209550Y399288D02*
Y408940D01*
Y399288D02*
X222250D01*
Y408940D01*
Y416560D02*
Y426212D01*
X209550D02*
X222250D01*
X209550Y416560D02*
Y426212D01*
Y367538D02*
Y377190D01*
Y367538D02*
X222250D01*
Y377190D01*
Y384810D02*
Y394462D01*
X209550D02*
X222250D01*
X209550Y384810D02*
Y394462D01*
X475488Y234950D02*
X485140D01*
X475488Y222250D02*
Y234950D01*
Y222250D02*
X485140D01*
X492760D02*
X502412D01*
Y234950D01*
X492760D02*
X502412D01*
X462788D02*
X472440D01*
X462788D02*
Y247650D01*
X472440D01*
X480060D02*
X489712D01*
Y234950D02*
Y247650D01*
X480060Y234950D02*
X489712D01*
X501650Y251460D02*
Y261112D01*
X488950D02*
X501650D01*
X488950Y251460D02*
Y261112D01*
Y234188D02*
Y243840D01*
Y234188D02*
X501650D01*
Y243840D01*
X480060Y260350D02*
X489712D01*
Y247650D02*
Y260350D01*
X480060Y247650D02*
X489712D01*
X462788D02*
X472440D01*
X462788D02*
Y260350D01*
X472440D01*
X480060Y273050D02*
X489712D01*
Y260350D02*
Y273050D01*
X480060Y260350D02*
X489712D01*
X462788D02*
X472440D01*
X462788D02*
Y273050D01*
X472440D01*
X480060Y285750D02*
X489712D01*
Y273050D02*
Y285750D01*
X480060Y273050D02*
X489712D01*
X462788D02*
X472440D01*
X462788D02*
Y285750D01*
X472440D01*
X615950Y232410D02*
Y242062D01*
X628650D01*
Y232410D02*
Y242062D01*
Y215138D02*
Y224790D01*
X615950Y215138D02*
X628650D01*
X615950D02*
Y224790D01*
X603250Y232410D02*
Y242062D01*
X615950D01*
Y232410D02*
Y242062D01*
Y215138D02*
Y224790D01*
X603250Y215138D02*
X615950D01*
X603250D02*
Y224790D01*
X590550Y232410D02*
Y242062D01*
X603250D01*
Y232410D02*
Y242062D01*
Y215138D02*
Y224790D01*
X590550Y215138D02*
X603250D01*
X590550D02*
Y224790D01*
X594360Y209550D02*
X604012D01*
Y196850D02*
Y209550D01*
X594360Y196850D02*
X604012D01*
X577088D02*
X586740D01*
X577088D02*
Y209550D01*
X586740D01*
X590550Y232410D02*
Y242062D01*
X577850D02*
X590550D01*
X577850Y232410D02*
Y242062D01*
Y215138D02*
Y224790D01*
Y215138D02*
X590550D01*
Y224790D01*
X615950Y264160D02*
Y273812D01*
X603250D02*
X615950D01*
X603250Y264160D02*
Y273812D01*
Y246888D02*
Y256540D01*
Y246888D02*
X615950D01*
Y256540D01*
X603250Y246888D02*
Y256540D01*
X590550Y246888D02*
X603250D01*
X590550D02*
Y256540D01*
Y264160D02*
Y273812D01*
X603250D01*
Y264160D02*
Y273812D01*
X577850Y246888D02*
Y256540D01*
Y246888D02*
X590550D01*
Y256540D01*
Y264160D02*
Y273812D01*
X577850D02*
X590550D01*
X577850Y264160D02*
Y273812D01*
X75438Y304800D02*
X85090D01*
X75438D02*
Y317500D01*
X85090D01*
X92710D02*
X102362D01*
Y304800D02*
Y317500D01*
X92710Y304800D02*
X102362D01*
X615950Y264160D02*
Y273812D01*
X628650D01*
Y264160D02*
Y273812D01*
Y246888D02*
Y256540D01*
X615950Y246888D02*
X628650D01*
X615950D02*
Y256540D01*
X497840Y278638D02*
Y288290D01*
Y278638D02*
X510540D01*
Y288290D01*
Y295910D02*
Y305562D01*
X497840D02*
X510540D01*
X497840Y295910D02*
Y305562D01*
X539750Y145288D02*
Y154940D01*
Y145288D02*
X552450D01*
Y154940D01*
Y162560D02*
Y172212D01*
X539750D02*
X552450D01*
X539750Y162560D02*
Y172212D01*
X266700Y416560D02*
Y426212D01*
X279400D01*
Y416560D02*
Y426212D01*
Y399288D02*
Y408940D01*
X266700Y399288D02*
X279400D01*
X266700D02*
Y408940D01*
D28*
X444500Y209550D02*
X520700D01*
X444500Y184150D02*
Y209550D01*
Y184150D02*
X520700D01*
Y209550D01*
D29*
X127000Y65278D02*
Y233680D01*
X126873Y65278D02*
Y233680D01*
X126746Y65278D02*
Y233680D01*
X126619Y65278D02*
Y233680D01*
X126492Y65278D02*
Y233680D01*
X126365Y65278D02*
Y233680D01*
X126238Y65278D02*
Y233680D01*
X126111Y65278D02*
Y233680D01*
X125984Y65278D02*
Y233680D01*
X125857Y65278D02*
Y233680D01*
X125730Y65278D02*
Y233680D01*
X125603Y65278D02*
Y233680D01*
X125476Y65278D02*
Y233680D01*
X125349Y65278D02*
Y233680D01*
X125222Y65278D02*
Y233680D01*
X125095Y65278D02*
Y233680D01*
X124968Y65278D02*
Y233680D01*
X124841Y65278D02*
Y233680D01*
X124714Y65278D02*
Y233680D01*
X124587Y65278D02*
Y233680D01*
X124460Y65278D02*
Y233680D01*
X124333Y65278D02*
Y233680D01*
X124206Y65278D02*
Y233680D01*
X124079Y65278D02*
Y233680D01*
X123952Y65278D02*
Y233680D01*
X123825Y65278D02*
Y233680D01*
X123698Y65278D02*
Y233680D01*
X123571Y65278D02*
Y233680D01*
X123444Y65278D02*
Y233680D01*
X123317Y65278D02*
Y233680D01*
X123190Y65278D02*
Y233680D01*
X123063Y65278D02*
Y233680D01*
X122936Y65278D02*
Y233680D01*
X122809Y65278D02*
Y233680D01*
X122682Y65278D02*
Y233680D01*
X122555Y65278D02*
Y233680D01*
X122428Y65278D02*
Y233680D01*
X122301Y65278D02*
Y233680D01*
X122174Y65278D02*
Y233680D01*
X122047Y65278D02*
Y233680D01*
X121920Y65278D02*
Y233680D01*
X121793Y65278D02*
Y233680D01*
X121666Y65278D02*
Y233680D01*
X121539Y65278D02*
Y233680D01*
X121412Y65278D02*
Y233680D01*
X121285Y65278D02*
Y233680D01*
X121158Y65278D02*
Y233680D01*
X121031Y65278D02*
Y233680D01*
X120904Y65278D02*
Y233680D01*
X120777Y65278D02*
Y233680D01*
X120650Y65278D02*
Y233680D01*
X120523Y65278D02*
Y233680D01*
X120396Y65278D02*
Y233680D01*
X120269Y65278D02*
Y233680D01*
X120142Y65278D02*
Y233680D01*
X120015Y226441D02*
Y233680D01*
Y65278D02*
Y72517D01*
X119888Y226441D02*
Y233680D01*
Y65278D02*
Y72517D01*
X119761Y226441D02*
Y233680D01*
Y65278D02*
Y72517D01*
X119634Y226441D02*
Y233680D01*
Y65278D02*
Y72517D01*
X119507Y226441D02*
Y233680D01*
Y65278D02*
Y72517D01*
X119380Y226441D02*
Y233680D01*
Y65278D02*
Y72517D01*
X119253Y226441D02*
Y233680D01*
Y65278D02*
Y72517D01*
X119126Y226441D02*
Y233680D01*
Y65278D02*
Y72517D01*
X118999Y226441D02*
Y233680D01*
Y65278D02*
Y72517D01*
X118872Y226441D02*
Y233680D01*
Y65278D02*
Y72517D01*
X118745Y226441D02*
Y233680D01*
Y65278D02*
Y72517D01*
X118618Y226441D02*
Y233680D01*
Y65278D02*
Y72517D01*
X118491Y226441D02*
Y233680D01*
Y65278D02*
Y72517D01*
X118364Y226441D02*
Y233680D01*
Y65278D02*
Y72517D01*
X118237Y226441D02*
Y233680D01*
Y65278D02*
Y72517D01*
X118110Y226441D02*
Y233680D01*
Y65278D02*
Y72517D01*
X117983Y226441D02*
Y233680D01*
Y111887D02*
Y112141D01*
Y84963D02*
Y85090D01*
Y65278D02*
Y72517D01*
X117856Y226441D02*
Y233680D01*
Y111887D02*
Y112141D01*
Y84963D02*
Y85217D01*
Y65278D02*
Y72517D01*
X117729Y226441D02*
Y233680D01*
Y111887D02*
Y112141D01*
Y84963D02*
Y85217D01*
Y65278D02*
Y72517D01*
X117602Y226441D02*
Y233680D01*
Y111760D02*
Y112141D01*
Y84963D02*
Y85344D01*
Y65278D02*
Y72517D01*
X117475Y226441D02*
Y233680D01*
Y111760D02*
Y112141D01*
Y84836D02*
Y85344D01*
Y65278D02*
Y72517D01*
X117348Y226441D02*
Y233680D01*
Y111633D02*
Y112268D01*
Y84836D02*
Y85471D01*
Y65278D02*
Y72517D01*
X117221Y226441D02*
Y233680D01*
Y111633D02*
Y112268D01*
Y84836D02*
Y85471D01*
Y65278D02*
Y72517D01*
X117094Y226441D02*
Y233680D01*
Y111506D02*
Y112268D01*
Y84836D02*
Y85598D01*
Y65278D02*
Y72517D01*
X116967Y226441D02*
Y233680D01*
Y111506D02*
Y112268D01*
Y84836D02*
Y85598D01*
Y65278D02*
Y72517D01*
X116840Y226441D02*
Y233680D01*
Y111379D02*
Y112268D01*
Y84836D02*
Y85598D01*
Y65278D02*
Y72517D01*
X116713Y226441D02*
Y233680D01*
Y111379D02*
Y112395D01*
Y84709D02*
Y85725D01*
Y65278D02*
Y72517D01*
X116586Y226441D02*
Y233680D01*
Y111379D02*
Y112395D01*
Y84709D02*
Y85725D01*
Y65278D02*
Y72517D01*
X116459Y226441D02*
Y233680D01*
Y111252D02*
Y112395D01*
Y84709D02*
Y85852D01*
Y65278D02*
Y72517D01*
X116332Y226441D02*
Y233680D01*
Y111252D02*
Y112395D01*
Y84709D02*
Y85852D01*
Y65278D02*
Y72517D01*
X116205Y226441D02*
Y233680D01*
Y111125D02*
Y112395D01*
Y84709D02*
Y85979D01*
Y65278D02*
Y72517D01*
X116078Y226441D02*
Y233680D01*
Y111125D02*
Y112522D01*
Y84582D02*
Y85979D01*
Y65278D02*
Y72517D01*
X115951Y226441D02*
Y233680D01*
Y110998D02*
Y112522D01*
Y84582D02*
Y86106D01*
Y65278D02*
Y72517D01*
X115824Y226441D02*
Y233680D01*
Y175768D02*
Y178435D01*
Y110998D02*
Y112522D01*
Y84582D02*
Y86106D01*
Y65278D02*
Y72517D01*
X115697Y226441D02*
Y233680D01*
Y174371D02*
Y179832D01*
Y110871D02*
Y112522D01*
Y84582D02*
Y86233D01*
Y65278D02*
Y72517D01*
X115570Y226441D02*
Y233680D01*
Y173482D02*
Y180721D01*
Y110871D02*
Y112522D01*
Y84582D02*
Y86233D01*
Y65278D02*
Y72517D01*
X115443Y226441D02*
Y233680D01*
Y172720D02*
Y181356D01*
Y110871D02*
Y112649D01*
Y84582D02*
Y86360D01*
Y65278D02*
Y72517D01*
X115316Y226441D02*
Y233680D01*
Y172212D02*
Y181864D01*
Y110744D02*
Y112649D01*
Y84455D02*
Y86360D01*
Y65278D02*
Y72517D01*
X115189Y226441D02*
Y233680D01*
Y171704D02*
Y182499D01*
Y110744D02*
Y112649D01*
Y84455D02*
Y86360D01*
Y65278D02*
Y72517D01*
X115062Y226441D02*
Y233680D01*
Y202184D02*
Y221488D01*
Y171196D02*
Y183007D01*
Y140335D02*
Y149733D01*
Y110617D02*
Y112649D01*
Y84455D02*
Y86487D01*
Y65278D02*
Y72517D01*
X114935Y226441D02*
Y233680D01*
Y202184D02*
Y221488D01*
Y170815D02*
Y183388D01*
Y138938D02*
Y149733D01*
Y110617D02*
Y112649D01*
Y84455D02*
Y86487D01*
Y65278D02*
Y72517D01*
X114808Y226441D02*
Y233680D01*
Y202184D02*
Y221488D01*
Y170434D02*
Y183769D01*
Y138049D02*
Y149733D01*
Y110490D02*
Y112776D01*
Y84455D02*
Y86614D01*
Y65278D02*
Y72517D01*
X114681Y226441D02*
Y233680D01*
Y202184D02*
Y221488D01*
Y170053D02*
Y184023D01*
Y137287D02*
Y149733D01*
Y110490D02*
Y112776D01*
Y84455D02*
Y86614D01*
Y65278D02*
Y72517D01*
X114554Y226441D02*
Y233680D01*
Y202184D02*
Y221488D01*
Y169799D02*
Y184404D01*
Y136652D02*
Y149733D01*
Y110363D02*
Y112776D01*
Y84328D02*
Y86741D01*
Y65278D02*
Y72517D01*
X114427Y226441D02*
Y233680D01*
Y202184D02*
Y221488D01*
Y169418D02*
Y184785D01*
Y136144D02*
Y149733D01*
Y110363D02*
Y112776D01*
Y84328D02*
Y86741D01*
Y65278D02*
Y72517D01*
X114300Y226441D02*
Y233680D01*
Y202184D02*
Y221488D01*
Y169037D02*
Y185039D01*
Y135763D02*
Y149733D01*
Y110363D02*
Y112776D01*
Y84328D02*
Y86868D01*
Y65278D02*
Y72517D01*
X114173Y226441D02*
Y233680D01*
Y202184D02*
Y221488D01*
Y168783D02*
Y185293D01*
Y135255D02*
Y149733D01*
Y110236D02*
Y112903D01*
Y84328D02*
Y86868D01*
Y65278D02*
Y72517D01*
X114046Y226441D02*
Y233680D01*
Y202184D02*
Y221488D01*
Y168529D02*
Y185674D01*
Y134874D02*
Y149733D01*
Y110236D02*
Y112903D01*
Y84328D02*
Y86995D01*
Y65278D02*
Y72517D01*
X113919Y226441D02*
Y233680D01*
Y202184D02*
Y221488D01*
Y168275D02*
Y185928D01*
Y134620D02*
Y149733D01*
Y110109D02*
Y112903D01*
Y84201D02*
Y86995D01*
Y65278D02*
Y72517D01*
X113792Y226441D02*
Y233680D01*
Y202184D02*
Y221488D01*
Y168021D02*
Y186182D01*
Y134239D02*
Y149733D01*
Y110109D02*
Y112903D01*
Y84201D02*
Y86995D01*
Y65278D02*
Y72517D01*
X113665Y226441D02*
Y233680D01*
Y202184D02*
Y221488D01*
Y167767D02*
Y186436D01*
Y133985D02*
Y149733D01*
Y109982D02*
Y112903D01*
Y84201D02*
Y87122D01*
Y65278D02*
Y72517D01*
X113538Y226441D02*
Y233680D01*
Y202184D02*
Y221488D01*
Y167513D02*
Y186690D01*
Y133731D02*
Y149733D01*
Y109982D02*
Y113030D01*
Y84201D02*
Y87122D01*
Y65278D02*
Y72517D01*
X113411Y226441D02*
Y233680D01*
Y202184D02*
Y221488D01*
Y167259D02*
Y186944D01*
Y133477D02*
Y149733D01*
Y109855D02*
Y113030D01*
Y84201D02*
Y87249D01*
Y65278D02*
Y72517D01*
X113284Y226441D02*
Y233680D01*
Y202184D02*
Y221488D01*
Y167132D02*
Y187071D01*
Y133223D02*
Y149733D01*
Y109855D02*
Y113030D01*
Y84201D02*
Y87249D01*
Y65278D02*
Y72517D01*
X113157Y226441D02*
Y233680D01*
Y202184D02*
Y221488D01*
Y166878D02*
Y187325D01*
Y132969D02*
Y149733D01*
Y109855D02*
Y113030D01*
Y84074D02*
Y87376D01*
Y65278D02*
Y72517D01*
X113030Y226441D02*
Y233680D01*
Y202184D02*
Y221488D01*
Y166751D02*
Y187579D01*
Y132715D02*
Y149733D01*
Y109728D02*
Y113030D01*
Y84074D02*
Y87376D01*
Y65278D02*
Y72517D01*
X112903Y226441D02*
Y233680D01*
Y202184D02*
Y221488D01*
Y166497D02*
Y187706D01*
Y132588D02*
Y149733D01*
Y109728D02*
Y113157D01*
Y84074D02*
Y87503D01*
Y65278D02*
Y72517D01*
X112776Y226441D02*
Y233680D01*
Y202184D02*
Y221488D01*
Y166243D02*
Y187960D01*
Y132334D02*
Y149733D01*
Y109601D02*
Y113157D01*
Y84074D02*
Y87503D01*
Y65278D02*
Y72517D01*
X112649Y226441D02*
Y233680D01*
Y202184D02*
Y221488D01*
Y166116D02*
Y188214D01*
Y132207D02*
Y149733D01*
Y109601D02*
Y113157D01*
Y84074D02*
Y87630D01*
Y65278D02*
Y72517D01*
X112522Y226441D02*
Y233680D01*
Y202184D02*
Y221488D01*
Y165862D02*
Y188341D01*
Y132080D02*
Y149733D01*
Y109474D02*
Y113157D01*
Y84074D02*
Y87630D01*
Y65278D02*
Y72517D01*
X112395Y226441D02*
Y233680D01*
Y202184D02*
Y221488D01*
Y165735D02*
Y188468D01*
Y131826D02*
Y149733D01*
Y109474D02*
Y113157D01*
Y83947D02*
Y87630D01*
Y65278D02*
Y72517D01*
X112268Y226441D02*
Y233680D01*
Y202184D02*
Y221488D01*
Y165481D02*
Y188722D01*
Y131699D02*
Y149733D01*
Y109474D02*
Y113157D01*
Y83947D02*
Y87757D01*
Y65278D02*
Y72517D01*
X112141Y226441D02*
Y233680D01*
Y202184D02*
Y221488D01*
Y165354D02*
Y188849D01*
Y131572D02*
Y149733D01*
Y109347D02*
Y113284D01*
Y83947D02*
Y87757D01*
Y65278D02*
Y72517D01*
X112014Y226441D02*
Y233680D01*
Y202184D02*
Y221488D01*
Y165227D02*
Y188976D01*
Y131445D02*
Y149733D01*
Y109347D02*
Y113284D01*
Y83947D02*
Y87884D01*
Y65278D02*
Y72517D01*
X111887Y226441D02*
Y233680D01*
Y202184D02*
Y221488D01*
Y165100D02*
Y189230D01*
Y131318D02*
Y149733D01*
Y109220D02*
Y113284D01*
Y83947D02*
Y87884D01*
Y65278D02*
Y72517D01*
X111760Y226441D02*
Y233680D01*
Y202184D02*
Y221488D01*
Y164846D02*
Y189357D01*
Y131191D02*
Y149733D01*
Y109220D02*
Y113284D01*
Y83820D02*
Y88011D01*
Y65278D02*
Y72517D01*
X111633Y226441D02*
Y233680D01*
Y202184D02*
Y221488D01*
Y164719D02*
Y189611D01*
Y131064D02*
Y149733D01*
Y109093D02*
Y113284D01*
Y83820D02*
Y88011D01*
Y65278D02*
Y72517D01*
X111506Y226441D02*
Y233680D01*
Y202184D02*
Y221488D01*
Y164592D02*
Y189738D01*
Y130937D02*
Y149733D01*
Y109093D02*
Y113411D01*
Y83820D02*
Y88138D01*
Y65278D02*
Y72517D01*
X111379Y226441D02*
Y233680D01*
Y202184D02*
Y221488D01*
Y164338D02*
Y189865D01*
Y130810D02*
Y149733D01*
Y108966D02*
Y113411D01*
Y83820D02*
Y88138D01*
Y65278D02*
Y72517D01*
X111252Y226441D02*
Y233680D01*
Y202184D02*
Y221488D01*
Y164211D02*
Y189992D01*
Y130683D02*
Y149733D01*
Y108966D02*
Y113411D01*
Y83820D02*
Y88265D01*
Y65278D02*
Y72517D01*
X111125Y226441D02*
Y233680D01*
Y202184D02*
Y221488D01*
Y164084D02*
Y190119D01*
Y130556D02*
Y149733D01*
Y108966D02*
Y113411D01*
Y83820D02*
Y88265D01*
Y65278D02*
Y72517D01*
X110998Y226441D02*
Y233680D01*
Y202184D02*
Y221488D01*
Y163957D02*
Y190373D01*
Y130429D02*
Y149733D01*
Y108839D02*
Y113411D01*
Y83693D02*
Y88392D01*
Y65278D02*
Y72517D01*
X110871Y226441D02*
Y233680D01*
Y202184D02*
Y221488D01*
Y163830D02*
Y190500D01*
Y130302D02*
Y149733D01*
Y108839D02*
Y113538D01*
Y83693D02*
Y88392D01*
Y65278D02*
Y72517D01*
X110744Y226441D02*
Y233680D01*
Y202184D02*
Y221488D01*
Y163703D02*
Y190627D01*
Y130175D02*
Y149733D01*
Y108712D02*
Y113538D01*
Y83693D02*
Y88392D01*
Y65278D02*
Y72517D01*
X110617Y226441D02*
Y233680D01*
Y202184D02*
Y221488D01*
Y163576D02*
Y190754D01*
Y130175D02*
Y149733D01*
Y108712D02*
Y113538D01*
Y83693D02*
Y88519D01*
Y65278D02*
Y72517D01*
X110490Y226441D02*
Y233680D01*
Y202184D02*
Y221488D01*
Y163449D02*
Y190881D01*
Y130048D02*
Y149733D01*
Y108585D02*
Y113538D01*
Y83693D02*
Y88519D01*
Y65278D02*
Y72517D01*
X110363Y226441D02*
Y233680D01*
Y202184D02*
Y221488D01*
Y163195D02*
Y191008D01*
Y129921D02*
Y149733D01*
Y108585D02*
Y113538D01*
Y83693D02*
Y88646D01*
Y65278D02*
Y72517D01*
X110236Y226441D02*
Y233680D01*
Y202184D02*
Y221488D01*
Y178054D02*
Y191135D01*
Y163068D02*
Y176149D01*
Y129794D02*
Y149733D01*
Y108458D02*
Y113665D01*
Y83566D02*
Y88646D01*
Y65278D02*
Y72517D01*
X110109Y226441D02*
Y233680D01*
Y202184D02*
Y221488D01*
Y179324D02*
Y191262D01*
Y162941D02*
Y174879D01*
Y129794D02*
Y149733D01*
Y108458D02*
Y113665D01*
Y83566D02*
Y88773D01*
Y65278D02*
Y72517D01*
X109982Y226441D02*
Y233680D01*
Y202184D02*
Y221488D01*
Y180086D02*
Y191389D01*
Y162814D02*
Y174117D01*
Y129667D02*
Y149733D01*
Y108458D02*
Y113665D01*
Y83566D02*
Y88773D01*
Y65278D02*
Y72517D01*
X109855Y226441D02*
Y233680D01*
Y202184D02*
Y221488D01*
Y180594D02*
Y191516D01*
Y162687D02*
Y173609D01*
Y129540D02*
Y149733D01*
Y108331D02*
Y113665D01*
Y83566D02*
Y88900D01*
Y65278D02*
Y72517D01*
X109728Y226441D02*
Y233680D01*
Y202184D02*
Y221488D01*
Y181102D02*
Y191643D01*
Y162560D02*
Y173101D01*
Y129540D02*
Y149733D01*
Y108331D02*
Y113665D01*
Y83566D02*
Y88900D01*
Y65278D02*
Y72517D01*
X109601Y226441D02*
Y233680D01*
Y202184D02*
Y221488D01*
Y181610D02*
Y191770D01*
Y162433D02*
Y172593D01*
Y129413D02*
Y149733D01*
Y108204D02*
Y113792D01*
Y83439D02*
Y89027D01*
Y65278D02*
Y72517D01*
X109474Y226441D02*
Y233680D01*
Y215519D02*
Y221488D01*
Y181864D02*
Y191897D01*
Y162306D02*
Y172339D01*
Y143764D02*
Y149733D01*
Y129413D02*
Y140081D01*
Y108204D02*
Y113792D01*
Y83439D02*
Y89027D01*
Y65278D02*
Y72517D01*
X109347Y226441D02*
Y233680D01*
Y215519D02*
Y221488D01*
Y182245D02*
Y192024D01*
Y162306D02*
Y171958D01*
Y143764D02*
Y149733D01*
Y129286D02*
Y139192D01*
Y108077D02*
Y113792D01*
Y83439D02*
Y89027D01*
Y65278D02*
Y72517D01*
X109220Y226441D02*
Y233680D01*
Y215519D02*
Y221488D01*
Y182626D02*
Y192151D01*
Y162179D02*
Y171577D01*
Y143764D02*
Y149733D01*
Y129159D02*
Y138430D01*
Y108077D02*
Y113792D01*
Y83439D02*
Y89154D01*
Y65278D02*
Y72517D01*
X109093Y226441D02*
Y233680D01*
Y215519D02*
Y221488D01*
Y182880D02*
Y192278D01*
Y162052D02*
Y171323D01*
Y143764D02*
Y149733D01*
Y129159D02*
Y137922D01*
Y107950D02*
Y113792D01*
Y83439D02*
Y89154D01*
Y65278D02*
Y72517D01*
X108966Y226441D02*
Y233680D01*
Y215519D02*
Y221488D01*
Y183134D02*
Y192405D01*
Y161925D02*
Y171069D01*
Y143764D02*
Y149733D01*
Y129032D02*
Y137541D01*
Y107950D02*
Y113919D01*
Y83439D02*
Y89281D01*
Y65278D02*
Y72517D01*
X108839Y226441D02*
Y233680D01*
Y215519D02*
Y221488D01*
Y183388D02*
Y192532D01*
Y161798D02*
Y170815D01*
Y143764D02*
Y149733D01*
Y129032D02*
Y137160D01*
Y107950D02*
Y113919D01*
Y83312D02*
Y89281D01*
Y65278D02*
Y72517D01*
X108712Y226441D02*
Y233680D01*
Y215519D02*
Y221488D01*
Y183769D02*
Y192659D01*
Y161671D02*
Y170561D01*
Y143764D02*
Y149733D01*
Y128905D02*
Y136906D01*
Y107823D02*
Y113919D01*
Y83312D02*
Y89408D01*
Y65278D02*
Y72517D01*
X108585Y226441D02*
Y233680D01*
Y215519D02*
Y221488D01*
Y183896D02*
Y192786D01*
Y161544D02*
Y170307D01*
Y143764D02*
Y149733D01*
Y128905D02*
Y136652D01*
Y107823D02*
Y113919D01*
Y83312D02*
Y89408D01*
Y65278D02*
Y72517D01*
X108458Y226441D02*
Y233680D01*
Y215519D02*
Y221488D01*
Y184150D02*
Y192913D01*
Y161417D02*
Y170053D01*
Y143764D02*
Y149733D01*
Y128905D02*
Y136398D01*
Y107696D02*
Y113919D01*
Y83312D02*
Y89535D01*
Y65278D02*
Y72517D01*
X108331Y226441D02*
Y233680D01*
Y215519D02*
Y221488D01*
Y184404D02*
Y192913D01*
Y161290D02*
Y169799D01*
Y143764D02*
Y149733D01*
Y128778D02*
Y136144D01*
Y107696D02*
Y114046D01*
Y83312D02*
Y89535D01*
Y65278D02*
Y72517D01*
X108204Y226441D02*
Y233680D01*
Y215519D02*
Y221488D01*
Y184531D02*
Y193040D01*
Y161290D02*
Y169672D01*
Y143764D02*
Y149733D01*
Y128778D02*
Y135890D01*
Y107569D02*
Y114046D01*
Y83312D02*
Y89662D01*
Y65278D02*
Y72517D01*
X108077Y226441D02*
Y233680D01*
Y215519D02*
Y221488D01*
Y184785D02*
Y193167D01*
Y161163D02*
Y169418D01*
Y143764D02*
Y149733D01*
Y128651D02*
Y135763D01*
Y107569D02*
Y114046D01*
Y83185D02*
Y89662D01*
Y65278D02*
Y72517D01*
X107950Y226441D02*
Y233680D01*
Y215519D02*
Y221488D01*
Y185039D02*
Y193294D01*
Y161036D02*
Y169291D01*
Y143764D02*
Y149733D01*
Y128651D02*
Y135636D01*
Y107442D02*
Y114046D01*
Y83185D02*
Y89789D01*
Y65278D02*
Y72517D01*
X107823Y226441D02*
Y233680D01*
Y215519D02*
Y221488D01*
Y185166D02*
Y193294D01*
Y160909D02*
Y169037D01*
Y143764D02*
Y149733D01*
Y128651D02*
Y135382D01*
Y107442D02*
Y114046D01*
Y83185D02*
Y89789D01*
Y65278D02*
Y72517D01*
X107696Y226441D02*
Y233680D01*
Y215519D02*
Y221488D01*
Y185293D02*
Y193421D01*
Y160909D02*
Y168910D01*
Y143764D02*
Y149733D01*
Y128524D02*
Y135255D01*
Y107442D02*
Y114173D01*
Y83185D02*
Y89789D01*
Y65278D02*
Y72517D01*
X107569Y226441D02*
Y233680D01*
Y215519D02*
Y221488D01*
Y185547D02*
Y193548D01*
Y160782D02*
Y168783D01*
Y143764D02*
Y149733D01*
Y128524D02*
Y135128D01*
Y107315D02*
Y114173D01*
Y83185D02*
Y89916D01*
Y65278D02*
Y72517D01*
X107442Y226441D02*
Y233680D01*
Y215519D02*
Y221488D01*
Y185674D02*
Y193675D01*
Y160655D02*
Y168529D01*
Y143764D02*
Y149733D01*
Y128524D02*
Y135001D01*
Y107315D02*
Y114173D01*
Y83058D02*
Y89916D01*
Y65278D02*
Y72517D01*
X107315Y226441D02*
Y233680D01*
Y215519D02*
Y221488D01*
Y185801D02*
Y193675D01*
Y160528D02*
Y168402D01*
Y143764D02*
Y149733D01*
Y128397D02*
Y134874D01*
Y107188D02*
Y114173D01*
Y83058D02*
Y90043D01*
Y65278D02*
Y72517D01*
X107188Y226441D02*
Y233680D01*
Y215519D02*
Y221488D01*
Y186055D02*
Y193802D01*
Y160528D02*
Y168275D01*
Y143764D02*
Y149733D01*
Y128397D02*
Y134874D01*
Y107188D02*
Y114173D01*
Y83058D02*
Y90043D01*
Y65278D02*
Y72517D01*
X107061Y226441D02*
Y233680D01*
Y215519D02*
Y221488D01*
Y186182D02*
Y193929D01*
Y160401D02*
Y168021D01*
Y143764D02*
Y149733D01*
Y128397D02*
Y134747D01*
Y107061D02*
Y114300D01*
Y83058D02*
Y90170D01*
Y65278D02*
Y72517D01*
X106934Y226441D02*
Y233680D01*
Y215519D02*
Y221488D01*
Y186309D02*
Y194056D01*
Y160274D02*
Y167894D01*
Y143764D02*
Y149733D01*
Y128397D02*
Y134620D01*
Y107061D02*
Y114300D01*
Y83058D02*
Y90170D01*
Y65278D02*
Y72517D01*
X106807Y226441D02*
Y233680D01*
Y215519D02*
Y221488D01*
Y186436D02*
Y194056D01*
Y160147D02*
Y167767D01*
Y143764D02*
Y149733D01*
Y128270D02*
Y134620D01*
Y107061D02*
Y114300D01*
Y83058D02*
Y90297D01*
Y65278D02*
Y72517D01*
X106680Y226441D02*
Y233680D01*
Y215519D02*
Y221488D01*
Y186563D02*
Y194183D01*
Y160147D02*
Y167640D01*
Y143764D02*
Y149733D01*
Y128270D02*
Y134493D01*
Y106934D02*
Y114300D01*
Y82931D02*
Y90297D01*
Y65278D02*
Y72517D01*
X106553Y226441D02*
Y233680D01*
Y215519D02*
Y221488D01*
Y186690D02*
Y194310D01*
Y160020D02*
Y167513D01*
Y143764D02*
Y149733D01*
Y128270D02*
Y134366D01*
Y106934D02*
Y114300D01*
Y82931D02*
Y90424D01*
Y65278D02*
Y72517D01*
X106426Y226441D02*
Y233680D01*
Y215519D02*
Y221488D01*
Y186817D02*
Y194310D01*
Y159893D02*
Y167386D01*
Y143764D02*
Y149733D01*
Y128143D02*
Y134366D01*
Y106807D02*
Y114300D01*
Y82931D02*
Y90424D01*
Y65278D02*
Y72517D01*
X106299Y226441D02*
Y233680D01*
Y215519D02*
Y221488D01*
Y186944D02*
Y194437D01*
Y159893D02*
Y167259D01*
Y143764D02*
Y149733D01*
Y128143D02*
Y134239D01*
Y106807D02*
Y114427D01*
Y82931D02*
Y90424D01*
Y65278D02*
Y72517D01*
X106172Y226441D02*
Y233680D01*
Y215519D02*
Y221488D01*
Y187071D02*
Y194437D01*
Y159766D02*
Y167132D01*
Y143764D02*
Y149733D01*
Y128143D02*
Y134239D01*
Y106680D02*
Y114427D01*
Y82931D02*
Y90551D01*
Y65278D02*
Y72517D01*
X106045Y226441D02*
Y233680D01*
Y215519D02*
Y221488D01*
Y187325D02*
Y194564D01*
Y159766D02*
Y167005D01*
Y143764D02*
Y149733D01*
Y128143D02*
Y134112D01*
Y106680D02*
Y114427D01*
Y82931D02*
Y90551D01*
Y65278D02*
Y72517D01*
X105918Y226441D02*
Y233680D01*
Y215519D02*
Y221488D01*
Y187325D02*
Y194691D01*
Y159639D02*
Y166878D01*
Y143764D02*
Y149733D01*
Y128143D02*
Y134112D01*
Y106553D02*
Y114427D01*
Y82804D02*
Y90678D01*
Y65278D02*
Y72517D01*
X105791Y226441D02*
Y233680D01*
Y215519D02*
Y221488D01*
Y187452D02*
Y194691D01*
Y159512D02*
Y166751D01*
Y143764D02*
Y149733D01*
Y128143D02*
Y134112D01*
Y106553D02*
Y114427D01*
Y82804D02*
Y90678D01*
Y65278D02*
Y72517D01*
X105664Y226441D02*
Y233680D01*
Y215519D02*
Y221488D01*
Y187579D02*
Y194818D01*
Y159512D02*
Y166624D01*
Y143764D02*
Y149733D01*
Y128143D02*
Y133985D01*
Y106553D02*
Y114554D01*
Y82804D02*
Y90805D01*
Y65278D02*
Y72517D01*
X105537Y226441D02*
Y233680D01*
Y215519D02*
Y221488D01*
Y187706D02*
Y194945D01*
Y159385D02*
Y166497D01*
Y143764D02*
Y149733D01*
Y128016D02*
Y133985D01*
Y106426D02*
Y114554D01*
Y82804D02*
Y90805D01*
Y65278D02*
Y72517D01*
X105410Y226441D02*
Y233680D01*
Y215519D02*
Y221488D01*
Y187833D02*
Y194945D01*
Y159385D02*
Y166370D01*
Y143764D02*
Y149733D01*
Y128016D02*
Y133985D01*
Y106426D02*
Y114554D01*
Y82804D02*
Y90932D01*
Y65278D02*
Y72517D01*
X105283Y226441D02*
Y233680D01*
Y215519D02*
Y221488D01*
Y187960D02*
Y195072D01*
Y159258D02*
Y166243D01*
Y143764D02*
Y149733D01*
Y128016D02*
Y133985D01*
Y106299D02*
Y114554D01*
Y82804D02*
Y90932D01*
Y65278D02*
Y72517D01*
X105156Y226441D02*
Y233680D01*
Y215519D02*
Y221488D01*
Y188087D02*
Y195072D01*
Y159131D02*
Y166116D01*
Y143764D02*
Y149733D01*
Y128016D02*
Y133858D01*
Y106299D02*
Y114554D01*
Y82677D02*
Y91059D01*
Y65278D02*
Y72517D01*
X105029Y226441D02*
Y233680D01*
Y215519D02*
Y221488D01*
Y188214D02*
Y195199D01*
Y159131D02*
Y166116D01*
Y143764D02*
Y149733D01*
Y128016D02*
Y133858D01*
Y106172D02*
Y114681D01*
Y82677D02*
Y91059D01*
Y65278D02*
Y72517D01*
X104902Y226441D02*
Y233680D01*
Y215519D02*
Y221488D01*
Y188341D02*
Y195199D01*
Y159004D02*
Y165989D01*
Y143764D02*
Y149733D01*
Y128016D02*
Y133858D01*
Y106172D02*
Y114681D01*
Y82677D02*
Y91059D01*
Y65278D02*
Y72517D01*
X104775Y226441D02*
Y233680D01*
Y215519D02*
Y221488D01*
Y188341D02*
Y195326D01*
Y159004D02*
Y165862D01*
Y143764D02*
Y149733D01*
Y128016D02*
Y133858D01*
Y106045D02*
Y114681D01*
Y82677D02*
Y91186D01*
Y65278D02*
Y72517D01*
X104648Y226441D02*
Y233680D01*
Y215519D02*
Y221488D01*
Y188468D02*
Y195326D01*
Y159004D02*
Y165735D01*
Y143764D02*
Y149733D01*
Y128016D02*
Y133858D01*
Y106045D02*
Y114681D01*
Y82677D02*
Y91186D01*
Y65278D02*
Y72517D01*
X104521Y226441D02*
Y233680D01*
Y215519D02*
Y221488D01*
Y188595D02*
Y195453D01*
Y158877D02*
Y165735D01*
Y143764D02*
Y149733D01*
Y128016D02*
Y133858D01*
Y106045D02*
Y114681D01*
Y82550D02*
Y91313D01*
Y65278D02*
Y72517D01*
X104394Y226441D02*
Y233680D01*
Y215519D02*
Y221488D01*
Y188722D02*
Y195453D01*
Y158877D02*
Y165608D01*
Y143764D02*
Y149733D01*
Y128016D02*
Y133731D01*
Y105918D02*
Y114808D01*
Y82550D02*
Y91313D01*
Y65278D02*
Y72517D01*
X104267Y226441D02*
Y233680D01*
Y215519D02*
Y221488D01*
Y188722D02*
Y195580D01*
Y158750D02*
Y165481D01*
Y143764D02*
Y149733D01*
Y128016D02*
Y133731D01*
Y105918D02*
Y114808D01*
Y82550D02*
Y91440D01*
Y65278D02*
Y72517D01*
X104140Y226441D02*
Y233680D01*
Y215519D02*
Y221488D01*
Y188849D02*
Y195580D01*
Y158750D02*
Y165354D01*
Y143764D02*
Y149733D01*
Y128016D02*
Y133731D01*
Y105791D02*
Y114808D01*
Y82550D02*
Y91440D01*
Y65278D02*
Y72517D01*
X104013Y226441D02*
Y233680D01*
Y215519D02*
Y221488D01*
Y188976D02*
Y195707D01*
Y158623D02*
Y165354D01*
Y143764D02*
Y149733D01*
Y127889D02*
Y133731D01*
Y105791D02*
Y114808D01*
Y82550D02*
Y91567D01*
Y65278D02*
Y72517D01*
X103886Y226441D02*
Y233680D01*
Y215519D02*
Y221488D01*
Y189103D02*
Y195707D01*
Y158623D02*
Y165227D01*
Y143764D02*
Y149733D01*
Y127889D02*
Y133731D01*
Y105664D02*
Y114808D01*
Y82550D02*
Y91567D01*
Y65278D02*
Y72517D01*
X103759Y226441D02*
Y233680D01*
Y215519D02*
Y221488D01*
Y189103D02*
Y195834D01*
Y158496D02*
Y165100D01*
Y143764D02*
Y149733D01*
Y127889D02*
Y133731D01*
Y105664D02*
Y114935D01*
Y82423D02*
Y91694D01*
Y65278D02*
Y72517D01*
X103632Y226441D02*
Y233680D01*
Y215519D02*
Y221488D01*
Y189230D02*
Y195834D01*
Y158496D02*
Y165100D01*
Y143764D02*
Y149733D01*
Y127889D02*
Y133731D01*
Y105537D02*
Y114935D01*
Y82423D02*
Y91694D01*
Y65278D02*
Y72517D01*
X103505Y226441D02*
Y233680D01*
Y215519D02*
Y221488D01*
Y189230D02*
Y195961D01*
Y158369D02*
Y164973D01*
Y143764D02*
Y149733D01*
Y127889D02*
Y133731D01*
Y105537D02*
Y114935D01*
Y82423D02*
Y91821D01*
Y65278D02*
Y72517D01*
X103378Y226441D02*
Y233680D01*
Y215519D02*
Y221488D01*
Y189357D02*
Y195961D01*
Y158369D02*
Y164973D01*
Y143764D02*
Y149733D01*
Y128016D02*
Y133731D01*
Y105537D02*
Y114935D01*
Y82423D02*
Y91821D01*
Y65278D02*
Y72517D01*
X103251Y226441D02*
Y233680D01*
Y215519D02*
Y221488D01*
Y189484D02*
Y195961D01*
Y158242D02*
Y164846D01*
Y143764D02*
Y149733D01*
Y128016D02*
Y133731D01*
Y105410D02*
Y114935D01*
Y82423D02*
Y91821D01*
Y65278D02*
Y72517D01*
X103124Y226441D02*
Y233680D01*
Y215519D02*
Y221488D01*
Y189484D02*
Y196088D01*
Y158242D02*
Y164719D01*
Y143764D02*
Y149733D01*
Y128016D02*
Y133731D01*
Y105410D02*
Y115062D01*
Y82423D02*
Y91948D01*
Y65278D02*
Y72517D01*
X102997Y226441D02*
Y233680D01*
Y215519D02*
Y221488D01*
Y189611D02*
Y196088D01*
Y158242D02*
Y164719D01*
Y143764D02*
Y149733D01*
Y128016D02*
Y133731D01*
Y105283D02*
Y115062D01*
Y82296D02*
Y91948D01*
Y65278D02*
Y72517D01*
X102870Y226441D02*
Y233680D01*
Y215519D02*
Y221488D01*
Y189611D02*
Y196088D01*
Y158115D02*
Y164592D01*
Y143764D02*
Y149733D01*
Y128016D02*
Y133731D01*
Y105283D02*
Y115062D01*
Y82296D02*
Y92075D01*
Y65278D02*
Y72517D01*
X102743Y226441D02*
Y233680D01*
Y215519D02*
Y221488D01*
Y189738D02*
Y196215D01*
Y158115D02*
Y164592D01*
Y143764D02*
Y149733D01*
Y128016D02*
Y133858D01*
Y105156D02*
Y115062D01*
Y82296D02*
Y92075D01*
Y65278D02*
Y72517D01*
X102616Y226441D02*
Y233680D01*
Y215519D02*
Y221488D01*
Y189738D02*
Y196215D01*
Y158115D02*
Y164465D01*
Y143764D02*
Y149733D01*
Y128016D02*
Y133858D01*
Y105156D02*
Y115062D01*
Y82296D02*
Y92202D01*
Y65278D02*
Y72517D01*
X102489Y226441D02*
Y233680D01*
Y215519D02*
Y221488D01*
Y189865D02*
Y196342D01*
Y157988D02*
Y164465D01*
Y143764D02*
Y149733D01*
Y128016D02*
Y133858D01*
Y105156D02*
Y115189D01*
Y82296D02*
Y92202D01*
Y65278D02*
Y72517D01*
X102362Y226441D02*
Y233680D01*
Y215519D02*
Y221488D01*
Y189865D02*
Y196342D01*
Y157988D02*
Y164338D01*
Y143764D02*
Y149733D01*
Y128016D02*
Y133858D01*
Y105029D02*
Y115189D01*
Y82169D02*
Y92329D01*
Y65278D02*
Y72517D01*
X102235Y226441D02*
Y233680D01*
Y215519D02*
Y221488D01*
Y189992D02*
Y196342D01*
Y157988D02*
Y164338D01*
Y143764D02*
Y149733D01*
Y128016D02*
Y133858D01*
Y105029D02*
Y115189D01*
Y82169D02*
Y92329D01*
Y65278D02*
Y72517D01*
X102108Y226441D02*
Y233680D01*
Y215519D02*
Y221488D01*
Y189992D02*
Y196469D01*
Y157861D02*
Y164211D01*
Y143764D02*
Y149733D01*
Y128016D02*
Y133858D01*
Y104902D02*
Y115189D01*
Y82169D02*
Y92456D01*
Y65278D02*
Y72517D01*
X101981Y226441D02*
Y233680D01*
Y215519D02*
Y221488D01*
Y190119D02*
Y196469D01*
Y157861D02*
Y164211D01*
Y143764D02*
Y149733D01*
Y128016D02*
Y133985D01*
Y104902D02*
Y115189D01*
Y82169D02*
Y92456D01*
Y65278D02*
Y72517D01*
X101854Y226441D02*
Y233680D01*
Y215519D02*
Y221488D01*
Y190119D02*
Y196469D01*
Y157734D02*
Y164084D01*
Y143764D02*
Y149733D01*
Y128016D02*
Y133985D01*
Y104775D02*
Y115316D01*
Y82169D02*
Y92456D01*
Y65278D02*
Y72517D01*
X101727Y226441D02*
Y233680D01*
Y215519D02*
Y221488D01*
Y190246D02*
Y196596D01*
Y157734D02*
Y164084D01*
Y143764D02*
Y149733D01*
Y128143D02*
Y133985D01*
Y104775D02*
Y115316D01*
Y82169D02*
Y92583D01*
Y65278D02*
Y72517D01*
X101600Y226441D02*
Y233680D01*
Y215519D02*
Y221488D01*
Y190246D02*
Y196596D01*
Y157734D02*
Y163957D01*
Y143764D02*
Y149733D01*
Y128143D02*
Y133985D01*
Y104648D02*
Y115316D01*
Y82042D02*
Y92583D01*
Y65278D02*
Y72517D01*
X101473Y226441D02*
Y233680D01*
Y215519D02*
Y221488D01*
Y190373D02*
Y196596D01*
Y157734D02*
Y163957D01*
Y143764D02*
Y149733D01*
Y128143D02*
Y134112D01*
Y104648D02*
Y115316D01*
Y82042D02*
Y92710D01*
Y65278D02*
Y72517D01*
X101346Y226441D02*
Y233680D01*
Y215519D02*
Y221488D01*
Y190373D02*
Y196596D01*
Y157607D02*
Y163957D01*
Y143764D02*
Y149733D01*
Y128143D02*
Y134112D01*
Y104648D02*
Y115316D01*
Y82042D02*
Y92710D01*
Y65278D02*
Y72517D01*
X101219Y226441D02*
Y233680D01*
Y215519D02*
Y221488D01*
Y190373D02*
Y196723D01*
Y157607D02*
Y163830D01*
Y143764D02*
Y149733D01*
Y128143D02*
Y134112D01*
Y104521D02*
Y115443D01*
Y82042D02*
Y92837D01*
Y65278D02*
Y72517D01*
X101092Y226441D02*
Y233680D01*
Y215519D02*
Y221488D01*
Y190500D02*
Y196723D01*
Y157607D02*
Y163830D01*
Y143764D02*
Y149733D01*
Y128270D02*
Y134239D01*
Y104521D02*
Y115443D01*
Y82042D02*
Y92837D01*
Y65278D02*
Y72517D01*
X100965Y226441D02*
Y233680D01*
Y215519D02*
Y221488D01*
Y190500D02*
Y196723D01*
Y157607D02*
Y163830D01*
Y143764D02*
Y149733D01*
Y128270D02*
Y134239D01*
Y104394D02*
Y115443D01*
Y82042D02*
Y92964D01*
Y65278D02*
Y72517D01*
X100838Y226441D02*
Y233680D01*
Y215519D02*
Y221488D01*
Y190500D02*
Y196723D01*
Y157480D02*
Y163703D01*
Y143764D02*
Y149733D01*
Y128270D02*
Y134366D01*
Y104394D02*
Y115443D01*
Y81915D02*
Y92964D01*
Y65278D02*
Y72517D01*
X100711Y226441D02*
Y233680D01*
Y215519D02*
Y221488D01*
Y190627D02*
Y196850D01*
Y157480D02*
Y163703D01*
Y143764D02*
Y149733D01*
Y128270D02*
Y134366D01*
Y104267D02*
Y115443D01*
Y81915D02*
Y93091D01*
Y65278D02*
Y72517D01*
X100584Y226441D02*
Y233680D01*
Y215519D02*
Y221488D01*
Y190627D02*
Y196850D01*
Y157480D02*
Y163576D01*
Y143764D02*
Y149733D01*
Y128397D02*
Y134493D01*
Y104267D02*
Y115443D01*
Y81915D02*
Y93091D01*
Y65278D02*
Y72517D01*
X100457Y226441D02*
Y233680D01*
Y215519D02*
Y221488D01*
Y190627D02*
Y196850D01*
Y157480D02*
Y163576D01*
Y143764D02*
Y149733D01*
Y128397D02*
Y134493D01*
Y104140D02*
Y115570D01*
Y81915D02*
Y93218D01*
Y65278D02*
Y72517D01*
X100330Y226441D02*
Y233680D01*
Y202565D02*
Y221488D01*
Y190754D02*
Y196850D01*
Y157353D02*
Y163576D01*
Y143764D02*
Y149733D01*
Y128397D02*
Y134620D01*
Y104140D02*
Y115570D01*
Y81915D02*
Y93218D01*
Y65278D02*
Y72517D01*
X100203Y226441D02*
Y233680D01*
Y202565D02*
Y221488D01*
Y190754D02*
Y196977D01*
Y157353D02*
Y163449D01*
Y143764D02*
Y149733D01*
Y128397D02*
Y134747D01*
Y104140D02*
Y115570D01*
Y81788D02*
Y93218D01*
Y65278D02*
Y72517D01*
X100076Y226441D02*
Y233680D01*
Y202565D02*
Y221488D01*
Y190754D02*
Y196977D01*
Y157353D02*
Y163449D01*
Y143764D02*
Y149733D01*
Y128524D02*
Y134747D01*
Y104013D02*
Y115570D01*
Y81788D02*
Y93345D01*
Y65278D02*
Y72517D01*
X99949Y226441D02*
Y233680D01*
Y202565D02*
Y221488D01*
Y190881D02*
Y196977D01*
Y157353D02*
Y163449D01*
Y143764D02*
Y149733D01*
Y128524D02*
Y134874D01*
Y104013D02*
Y115570D01*
Y81788D02*
Y93345D01*
Y65278D02*
Y72517D01*
X99822Y226441D02*
Y233680D01*
Y202565D02*
Y221488D01*
Y190881D02*
Y196977D01*
Y157226D02*
Y163449D01*
Y143764D02*
Y149733D01*
Y128524D02*
Y135001D01*
Y103886D02*
Y115697D01*
Y81788D02*
Y93472D01*
Y65278D02*
Y72517D01*
X99695Y226441D02*
Y233680D01*
Y202565D02*
Y221488D01*
Y190881D02*
Y196977D01*
Y157226D02*
Y163322D01*
Y143764D02*
Y149733D01*
Y128651D02*
Y135128D01*
Y103886D02*
Y115697D01*
Y81788D02*
Y93472D01*
Y65278D02*
Y72517D01*
X99568Y226441D02*
Y233680D01*
Y202565D02*
Y221488D01*
Y190881D02*
Y197104D01*
Y157226D02*
Y163322D01*
Y143764D02*
Y149733D01*
Y128651D02*
Y135255D01*
Y103759D02*
Y115697D01*
Y81788D02*
Y93599D01*
Y65278D02*
Y72517D01*
X99441Y226441D02*
Y233680D01*
Y202565D02*
Y221488D01*
Y191008D02*
Y197104D01*
Y157226D02*
Y163322D01*
Y143764D02*
Y149733D01*
Y128651D02*
Y135255D01*
Y109982D02*
Y115697D01*
Y103759D02*
Y109855D01*
Y81661D02*
Y93599D01*
Y65278D02*
Y72517D01*
X99314Y226441D02*
Y233680D01*
Y202565D02*
Y221488D01*
Y191008D02*
Y197104D01*
Y157226D02*
Y163322D01*
Y143764D02*
Y149733D01*
Y128778D02*
Y135509D01*
Y109982D02*
Y115697D01*
Y103632D02*
Y109855D01*
Y87630D02*
Y93726D01*
Y81661D02*
Y87503D01*
Y65278D02*
Y72517D01*
X99187Y226441D02*
Y233680D01*
Y202565D02*
Y221488D01*
Y191008D02*
Y197104D01*
Y157226D02*
Y163322D01*
Y143764D02*
Y149733D01*
Y128778D02*
Y135636D01*
Y109982D02*
Y115824D01*
Y103632D02*
Y109728D01*
Y87630D02*
Y93726D01*
Y81661D02*
Y87376D01*
Y65278D02*
Y72517D01*
X99060Y226441D02*
Y233680D01*
Y202565D02*
Y221488D01*
Y191008D02*
Y197104D01*
Y157226D02*
Y163195D01*
Y143764D02*
Y149733D01*
Y128905D02*
Y135763D01*
Y109982D02*
Y115824D01*
Y103632D02*
Y109728D01*
Y87757D02*
Y93853D01*
Y81661D02*
Y87376D01*
Y65278D02*
Y72517D01*
X98933Y226441D02*
Y233680D01*
Y202565D02*
Y221488D01*
Y191135D02*
Y197104D01*
Y157099D02*
Y163195D01*
Y143764D02*
Y149733D01*
Y128905D02*
Y135890D01*
Y110109D02*
Y115824D01*
Y103505D02*
Y109728D01*
Y87757D02*
Y93853D01*
Y81661D02*
Y87376D01*
Y65278D02*
Y72517D01*
X98806Y226441D02*
Y233680D01*
Y202565D02*
Y221488D01*
Y191135D02*
Y197104D01*
Y157099D02*
Y163195D01*
Y143764D02*
Y149733D01*
Y129032D02*
Y136144D01*
Y110109D02*
Y115824D01*
Y103505D02*
Y109601D01*
Y87757D02*
Y93853D01*
Y81661D02*
Y87376D01*
Y65278D02*
Y72517D01*
X98679Y226441D02*
Y233680D01*
Y202565D02*
Y221488D01*
Y191135D02*
Y197231D01*
Y157099D02*
Y163195D01*
Y143764D02*
Y149733D01*
Y129032D02*
Y136271D01*
Y110109D02*
Y115824D01*
Y103378D02*
Y109601D01*
Y87884D02*
Y93980D01*
Y81534D02*
Y87376D01*
Y65278D02*
Y72517D01*
X98552Y226441D02*
Y233680D01*
Y202565D02*
Y221488D01*
Y191135D02*
Y197231D01*
Y157099D02*
Y163068D01*
Y143764D02*
Y149733D01*
Y129159D02*
Y136525D01*
Y110109D02*
Y115951D01*
Y103378D02*
Y109474D01*
Y87884D02*
Y93980D01*
Y81534D02*
Y87376D01*
Y65278D02*
Y72517D01*
X98425Y226441D02*
Y233680D01*
Y202565D02*
Y221488D01*
Y191135D02*
Y197231D01*
Y157099D02*
Y163068D01*
Y143764D02*
Y149733D01*
Y129159D02*
Y136779D01*
Y110109D02*
Y115951D01*
Y103251D02*
Y109474D01*
Y88011D02*
Y94107D01*
Y81534D02*
Y87249D01*
Y65278D02*
Y72517D01*
X98298Y226441D02*
Y233680D01*
Y202565D02*
Y221488D01*
Y191135D02*
Y197231D01*
Y157099D02*
Y163068D01*
Y143764D02*
Y149733D01*
Y129159D02*
Y137033D01*
Y110236D02*
Y115951D01*
Y103251D02*
Y109347D01*
Y88011D02*
Y94107D01*
Y81534D02*
Y87249D01*
Y65278D02*
Y72517D01*
X98171Y226441D02*
Y233680D01*
Y202565D02*
Y221488D01*
Y191135D02*
Y197231D01*
Y157099D02*
Y163068D01*
Y143764D02*
Y149733D01*
Y129286D02*
Y137287D01*
Y110236D02*
Y115951D01*
Y103124D02*
Y109347D01*
Y88138D02*
Y94234D01*
Y81534D02*
Y87249D01*
Y65278D02*
Y72517D01*
X98044Y226441D02*
Y233680D01*
Y202565D02*
Y221488D01*
Y191262D02*
Y197231D01*
Y156972D02*
Y163068D01*
Y143764D02*
Y149733D01*
Y129413D02*
Y137668D01*
Y110236D02*
Y115951D01*
Y103124D02*
Y109220D01*
Y88138D02*
Y94234D01*
Y81407D02*
Y87249D01*
Y65278D02*
Y72517D01*
X97917Y226441D02*
Y233680D01*
Y202565D02*
Y221488D01*
Y191262D02*
Y197231D01*
Y156972D02*
Y163068D01*
Y143764D02*
Y149733D01*
Y129413D02*
Y138049D01*
Y110236D02*
Y116078D01*
Y103124D02*
Y109220D01*
Y88265D02*
Y94361D01*
Y81407D02*
Y87249D01*
Y65278D02*
Y72517D01*
X97790Y226441D02*
Y233680D01*
Y202565D02*
Y221488D01*
Y191262D02*
Y197231D01*
Y156972D02*
Y163068D01*
Y143764D02*
Y149733D01*
Y129540D02*
Y138557D01*
Y110236D02*
Y116078D01*
Y102997D02*
Y109220D01*
Y88265D02*
Y94361D01*
Y81407D02*
Y87249D01*
Y65278D02*
Y72517D01*
X97663Y226441D02*
Y233680D01*
Y202565D02*
Y221488D01*
Y191262D02*
Y197358D01*
Y156972D02*
Y163068D01*
Y143764D02*
Y149733D01*
Y129540D02*
Y139319D01*
Y110236D02*
Y116078D01*
Y102997D02*
Y109093D01*
Y88392D02*
Y94488D01*
Y81407D02*
Y87122D01*
Y65278D02*
Y72517D01*
X97536Y226441D02*
Y233680D01*
Y202565D02*
Y221488D01*
Y191262D02*
Y197358D01*
Y156972D02*
Y162941D01*
Y143764D02*
Y149733D01*
Y129667D02*
Y139954D01*
Y110363D02*
Y116078D01*
Y102870D02*
Y109093D01*
Y88392D02*
Y94488D01*
Y81407D02*
Y87122D01*
Y65278D02*
Y72517D01*
X97409Y226441D02*
Y233680D01*
Y202565D02*
Y221488D01*
Y191262D02*
Y197358D01*
Y156972D02*
Y162941D01*
Y129794D02*
Y149733D01*
Y110363D02*
Y116078D01*
Y102870D02*
Y108966D01*
Y88392D02*
Y94488D01*
Y81407D02*
Y87122D01*
Y65278D02*
Y72517D01*
X97282Y226441D02*
Y233680D01*
Y202565D02*
Y221488D01*
Y191262D02*
Y197358D01*
Y156972D02*
Y162941D01*
Y129794D02*
Y149733D01*
Y110363D02*
Y116205D01*
Y102743D02*
Y108966D01*
Y88519D02*
Y94615D01*
Y81280D02*
Y87122D01*
Y65278D02*
Y72517D01*
X97155Y226441D02*
Y233680D01*
Y202565D02*
Y221488D01*
Y191262D02*
Y197358D01*
Y156972D02*
Y162941D01*
Y129921D02*
Y149733D01*
Y110363D02*
Y116205D01*
Y102743D02*
Y108839D01*
Y88519D02*
Y94615D01*
Y81280D02*
Y87122D01*
Y65278D02*
Y72517D01*
X97028Y226441D02*
Y233680D01*
Y202565D02*
Y221488D01*
Y191262D02*
Y197358D01*
Y156972D02*
Y162941D01*
Y130048D02*
Y149733D01*
Y110363D02*
Y116205D01*
Y102743D02*
Y108839D01*
Y88646D02*
Y94742D01*
Y81280D02*
Y87122D01*
Y65278D02*
Y72517D01*
X96901Y226441D02*
Y233680D01*
Y202565D02*
Y221488D01*
Y191389D02*
Y197358D01*
Y156972D02*
Y162941D01*
Y130175D02*
Y149733D01*
Y110363D02*
Y116205D01*
Y102616D02*
Y108712D01*
Y88646D02*
Y94742D01*
Y81280D02*
Y86995D01*
Y65278D02*
Y72517D01*
X96774Y226441D02*
Y233680D01*
Y202565D02*
Y221488D01*
Y191389D02*
Y197358D01*
Y156972D02*
Y162941D01*
Y130175D02*
Y149733D01*
Y110490D02*
Y116205D01*
Y102616D02*
Y108712D01*
Y88773D02*
Y94869D01*
Y81280D02*
Y86995D01*
Y65278D02*
Y72517D01*
X96647Y226441D02*
Y233680D01*
Y202565D02*
Y221488D01*
Y191389D02*
Y197358D01*
Y156972D02*
Y162941D01*
Y130302D02*
Y149733D01*
Y110490D02*
Y116332D01*
Y102489D02*
Y108712D01*
Y88773D02*
Y94869D01*
Y81280D02*
Y86995D01*
Y65278D02*
Y72517D01*
X96520Y226441D02*
Y233680D01*
Y202565D02*
Y221488D01*
Y191389D02*
Y197358D01*
Y156972D02*
Y162941D01*
Y130429D02*
Y149733D01*
Y110490D02*
Y116332D01*
Y102489D02*
Y108585D01*
Y88900D02*
Y94996D01*
Y81153D02*
Y86995D01*
Y65278D02*
Y72517D01*
X96393Y226441D02*
Y233680D01*
Y202565D02*
Y221488D01*
Y191389D02*
Y197358D01*
Y156972D02*
Y162941D01*
Y130556D02*
Y149733D01*
Y110490D02*
Y116332D01*
Y102362D02*
Y108585D01*
Y88900D02*
Y94996D01*
Y81153D02*
Y86995D01*
Y65278D02*
Y72517D01*
X96266Y226441D02*
Y233680D01*
Y202565D02*
Y221488D01*
Y191389D02*
Y197358D01*
Y156972D02*
Y162941D01*
Y130683D02*
Y149733D01*
Y110490D02*
Y116332D01*
Y102362D02*
Y108458D01*
Y89027D02*
Y95123D01*
Y81153D02*
Y86995D01*
Y65278D02*
Y72517D01*
X96139Y226441D02*
Y233680D01*
Y202565D02*
Y221488D01*
Y191389D02*
Y197358D01*
Y156972D02*
Y162941D01*
Y130683D02*
Y149733D01*
Y110617D02*
Y116332D01*
Y102235D02*
Y108458D01*
Y89027D02*
Y95123D01*
Y81153D02*
Y86995D01*
Y65278D02*
Y72517D01*
X96012Y226441D02*
Y233680D01*
Y202565D02*
Y221488D01*
Y191389D02*
Y197358D01*
Y156845D02*
Y162941D01*
Y130810D02*
Y149733D01*
Y110617D02*
Y116459D01*
Y102235D02*
Y108331D01*
Y89027D02*
Y95250D01*
Y81153D02*
Y86868D01*
Y65278D02*
Y72517D01*
X95885Y226441D02*
Y233680D01*
Y202565D02*
Y221488D01*
Y191389D02*
Y197358D01*
Y156845D02*
Y162941D01*
Y130937D02*
Y149733D01*
Y110617D02*
Y116459D01*
Y102235D02*
Y108331D01*
Y89154D02*
Y95250D01*
Y81026D02*
Y86868D01*
Y65278D02*
Y72517D01*
X95758Y226441D02*
Y233680D01*
Y202565D02*
Y221488D01*
Y191389D02*
Y197358D01*
Y156845D02*
Y162941D01*
Y131064D02*
Y149733D01*
Y110617D02*
Y116459D01*
Y102108D02*
Y108204D01*
Y89154D02*
Y95250D01*
Y81026D02*
Y86868D01*
Y65278D02*
Y72517D01*
X95631Y226441D02*
Y233680D01*
Y202565D02*
Y221488D01*
Y191389D02*
Y197358D01*
Y156845D02*
Y162941D01*
Y131191D02*
Y149733D01*
Y110617D02*
Y116459D01*
Y102108D02*
Y108204D01*
Y89281D02*
Y95377D01*
Y81026D02*
Y86868D01*
Y65278D02*
Y72517D01*
X95504Y226441D02*
Y233680D01*
Y202565D02*
Y221488D01*
Y191389D02*
Y197358D01*
Y156845D02*
Y162941D01*
Y131318D02*
Y149733D01*
Y110617D02*
Y116459D01*
Y101981D02*
Y108204D01*
Y89281D02*
Y95377D01*
Y81026D02*
Y86868D01*
Y65278D02*
Y72517D01*
X95377Y226441D02*
Y233680D01*
Y202565D02*
Y221488D01*
Y191389D02*
Y197358D01*
Y156972D02*
Y162941D01*
Y131445D02*
Y149733D01*
Y110744D02*
Y116586D01*
Y101981D02*
Y108077D01*
Y89408D02*
Y95504D01*
Y81026D02*
Y86868D01*
Y65278D02*
Y72517D01*
X95250Y226441D02*
Y233680D01*
Y202565D02*
Y221488D01*
Y191389D02*
Y197358D01*
Y156972D02*
Y162941D01*
Y131699D02*
Y149733D01*
Y110744D02*
Y116586D01*
Y101854D02*
Y108077D01*
Y89408D02*
Y95504D01*
Y81026D02*
Y86741D01*
Y65278D02*
Y72517D01*
X95123Y226441D02*
Y233680D01*
Y202565D02*
Y221488D01*
Y191389D02*
Y197358D01*
Y156972D02*
Y162941D01*
Y131826D02*
Y149733D01*
Y110744D02*
Y116586D01*
Y101854D02*
Y107950D01*
Y89535D02*
Y95631D01*
Y80899D02*
Y86741D01*
Y65278D02*
Y72517D01*
X94996Y226441D02*
Y233680D01*
Y202565D02*
Y221488D01*
Y191389D02*
Y197358D01*
Y156972D02*
Y162941D01*
Y131953D02*
Y149733D01*
Y110744D02*
Y116586D01*
Y101727D02*
Y107950D01*
Y89535D02*
Y95631D01*
Y80899D02*
Y86741D01*
Y65278D02*
Y72517D01*
X94869Y226441D02*
Y233680D01*
Y202565D02*
Y221488D01*
Y191389D02*
Y197358D01*
Y156972D02*
Y162941D01*
Y132080D02*
Y149733D01*
Y110744D02*
Y116586D01*
Y101727D02*
Y107823D01*
Y89662D02*
Y95758D01*
Y80899D02*
Y86741D01*
Y65278D02*
Y72517D01*
X94742Y226441D02*
Y233680D01*
Y215519D02*
Y221488D01*
Y191262D02*
Y197358D01*
Y156972D02*
Y162941D01*
Y132334D02*
Y149733D01*
Y110744D02*
Y116713D01*
Y101727D02*
Y107823D01*
Y89662D02*
Y95758D01*
Y80899D02*
Y86741D01*
Y65278D02*
Y72517D01*
X94615Y226441D02*
Y233680D01*
Y215519D02*
Y221488D01*
Y191262D02*
Y197358D01*
Y156972D02*
Y162941D01*
Y132461D02*
Y149733D01*
Y110871D02*
Y116713D01*
Y101600D02*
Y107696D01*
Y89662D02*
Y95885D01*
Y80899D02*
Y86741D01*
Y65278D02*
Y72517D01*
X94488Y226441D02*
Y233680D01*
Y215519D02*
Y221488D01*
Y191262D02*
Y197358D01*
Y156972D02*
Y162941D01*
Y132588D02*
Y149733D01*
Y110871D02*
Y116713D01*
Y101600D02*
Y107696D01*
Y89789D02*
Y95885D01*
Y80899D02*
Y86614D01*
Y65278D02*
Y72517D01*
X94361Y226441D02*
Y233680D01*
Y215519D02*
Y221488D01*
Y191262D02*
Y197358D01*
Y156972D02*
Y162941D01*
Y132842D02*
Y149733D01*
Y110871D02*
Y116713D01*
Y101473D02*
Y107696D01*
Y89789D02*
Y95885D01*
Y80772D02*
Y86614D01*
Y65278D02*
Y72517D01*
X94234Y226441D02*
Y233680D01*
Y215519D02*
Y221488D01*
Y191262D02*
Y197358D01*
Y156972D02*
Y162941D01*
Y132969D02*
Y149733D01*
Y110871D02*
Y116713D01*
Y101473D02*
Y107569D01*
Y89916D02*
Y96012D01*
Y80772D02*
Y86614D01*
Y65278D02*
Y72517D01*
X94107Y226441D02*
Y233680D01*
Y215519D02*
Y221488D01*
Y191262D02*
Y197231D01*
Y156972D02*
Y162941D01*
Y133223D02*
Y149733D01*
Y110871D02*
Y116713D01*
Y101346D02*
Y107569D01*
Y89916D02*
Y96012D01*
Y80772D02*
Y86614D01*
Y65278D02*
Y72517D01*
X93980Y226441D02*
Y233680D01*
Y215519D02*
Y221488D01*
Y191262D02*
Y197231D01*
Y156972D02*
Y163068D01*
Y133477D02*
Y149733D01*
Y110998D02*
Y116840D01*
Y101346D02*
Y107442D01*
Y90043D02*
Y96139D01*
Y80772D02*
Y86614D01*
Y65278D02*
Y72517D01*
X93853Y226441D02*
Y233680D01*
Y215519D02*
Y221488D01*
Y191262D02*
Y197231D01*
Y156972D02*
Y163068D01*
Y133731D02*
Y149733D01*
Y110998D02*
Y116840D01*
Y101219D02*
Y107442D01*
Y90043D02*
Y96139D01*
Y80772D02*
Y86614D01*
Y65278D02*
Y72517D01*
X93726Y226441D02*
Y233680D01*
Y215519D02*
Y221488D01*
Y191262D02*
Y197231D01*
Y156972D02*
Y163068D01*
Y133985D02*
Y149733D01*
Y110998D02*
Y116840D01*
Y101219D02*
Y107315D01*
Y90170D02*
Y96266D01*
Y80772D02*
Y86487D01*
Y65278D02*
Y72517D01*
X93599Y226441D02*
Y233680D01*
Y215519D02*
Y221488D01*
Y191262D02*
Y197231D01*
Y156972D02*
Y163068D01*
Y134239D02*
Y149733D01*
Y110998D02*
Y116840D01*
Y101219D02*
Y107315D01*
Y90170D02*
Y96266D01*
Y80645D02*
Y86487D01*
Y65278D02*
Y72517D01*
X93472Y226441D02*
Y233680D01*
Y215519D02*
Y221488D01*
Y191135D02*
Y197231D01*
Y156972D02*
Y163068D01*
Y134620D02*
Y149733D01*
Y110998D02*
Y116840D01*
Y101092D02*
Y107315D01*
Y90297D02*
Y96393D01*
Y80645D02*
Y86487D01*
Y65278D02*
Y72517D01*
X93345Y226441D02*
Y233680D01*
Y215519D02*
Y221488D01*
Y191135D02*
Y197231D01*
Y156972D02*
Y163068D01*
Y134874D02*
Y149733D01*
Y110998D02*
Y116967D01*
Y101092D02*
Y107188D01*
Y90297D02*
Y96393D01*
Y80645D02*
Y86487D01*
Y65278D02*
Y72517D01*
X93218Y226441D02*
Y233680D01*
Y215519D02*
Y221488D01*
Y191135D02*
Y197231D01*
Y157099D02*
Y163068D01*
Y135255D02*
Y149733D01*
Y111125D02*
Y116967D01*
Y100965D02*
Y107188D01*
Y90297D02*
Y96520D01*
Y80645D02*
Y86487D01*
Y65278D02*
Y72517D01*
X93091Y226441D02*
Y233680D01*
Y215519D02*
Y221488D01*
Y191135D02*
Y197231D01*
Y157099D02*
Y163068D01*
Y135636D02*
Y149733D01*
Y111125D02*
Y116967D01*
Y100965D02*
Y107061D01*
Y90424D02*
Y96520D01*
Y80645D02*
Y86487D01*
Y65278D02*
Y72517D01*
X92964Y226441D02*
Y233680D01*
Y215519D02*
Y221488D01*
Y191135D02*
Y197231D01*
Y157099D02*
Y163195D01*
Y136144D02*
Y149733D01*
Y111125D02*
Y116967D01*
Y100838D02*
Y107061D01*
Y90424D02*
Y96647D01*
Y80518D02*
Y86487D01*
Y65278D02*
Y72517D01*
X92837Y226441D02*
Y233680D01*
Y215519D02*
Y221488D01*
Y191135D02*
Y197104D01*
Y157099D02*
Y163195D01*
Y136398D02*
Y149733D01*
Y111125D02*
Y116967D01*
Y100838D02*
Y106934D01*
Y90551D02*
Y96647D01*
Y80518D02*
Y86360D01*
Y65278D02*
Y72517D01*
X92710Y226441D02*
Y233680D01*
Y215519D02*
Y221488D01*
Y191008D02*
Y197104D01*
Y157099D02*
Y163195D01*
Y136271D02*
Y149733D01*
Y111125D02*
Y117094D01*
Y100711D02*
Y106934D01*
Y90551D02*
Y96647D01*
Y80518D02*
Y86360D01*
Y65278D02*
Y72517D01*
X92583Y226441D02*
Y233680D01*
Y215519D02*
Y221488D01*
Y191008D02*
Y197104D01*
Y157099D02*
Y163195D01*
Y136144D02*
Y149733D01*
Y111252D02*
Y117094D01*
Y100711D02*
Y106807D01*
Y90678D02*
Y96774D01*
Y80518D02*
Y86360D01*
Y65278D02*
Y72517D01*
X92456Y226441D02*
Y233680D01*
Y215519D02*
Y221488D01*
Y191008D02*
Y197104D01*
Y157099D02*
Y163322D01*
Y136144D02*
Y149733D01*
Y111252D02*
Y117094D01*
Y100711D02*
Y106807D01*
Y90678D02*
Y96774D01*
Y80518D02*
Y86360D01*
Y65278D02*
Y72517D01*
X92329Y226441D02*
Y233680D01*
Y215519D02*
Y221488D01*
Y191008D02*
Y197104D01*
Y157226D02*
Y163322D01*
Y136017D02*
Y149733D01*
Y111252D02*
Y117094D01*
Y100584D02*
Y106807D01*
Y90805D02*
Y96901D01*
Y80518D02*
Y86360D01*
Y65278D02*
Y72517D01*
X92202Y226441D02*
Y233680D01*
Y215519D02*
Y221488D01*
Y190881D02*
Y197104D01*
Y157226D02*
Y163322D01*
Y143764D02*
Y149733D01*
Y135890D02*
Y142748D01*
Y111252D02*
Y117094D01*
Y100584D02*
Y106680D01*
Y90805D02*
Y96901D01*
Y80391D02*
Y86360D01*
Y65278D02*
Y72517D01*
X92075Y226441D02*
Y233680D01*
Y215519D02*
Y221488D01*
Y190881D02*
Y197104D01*
Y157226D02*
Y163322D01*
Y143764D02*
Y149733D01*
Y135763D02*
Y142748D01*
Y111252D02*
Y117221D01*
Y100457D02*
Y106680D01*
Y90932D02*
Y97028D01*
Y80391D02*
Y86233D01*
Y65278D02*
Y72517D01*
X91948Y226441D02*
Y233680D01*
Y215519D02*
Y221488D01*
Y190881D02*
Y196977D01*
Y157226D02*
Y163322D01*
Y143764D02*
Y149733D01*
Y135763D02*
Y142621D01*
Y111252D02*
Y117221D01*
Y100457D02*
Y106553D01*
Y90932D02*
Y97028D01*
Y80391D02*
Y86233D01*
Y65278D02*
Y72517D01*
X91821Y226441D02*
Y233680D01*
Y215519D02*
Y221488D01*
Y190881D02*
Y196977D01*
Y157226D02*
Y163449D01*
Y143764D02*
Y149733D01*
Y135636D02*
Y142494D01*
Y111379D02*
Y117221D01*
Y100330D02*
Y106553D01*
Y90932D02*
Y97155D01*
Y80391D02*
Y86233D01*
Y65278D02*
Y72517D01*
X91694Y226441D02*
Y233680D01*
Y215519D02*
Y221488D01*
Y190881D02*
Y196977D01*
Y143764D02*
Y149733D01*
Y135509D02*
Y142494D01*
Y111379D02*
Y117221D01*
Y100330D02*
Y106426D01*
Y91059D02*
Y97155D01*
Y80391D02*
Y86233D01*
Y65278D02*
Y72517D01*
X91567Y226441D02*
Y233680D01*
Y215519D02*
Y221488D01*
Y190754D02*
Y196977D01*
Y157353D02*
Y163449D01*
Y143764D02*
Y149733D01*
Y135509D02*
Y142367D01*
Y111379D02*
Y117221D01*
Y100330D02*
Y106426D01*
Y91059D02*
Y97282D01*
Y80391D02*
Y86233D01*
Y65278D02*
Y72517D01*
X91440Y226441D02*
Y233680D01*
Y215519D02*
Y221488D01*
Y190754D02*
Y196977D01*
Y157353D02*
Y163576D01*
Y143764D02*
Y149733D01*
Y135382D02*
Y142240D01*
Y111379D02*
Y117348D01*
Y100203D02*
Y106299D01*
Y91186D02*
Y97282D01*
Y80264D02*
Y86233D01*
Y65278D02*
Y72517D01*
X91313Y226441D02*
Y233680D01*
Y215519D02*
Y221488D01*
Y190754D02*
Y196977D01*
Y157353D02*
Y163576D01*
Y143764D02*
Y149733D01*
Y135255D02*
Y142113D01*
Y111379D02*
Y117348D01*
Y100203D02*
Y106299D01*
Y91186D02*
Y97282D01*
Y80264D02*
Y86106D01*
Y65278D02*
Y72517D01*
X91186Y226441D02*
Y233680D01*
Y215519D02*
Y221488D01*
Y190627D02*
Y196850D01*
Y157353D02*
Y163576D01*
Y143764D02*
Y149733D01*
Y135128D02*
Y142113D01*
Y111379D02*
Y117348D01*
Y100076D02*
Y106299D01*
Y91313D02*
Y97409D01*
Y80264D02*
Y86106D01*
Y65278D02*
Y72517D01*
X91059Y226441D02*
Y233680D01*
Y215519D02*
Y221488D01*
Y190627D02*
Y196850D01*
Y157480D02*
Y163703D01*
Y143764D02*
Y149733D01*
Y135128D02*
Y141986D01*
Y111506D02*
Y117348D01*
Y100076D02*
Y106172D01*
Y91313D02*
Y97409D01*
Y80264D02*
Y86106D01*
Y65278D02*
Y72517D01*
X90932Y226441D02*
Y233680D01*
Y215519D02*
Y221488D01*
Y190627D02*
Y196850D01*
Y157480D02*
Y163703D01*
Y143764D02*
Y149733D01*
Y135001D02*
Y141859D01*
Y111506D02*
Y117348D01*
Y99949D02*
Y106172D01*
Y91440D02*
Y97536D01*
Y80264D02*
Y86106D01*
Y65278D02*
Y72517D01*
X90805Y226441D02*
Y233680D01*
Y215519D02*
Y221488D01*
Y190500D02*
Y196850D01*
Y157480D02*
Y163703D01*
Y143764D02*
Y149733D01*
Y134874D02*
Y141859D01*
Y111506D02*
Y117475D01*
Y99949D02*
Y106045D01*
Y91440D02*
Y97536D01*
Y80137D02*
Y86106D01*
Y65278D02*
Y72517D01*
X90678Y226441D02*
Y233680D01*
Y215519D02*
Y221488D01*
Y190500D02*
Y196723D01*
Y157480D02*
Y163830D01*
Y143764D02*
Y149733D01*
Y134747D02*
Y141732D01*
Y111506D02*
Y117475D01*
Y99822D02*
Y106045D01*
Y91567D02*
Y97663D01*
Y80137D02*
Y86106D01*
Y65278D02*
Y72517D01*
X90551Y226441D02*
Y233680D01*
Y215519D02*
Y221488D01*
Y190500D02*
Y196723D01*
Y157607D02*
Y163830D01*
Y143764D02*
Y149733D01*
Y134747D02*
Y141605D01*
Y111506D02*
Y117475D01*
Y99822D02*
Y105918D01*
Y91567D02*
Y97663D01*
Y80137D02*
Y85979D01*
Y65278D02*
Y72517D01*
X90424Y226441D02*
Y233680D01*
Y215519D02*
Y221488D01*
Y190373D02*
Y196723D01*
Y157607D02*
Y163830D01*
Y143764D02*
Y149733D01*
Y134620D02*
Y141605D01*
Y111633D02*
Y117475D01*
Y99822D02*
Y105918D01*
Y91567D02*
Y97790D01*
Y80137D02*
Y85979D01*
Y65278D02*
Y72517D01*
X90297Y226441D02*
Y233680D01*
Y215519D02*
Y221488D01*
Y190373D02*
Y196723D01*
Y157607D02*
Y163957D01*
Y143764D02*
Y149733D01*
Y134493D02*
Y141478D01*
Y111633D02*
Y117475D01*
Y99695D02*
Y105791D01*
Y91694D02*
Y97790D01*
Y80137D02*
Y85979D01*
Y65278D02*
Y72517D01*
X90170Y226441D02*
Y233680D01*
Y215519D02*
Y221488D01*
Y190373D02*
Y196596D01*
Y157607D02*
Y163957D01*
Y143764D02*
Y149733D01*
Y134493D02*
Y141351D01*
Y111633D02*
Y117602D01*
Y99695D02*
Y105791D01*
Y91694D02*
Y97917D01*
Y80137D02*
Y85979D01*
Y65278D02*
Y72517D01*
X90043Y226441D02*
Y233680D01*
Y215519D02*
Y221488D01*
Y190246D02*
Y196596D01*
Y157734D02*
Y164084D01*
Y143764D02*
Y149733D01*
Y134366D02*
Y141224D01*
Y111633D02*
Y117602D01*
Y99568D02*
Y105791D01*
Y91821D02*
Y97917D01*
Y80010D02*
Y85979D01*
Y65278D02*
Y72517D01*
X89916Y226441D02*
Y233680D01*
Y215519D02*
Y221488D01*
Y190246D02*
Y196596D01*
Y157734D02*
Y164084D01*
Y143764D02*
Y149733D01*
Y134239D02*
Y141224D01*
Y111633D02*
Y117602D01*
Y99568D02*
Y105664D01*
Y91821D02*
Y97917D01*
Y80010D02*
Y85979D01*
Y65278D02*
Y72517D01*
X89789Y226441D02*
Y233680D01*
Y215519D02*
Y221488D01*
Y190119D02*
Y196596D01*
Y157734D02*
Y164084D01*
Y143764D02*
Y149733D01*
Y134112D02*
Y141097D01*
Y111633D02*
Y117602D01*
Y99441D02*
Y105664D01*
Y91948D02*
Y98044D01*
Y80010D02*
Y85979D01*
Y65278D02*
Y72517D01*
X89662Y226441D02*
Y233680D01*
Y215519D02*
Y221488D01*
Y190119D02*
Y196469D01*
Y157734D02*
Y164211D01*
Y143764D02*
Y149733D01*
Y134112D02*
Y140970D01*
Y111760D02*
Y117602D01*
Y99441D02*
Y105537D01*
Y91948D02*
Y98044D01*
Y80010D02*
Y85852D01*
Y65278D02*
Y72517D01*
X89535Y226441D02*
Y233680D01*
Y215519D02*
Y221488D01*
Y189992D02*
Y196469D01*
Y157861D02*
Y164211D01*
Y143764D02*
Y149733D01*
Y133985D02*
Y140970D01*
Y111760D02*
Y117729D01*
Y99314D02*
Y105537D01*
Y92075D02*
Y98171D01*
Y80010D02*
Y85852D01*
Y65278D02*
Y72517D01*
X89408Y226441D02*
Y233680D01*
Y215519D02*
Y221488D01*
Y189992D02*
Y196469D01*
Y157861D02*
Y164338D01*
Y143764D02*
Y149733D01*
Y133858D02*
Y140843D01*
Y111760D02*
Y117729D01*
Y99314D02*
Y105410D01*
Y92075D02*
Y98171D01*
Y80010D02*
Y85852D01*
Y65278D02*
Y72517D01*
X89281Y226441D02*
Y233680D01*
Y215519D02*
Y221488D01*
Y189865D02*
Y196342D01*
Y157861D02*
Y164338D01*
Y143764D02*
Y149733D01*
Y133858D02*
Y140716D01*
Y111760D02*
Y117729D01*
Y99314D02*
Y105410D01*
Y92202D02*
Y98298D01*
Y79883D02*
Y85852D01*
Y65278D02*
Y72517D01*
X89154Y226441D02*
Y233680D01*
Y215519D02*
Y221488D01*
Y189865D02*
Y196342D01*
Y157988D02*
Y164465D01*
Y143764D02*
Y149733D01*
Y133731D02*
Y140716D01*
Y111760D02*
Y117729D01*
Y99187D02*
Y105283D01*
Y92202D02*
Y98298D01*
Y79883D02*
Y85852D01*
Y65278D02*
Y72517D01*
X89027Y226441D02*
Y233680D01*
Y215519D02*
Y221488D01*
Y189738D02*
Y196342D01*
Y157988D02*
Y164465D01*
Y143764D02*
Y149733D01*
Y133604D02*
Y140589D01*
Y111887D02*
Y117729D01*
Y99187D02*
Y105283D01*
Y92329D02*
Y98425D01*
Y79883D02*
Y85852D01*
Y65278D02*
Y72517D01*
X88900Y226441D02*
Y233680D01*
Y215519D02*
Y221488D01*
Y189738D02*
Y196215D01*
Y158115D02*
Y164592D01*
Y143764D02*
Y149733D01*
Y133477D02*
Y140462D01*
Y111887D02*
Y117856D01*
Y99060D02*
Y105283D01*
Y92329D02*
Y98425D01*
Y79883D02*
Y85725D01*
Y65278D02*
Y72517D01*
X88773Y226441D02*
Y233680D01*
Y215519D02*
Y221488D01*
Y189611D02*
Y196215D01*
Y158115D02*
Y164592D01*
Y143764D02*
Y149733D01*
Y133477D02*
Y140462D01*
Y111887D02*
Y117856D01*
Y99060D02*
Y105156D01*
Y92329D02*
Y98552D01*
Y79883D02*
Y85725D01*
Y65278D02*
Y72517D01*
X88646Y226441D02*
Y233680D01*
Y215519D02*
Y221488D01*
Y189611D02*
Y196088D01*
Y158115D02*
Y164719D01*
Y143764D02*
Y149733D01*
Y133350D02*
Y140335D01*
Y111887D02*
Y117856D01*
Y98933D02*
Y105156D01*
Y92456D02*
Y98552D01*
Y79756D02*
Y85725D01*
Y65278D02*
Y72517D01*
X88519Y226441D02*
Y233680D01*
Y215519D02*
Y221488D01*
Y189484D02*
Y196088D01*
Y158242D02*
Y164846D01*
Y143764D02*
Y149733D01*
Y133223D02*
Y140208D01*
Y111887D02*
Y117856D01*
Y98933D02*
Y105029D01*
Y92456D02*
Y98679D01*
Y79756D02*
Y85725D01*
Y65278D02*
Y72517D01*
X88392Y226441D02*
Y233680D01*
Y215519D02*
Y221488D01*
Y189357D02*
Y196088D01*
Y158242D02*
Y164846D01*
Y143764D02*
Y149733D01*
Y133096D02*
Y140081D01*
Y111887D02*
Y117856D01*
Y98806D02*
Y105029D01*
Y92583D02*
Y98679D01*
Y79756D02*
Y85725D01*
Y65278D02*
Y72517D01*
X88265Y226441D02*
Y233680D01*
Y215519D02*
Y221488D01*
Y189357D02*
Y195961D01*
Y158242D02*
Y164973D01*
Y143764D02*
Y149733D01*
Y133096D02*
Y140081D01*
Y112014D02*
Y117856D01*
Y98806D02*
Y104902D01*
Y92583D02*
Y98679D01*
Y79756D02*
Y85725D01*
Y65278D02*
Y72517D01*
X88138Y226441D02*
Y233680D01*
Y215519D02*
Y221488D01*
Y189230D02*
Y195961D01*
Y158369D02*
Y164973D01*
Y143764D02*
Y149733D01*
Y132969D02*
Y139954D01*
Y112014D02*
Y117983D01*
Y92710D02*
Y104902D01*
Y79756D02*
Y85598D01*
Y65278D02*
Y72517D01*
X88011Y226441D02*
Y233680D01*
Y215519D02*
Y221488D01*
Y189230D02*
Y195961D01*
Y158369D02*
Y165100D01*
Y143764D02*
Y149733D01*
Y132842D02*
Y139827D01*
Y112014D02*
Y117983D01*
Y92710D02*
Y104775D01*
Y79756D02*
Y85598D01*
Y65278D02*
Y72517D01*
X87884Y226441D02*
Y233680D01*
Y215519D02*
Y221488D01*
Y189103D02*
Y195834D01*
Y158496D02*
Y165100D01*
Y143764D02*
Y149733D01*
Y132842D02*
Y139827D01*
Y112014D02*
Y117983D01*
Y92837D02*
Y104775D01*
Y79629D02*
Y85598D01*
Y65278D02*
Y72517D01*
X87757Y226441D02*
Y233680D01*
Y215519D02*
Y221488D01*
Y188976D02*
Y195834D01*
Y158496D02*
Y165227D01*
Y143764D02*
Y149733D01*
Y132715D02*
Y139700D01*
Y112014D02*
Y117983D01*
Y92837D02*
Y104775D01*
Y79629D02*
Y85598D01*
Y65278D02*
Y72517D01*
X87630Y226441D02*
Y233680D01*
Y215519D02*
Y221488D01*
Y188976D02*
Y195834D01*
Y158623D02*
Y165354D01*
Y143764D02*
Y149733D01*
Y132588D02*
Y139573D01*
Y112014D02*
Y117983D01*
Y92964D02*
Y104648D01*
Y79629D02*
Y85598D01*
Y65278D02*
Y72517D01*
X87503Y226441D02*
Y233680D01*
Y215519D02*
Y221488D01*
Y188849D02*
Y195707D01*
Y158623D02*
Y165481D01*
Y143764D02*
Y149733D01*
Y132461D02*
Y139573D01*
Y112141D02*
Y118110D01*
Y92964D02*
Y104648D01*
Y79629D02*
Y85598D01*
Y65278D02*
Y72517D01*
X87376Y226441D02*
Y233680D01*
Y215519D02*
Y221488D01*
Y188722D02*
Y195707D01*
Y158623D02*
Y165481D01*
Y143764D02*
Y149733D01*
Y132461D02*
Y139446D01*
Y112141D02*
Y118110D01*
Y92964D02*
Y104521D01*
Y79629D02*
Y85471D01*
Y65278D02*
Y72517D01*
X87249Y226441D02*
Y233680D01*
Y215519D02*
Y221488D01*
Y188595D02*
Y195580D01*
Y158750D02*
Y165608D01*
Y143764D02*
Y149733D01*
Y132334D02*
Y139319D01*
Y112141D02*
Y118110D01*
Y93091D02*
Y104521D01*
Y79629D02*
Y85471D01*
Y65278D02*
Y72517D01*
X87122Y226441D02*
Y233680D01*
Y215519D02*
Y221488D01*
Y188595D02*
Y195580D01*
Y158750D02*
Y165735D01*
Y143764D02*
Y149733D01*
Y132207D02*
Y139192D01*
Y112141D02*
Y118110D01*
Y93091D02*
Y104394D01*
Y79502D02*
Y85471D01*
Y65278D02*
Y72517D01*
X86995Y226441D02*
Y233680D01*
Y215519D02*
Y221488D01*
Y188468D02*
Y195453D01*
Y158877D02*
Y165862D01*
Y143764D02*
Y149733D01*
Y132080D02*
Y139192D01*
Y112141D02*
Y118110D01*
Y93218D02*
Y104394D01*
Y79502D02*
Y85471D01*
Y65278D02*
Y72517D01*
X86868Y226441D02*
Y233680D01*
Y215519D02*
Y221488D01*
Y188341D02*
Y195453D01*
Y158877D02*
Y165862D01*
Y143764D02*
Y149733D01*
Y132080D02*
Y139065D01*
Y112268D02*
Y118237D01*
Y93218D02*
Y104394D01*
Y79502D02*
Y85471D01*
Y65278D02*
Y72517D01*
X86741Y226441D02*
Y233680D01*
Y215519D02*
Y221488D01*
Y188214D02*
Y195326D01*
Y159004D02*
Y165989D01*
Y143764D02*
Y149733D01*
Y131953D02*
Y138938D01*
Y112268D02*
Y118237D01*
Y93345D02*
Y104267D01*
Y79502D02*
Y85471D01*
Y65278D02*
Y72517D01*
X86614Y226441D02*
Y233680D01*
Y215519D02*
Y221488D01*
Y188214D02*
Y195326D01*
Y159004D02*
Y166116D01*
Y143764D02*
Y149733D01*
Y131826D02*
Y138938D01*
Y112268D02*
Y118237D01*
Y93345D02*
Y104267D01*
Y79502D02*
Y85471D01*
Y65278D02*
Y72517D01*
X86487Y226441D02*
Y233680D01*
Y215519D02*
Y221488D01*
Y188087D02*
Y195199D01*
Y159131D02*
Y166243D01*
Y143764D02*
Y149733D01*
Y131826D02*
Y138811D01*
Y112268D02*
Y118237D01*
Y93472D02*
Y104140D01*
Y79375D02*
Y85344D01*
Y65278D02*
Y72517D01*
X86360Y226441D02*
Y233680D01*
Y215519D02*
Y221488D01*
Y187960D02*
Y195199D01*
Y159131D02*
Y166370D01*
Y143764D02*
Y149733D01*
Y131699D02*
Y138684D01*
Y112268D02*
Y118237D01*
Y93472D02*
Y104140D01*
Y79375D02*
Y85344D01*
Y65278D02*
Y72517D01*
X86233Y226441D02*
Y233680D01*
Y215519D02*
Y221488D01*
Y187833D02*
Y195072D01*
Y159258D02*
Y166370D01*
Y143764D02*
Y149733D01*
Y131572D02*
Y138684D01*
Y112268D02*
Y118364D01*
Y93599D02*
Y104013D01*
Y79375D02*
Y85344D01*
Y65278D02*
Y72517D01*
X86106Y226441D02*
Y233680D01*
Y215519D02*
Y221488D01*
Y187706D02*
Y195072D01*
Y159258D02*
Y166497D01*
Y143764D02*
Y149733D01*
Y131445D02*
Y138557D01*
Y112395D02*
Y118364D01*
Y93599D02*
Y104013D01*
Y79375D02*
Y85344D01*
Y65278D02*
Y72517D01*
X85979Y226441D02*
Y233680D01*
Y215519D02*
Y221488D01*
Y187579D02*
Y194945D01*
Y159385D02*
Y166624D01*
Y143764D02*
Y149733D01*
Y131445D02*
Y138430D01*
Y112395D02*
Y118364D01*
Y93599D02*
Y103886D01*
Y79375D02*
Y85344D01*
Y65278D02*
Y72517D01*
X85852Y226441D02*
Y233680D01*
Y215519D02*
Y221488D01*
Y187452D02*
Y194945D01*
Y159512D02*
Y166751D01*
Y143764D02*
Y149733D01*
Y131318D02*
Y138303D01*
Y112395D02*
Y118364D01*
Y93726D02*
Y103886D01*
Y79375D02*
Y85344D01*
Y65278D02*
Y72517D01*
X85725Y226441D02*
Y233680D01*
Y215519D02*
Y221488D01*
Y187325D02*
Y194818D01*
Y159512D02*
Y166878D01*
Y143764D02*
Y149733D01*
Y131191D02*
Y138303D01*
Y112395D02*
Y118364D01*
Y93726D02*
Y103886D01*
Y79248D02*
Y85217D01*
Y65278D02*
Y72517D01*
X85598Y226441D02*
Y233680D01*
Y215519D02*
Y221488D01*
Y187198D02*
Y194691D01*
Y159639D02*
Y167005D01*
Y143764D02*
Y149733D01*
Y131064D02*
Y138176D01*
Y112395D02*
Y118491D01*
Y93853D02*
Y103759D01*
Y79248D02*
Y85217D01*
Y65278D02*
Y72517D01*
X85471Y226441D02*
Y233680D01*
Y215519D02*
Y221488D01*
Y187071D02*
Y194691D01*
Y159766D02*
Y167132D01*
Y143764D02*
Y149733D01*
Y131064D02*
Y138049D01*
Y112395D02*
Y118491D01*
Y93853D02*
Y103759D01*
Y79248D02*
Y85217D01*
Y65278D02*
Y72517D01*
X85344Y226441D02*
Y233680D01*
Y215519D02*
Y221488D01*
Y186944D02*
Y194564D01*
Y159766D02*
Y167259D01*
Y143764D02*
Y149733D01*
Y130937D02*
Y138049D01*
Y112522D02*
Y118491D01*
Y93980D02*
Y103632D01*
Y79248D02*
Y85217D01*
Y65278D02*
Y72517D01*
X85217Y226441D02*
Y233680D01*
Y215519D02*
Y221488D01*
Y186817D02*
Y194437D01*
Y159893D02*
Y167386D01*
Y143764D02*
Y149733D01*
Y130810D02*
Y137922D01*
Y112522D02*
Y118491D01*
Y93980D02*
Y103632D01*
Y79248D02*
Y85217D01*
Y65278D02*
Y72517D01*
X85090Y226441D02*
Y233680D01*
Y215519D02*
Y221488D01*
Y186690D02*
Y194437D01*
Y159893D02*
Y167513D01*
Y143764D02*
Y149733D01*
Y130810D02*
Y137795D01*
Y112522D02*
Y118491D01*
Y94107D02*
Y103505D01*
Y79248D02*
Y85217D01*
Y65278D02*
Y72517D01*
X84963Y226441D02*
Y233680D01*
Y215519D02*
Y221488D01*
Y186563D02*
Y194310D01*
Y160020D02*
Y167640D01*
Y143764D02*
Y149733D01*
Y130683D02*
Y137795D01*
Y112522D02*
Y118618D01*
Y94107D02*
Y103505D01*
Y79121D02*
Y85090D01*
Y65278D02*
Y72517D01*
X84836Y226441D02*
Y233680D01*
Y215519D02*
Y221488D01*
Y186436D02*
Y194183D01*
Y160147D02*
Y167767D01*
Y143764D02*
Y149733D01*
Y130556D02*
Y137668D01*
Y112522D02*
Y118618D01*
Y94234D02*
Y103378D01*
Y79121D02*
Y85090D01*
Y65278D02*
Y72517D01*
X84709Y226441D02*
Y233680D01*
Y215519D02*
Y221488D01*
Y186309D02*
Y194183D01*
Y160147D02*
Y167894D01*
Y143764D02*
Y149733D01*
Y130429D02*
Y137541D01*
Y112649D02*
Y118618D01*
Y94234D02*
Y103378D01*
Y79121D02*
Y85090D01*
Y65278D02*
Y72517D01*
X84582Y226441D02*
Y233680D01*
Y215519D02*
Y221488D01*
Y186055D02*
Y194056D01*
Y160274D02*
Y168148D01*
Y143764D02*
Y149733D01*
Y130429D02*
Y137414D01*
Y112649D02*
Y118618D01*
Y94234D02*
Y103378D01*
Y79121D02*
Y85090D01*
Y65278D02*
Y72517D01*
X84455Y226441D02*
Y233680D01*
Y215519D02*
Y221488D01*
Y185928D02*
Y193929D01*
Y160401D02*
Y168275D01*
Y143764D02*
Y149733D01*
Y130302D02*
Y137414D01*
Y112649D02*
Y118618D01*
Y94361D02*
Y103251D01*
Y79121D02*
Y85090D01*
Y65278D02*
Y72517D01*
X84328Y226441D02*
Y233680D01*
Y215519D02*
Y221488D01*
Y185801D02*
Y193929D01*
Y160528D02*
Y168402D01*
Y143764D02*
Y149733D01*
Y130175D02*
Y137287D01*
Y112649D02*
Y118745D01*
Y94361D02*
Y103251D01*
Y78994D02*
Y85090D01*
Y65278D02*
Y72517D01*
X84201Y226441D02*
Y233680D01*
Y215519D02*
Y221488D01*
Y185674D02*
Y193802D01*
Y160528D02*
Y168529D01*
Y143764D02*
Y149733D01*
Y130048D02*
Y137160D01*
Y112649D02*
Y118745D01*
Y94488D02*
Y103124D01*
Y78994D02*
Y84963D01*
Y65278D02*
Y72517D01*
X84074Y226441D02*
Y233680D01*
Y215519D02*
Y221488D01*
Y185420D02*
Y193802D01*
Y160655D02*
Y168783D01*
Y143764D02*
Y149733D01*
Y130048D02*
Y137160D01*
Y112649D02*
Y118745D01*
Y94488D02*
Y103124D01*
Y78994D02*
Y84963D01*
Y65278D02*
Y72517D01*
X83947Y226441D02*
Y233680D01*
Y215519D02*
Y221488D01*
Y185293D02*
Y193675D01*
Y160782D02*
Y168910D01*
Y143764D02*
Y149733D01*
Y129921D02*
Y137033D01*
Y112776D02*
Y118745D01*
Y94615D02*
Y102997D01*
Y78994D02*
Y84963D01*
Y65278D02*
Y72517D01*
X83820Y226441D02*
Y233680D01*
Y215519D02*
Y221488D01*
Y185039D02*
Y193548D01*
Y160909D02*
Y169037D01*
Y143764D02*
Y149733D01*
Y129794D02*
Y136906D01*
Y112776D02*
Y118745D01*
Y94615D02*
Y102997D01*
Y78994D02*
Y84963D01*
Y65278D02*
Y72517D01*
X83693Y226441D02*
Y233680D01*
Y215519D02*
Y221488D01*
Y184912D02*
Y193421D01*
Y160909D02*
Y169291D01*
Y143764D02*
Y149733D01*
Y129794D02*
Y136906D01*
Y112776D02*
Y118872D01*
Y94742D02*
Y102870D01*
Y78994D02*
Y84963D01*
Y65278D02*
Y72517D01*
X83566Y226441D02*
Y233680D01*
Y215519D02*
Y221488D01*
Y184785D02*
Y193294D01*
Y161036D02*
Y169418D01*
Y143764D02*
Y149733D01*
Y129667D02*
Y136779D01*
Y112776D02*
Y118872D01*
Y94742D02*
Y102870D01*
Y78867D02*
Y84963D01*
Y65278D02*
Y72517D01*
X83439Y226441D02*
Y233680D01*
Y215519D02*
Y221488D01*
Y184531D02*
Y193167D01*
Y161163D02*
Y169672D01*
Y143764D02*
Y149733D01*
Y129540D02*
Y136652D01*
Y112776D02*
Y118872D01*
Y94869D02*
Y102870D01*
Y78867D02*
Y84963D01*
Y65278D02*
Y72517D01*
X83312Y226441D02*
Y233680D01*
Y215519D02*
Y221488D01*
Y184277D02*
Y193167D01*
Y161290D02*
Y169926D01*
Y143764D02*
Y149733D01*
Y129413D02*
Y136652D01*
Y112903D02*
Y118872D01*
Y94869D02*
Y102743D01*
Y78867D02*
Y84836D01*
Y65278D02*
Y72517D01*
X83185Y226441D02*
Y233680D01*
Y215519D02*
Y221488D01*
Y184150D02*
Y193040D01*
Y161290D02*
Y170053D01*
Y143764D02*
Y149733D01*
Y129413D02*
Y136525D01*
Y112903D02*
Y118872D01*
Y94869D02*
Y102743D01*
Y78867D02*
Y84836D01*
Y65278D02*
Y72517D01*
X83058Y226441D02*
Y233680D01*
Y215519D02*
Y221488D01*
Y183896D02*
Y192913D01*
Y161417D02*
Y170307D01*
Y143764D02*
Y149733D01*
Y129286D02*
Y136398D01*
Y112903D02*
Y118999D01*
Y94996D02*
Y102616D01*
Y78867D02*
Y84836D01*
Y65278D02*
Y72517D01*
X82931Y226441D02*
Y233680D01*
Y215519D02*
Y221488D01*
Y183642D02*
Y192786D01*
Y161544D02*
Y170561D01*
Y143764D02*
Y149733D01*
Y129159D02*
Y136271D01*
Y112903D02*
Y118999D01*
Y94996D02*
Y102616D01*
Y78867D02*
Y84836D01*
Y65278D02*
Y72517D01*
X82804Y226441D02*
Y233680D01*
Y215519D02*
Y221488D01*
Y183388D02*
Y192659D01*
Y161671D02*
Y170815D01*
Y143764D02*
Y149733D01*
Y129032D02*
Y136271D01*
Y112903D02*
Y118999D01*
Y95123D02*
Y102489D01*
Y78740D02*
Y84836D01*
Y65278D02*
Y72517D01*
X82677Y226441D02*
Y233680D01*
Y215519D02*
Y221488D01*
Y183134D02*
Y192532D01*
Y161798D02*
Y171069D01*
Y143764D02*
Y149733D01*
Y129032D02*
Y136144D01*
Y112903D02*
Y118999D01*
Y95123D02*
Y102489D01*
Y78740D02*
Y84836D01*
Y65278D02*
Y72517D01*
X82550Y226441D02*
Y233680D01*
Y215519D02*
Y221488D01*
Y182880D02*
Y192532D01*
Y161925D02*
Y171323D01*
Y143764D02*
Y149733D01*
Y128905D02*
Y136017D01*
Y113030D02*
Y118999D01*
Y95250D02*
Y102362D01*
Y78740D02*
Y84709D01*
Y65278D02*
Y72517D01*
X82423Y226441D02*
Y233680D01*
Y215519D02*
Y221488D01*
Y182626D02*
Y192405D01*
Y162052D02*
Y171577D01*
Y143764D02*
Y149733D01*
Y128778D02*
Y136017D01*
Y113030D02*
Y119126D01*
Y95250D02*
Y102362D01*
Y78740D02*
Y84709D01*
Y65278D02*
Y72517D01*
X82296Y226441D02*
Y233680D01*
Y215519D02*
Y221488D01*
Y182245D02*
Y192278D01*
Y162179D02*
Y171958D01*
Y143764D02*
Y149733D01*
Y128778D02*
Y135890D01*
Y113030D02*
Y119126D01*
Y95377D02*
Y102362D01*
Y78740D02*
Y84709D01*
Y65278D02*
Y72517D01*
X82169Y226441D02*
Y233680D01*
Y215519D02*
Y221488D01*
Y181991D02*
Y192151D01*
Y162306D02*
Y172339D01*
Y143764D02*
Y149733D01*
Y128651D02*
Y135763D01*
Y113030D02*
Y119126D01*
Y95377D02*
Y102235D01*
Y78740D02*
Y84709D01*
Y65278D02*
Y72517D01*
X82042Y226441D02*
Y233680D01*
Y215519D02*
Y221488D01*
Y181610D02*
Y192024D01*
Y162433D02*
Y172720D01*
Y143764D02*
Y149733D01*
Y128524D02*
Y135763D01*
Y113030D02*
Y119126D01*
Y95504D02*
Y102235D01*
Y78613D02*
Y84709D01*
Y65278D02*
Y72517D01*
X81915Y226441D02*
Y233680D01*
Y215519D02*
Y221488D01*
Y181229D02*
Y191897D01*
Y162560D02*
Y172974D01*
Y143764D02*
Y149733D01*
Y128397D02*
Y135636D01*
Y113030D02*
Y119126D01*
Y95504D02*
Y102108D01*
Y78613D02*
Y84709D01*
Y65278D02*
Y72517D01*
X81788Y226441D02*
Y233680D01*
Y215519D02*
Y221488D01*
Y180721D02*
Y191770D01*
Y162687D02*
Y173609D01*
Y143764D02*
Y149733D01*
Y128397D02*
Y135509D01*
Y113157D02*
Y119126D01*
Y95504D02*
Y102108D01*
Y78613D02*
Y84582D01*
Y65278D02*
Y72517D01*
X81661Y226441D02*
Y233680D01*
Y215519D02*
Y221488D01*
Y180213D02*
Y191643D01*
Y162814D02*
Y174117D01*
Y143764D02*
Y149733D01*
Y128270D02*
Y135382D01*
Y113157D02*
Y119253D01*
Y95631D02*
Y101981D01*
Y78613D02*
Y84582D01*
Y65278D02*
Y72517D01*
X81534Y226441D02*
Y233680D01*
Y215519D02*
Y221488D01*
Y179578D02*
Y191516D01*
Y162814D02*
Y174752D01*
Y143764D02*
Y149733D01*
Y128143D02*
Y135382D01*
Y113157D02*
Y119253D01*
Y95631D02*
Y101981D01*
Y78613D02*
Y84582D01*
Y65278D02*
Y72517D01*
X81407Y226441D02*
Y233680D01*
Y215519D02*
Y221488D01*
Y178689D02*
Y191389D01*
Y163068D02*
Y175768D01*
Y143764D02*
Y149733D01*
Y128016D02*
Y135255D01*
Y113157D02*
Y119253D01*
Y95758D02*
Y101981D01*
Y78486D02*
Y84582D01*
Y65278D02*
Y72517D01*
X81280Y226441D02*
Y233680D01*
Y215519D02*
Y221488D01*
Y163195D02*
Y191262D01*
Y143764D02*
Y149733D01*
Y128016D02*
Y135128D01*
Y113157D02*
Y119253D01*
Y95758D02*
Y101854D01*
Y78486D02*
Y84582D01*
Y65278D02*
Y72517D01*
X81153Y226441D02*
Y233680D01*
Y215519D02*
Y221488D01*
Y163322D02*
Y191135D01*
Y143764D02*
Y149733D01*
Y127889D02*
Y135128D01*
Y113284D02*
Y119253D01*
Y95885D02*
Y101854D01*
Y78486D02*
Y84582D01*
Y65278D02*
Y72517D01*
X81026Y226441D02*
Y233680D01*
Y215519D02*
Y221488D01*
Y163449D02*
Y190881D01*
Y143764D02*
Y149733D01*
Y127762D02*
Y135001D01*
Y113284D02*
Y119380D01*
Y95885D02*
Y101727D01*
Y78486D02*
Y84455D01*
Y65278D02*
Y72517D01*
X80899Y226441D02*
Y233680D01*
Y215519D02*
Y221488D01*
Y163576D02*
Y190754D01*
Y143764D02*
Y149733D01*
Y127762D02*
Y134874D01*
Y113284D02*
Y119380D01*
Y96012D02*
Y101727D01*
Y78486D02*
Y84455D01*
Y65278D02*
Y72517D01*
X80772Y226441D02*
Y233680D01*
Y215519D02*
Y221488D01*
Y163703D02*
Y190627D01*
Y143764D02*
Y149733D01*
Y127635D02*
Y134874D01*
Y113284D02*
Y119380D01*
Y96012D02*
Y101600D01*
Y78486D02*
Y84455D01*
Y65278D02*
Y72517D01*
X80645Y226441D02*
Y233680D01*
Y215519D02*
Y221488D01*
Y163830D02*
Y190500D01*
Y143764D02*
Y149733D01*
Y127508D02*
Y134747D01*
Y113284D02*
Y119380D01*
Y96139D02*
Y101600D01*
Y78359D02*
Y84455D01*
Y65278D02*
Y72517D01*
X80518Y226441D02*
Y233680D01*
Y215519D02*
Y221488D01*
Y163957D02*
Y190373D01*
Y143764D02*
Y149733D01*
Y127381D02*
Y134620D01*
Y113284D02*
Y119380D01*
Y96139D02*
Y101473D01*
Y78359D02*
Y84455D01*
Y65278D02*
Y72517D01*
X80391Y226441D02*
Y233680D01*
Y215519D02*
Y221488D01*
Y164211D02*
Y190119D01*
Y143764D02*
Y149733D01*
Y127381D02*
Y134493D01*
Y113411D02*
Y119507D01*
Y96139D02*
Y101473D01*
Y78359D02*
Y84455D01*
Y65278D02*
Y72517D01*
X80264Y226441D02*
Y233680D01*
Y215519D02*
Y221488D01*
Y164338D02*
Y189992D01*
Y143764D02*
Y149733D01*
Y127254D02*
Y134493D01*
Y113411D02*
Y119507D01*
Y96266D02*
Y101473D01*
Y78359D02*
Y84455D01*
Y65278D02*
Y72517D01*
X80137Y226441D02*
Y233680D01*
Y215519D02*
Y221488D01*
Y164465D02*
Y189865D01*
Y143764D02*
Y149733D01*
Y127127D02*
Y134366D01*
Y113411D02*
Y119507D01*
Y96266D02*
Y101346D01*
Y78359D02*
Y84328D01*
Y65278D02*
Y72517D01*
X80010Y226441D02*
Y233680D01*
Y215519D02*
Y221488D01*
Y164592D02*
Y189738D01*
Y143764D02*
Y149733D01*
Y127000D02*
Y134239D01*
Y113411D02*
Y119507D01*
Y96393D02*
Y101346D01*
Y78359D02*
Y84328D01*
Y65278D02*
Y72517D01*
X79883Y226441D02*
Y233680D01*
Y215519D02*
Y221488D01*
Y164846D02*
Y189484D01*
Y143764D02*
Y149733D01*
Y127000D02*
Y134239D01*
Y113411D02*
Y119507D01*
Y96393D02*
Y101219D01*
Y78232D02*
Y84328D01*
Y65278D02*
Y72517D01*
X79756Y226441D02*
Y233680D01*
Y215519D02*
Y221488D01*
Y164973D02*
Y189357D01*
Y143764D02*
Y149733D01*
Y126873D02*
Y134112D01*
Y113411D02*
Y119634D01*
Y96520D02*
Y101219D01*
Y78232D02*
Y84328D01*
Y65278D02*
Y72517D01*
X79629Y226441D02*
Y233680D01*
Y215519D02*
Y221488D01*
Y165100D02*
Y189230D01*
Y143764D02*
Y149733D01*
Y126746D02*
Y133985D01*
Y113538D02*
Y119634D01*
Y96520D02*
Y101092D01*
Y78232D02*
Y84328D01*
Y65278D02*
Y72517D01*
X79502Y226441D02*
Y233680D01*
Y215519D02*
Y221488D01*
Y165354D02*
Y188976D01*
Y143764D02*
Y149733D01*
Y126746D02*
Y133985D01*
Y113538D02*
Y119634D01*
Y96647D02*
Y101092D01*
Y78232D02*
Y84328D01*
Y65278D02*
Y72517D01*
X79375Y226441D02*
Y233680D01*
Y215519D02*
Y221488D01*
Y165481D02*
Y188849D01*
Y143764D02*
Y149733D01*
Y126619D02*
Y133858D01*
Y113538D02*
Y119634D01*
Y96647D02*
Y100965D01*
Y78232D02*
Y84201D01*
Y65278D02*
Y72517D01*
X79248Y226441D02*
Y233680D01*
Y215519D02*
Y221488D01*
Y165608D02*
Y188595D01*
Y143764D02*
Y149733D01*
Y126492D02*
Y133731D01*
Y113538D02*
Y119634D01*
Y96774D02*
Y100965D01*
Y78105D02*
Y84201D01*
Y65278D02*
Y72517D01*
X79121Y226441D02*
Y233680D01*
Y215519D02*
Y221488D01*
Y165862D02*
Y188468D01*
Y143764D02*
Y149733D01*
Y126365D02*
Y133604D01*
Y113538D02*
Y119761D01*
Y96774D02*
Y100965D01*
Y78105D02*
Y84201D01*
Y65278D02*
Y72517D01*
X78994Y226441D02*
Y233680D01*
Y215519D02*
Y221488D01*
Y165989D02*
Y188214D01*
Y143764D02*
Y149733D01*
Y126365D02*
Y133604D01*
Y113665D02*
Y119761D01*
Y96901D02*
Y100838D01*
Y78105D02*
Y84201D01*
Y65278D02*
Y72517D01*
X78867Y226441D02*
Y233680D01*
Y215519D02*
Y221488D01*
Y166243D02*
Y188087D01*
Y143764D02*
Y149733D01*
Y126238D02*
Y133477D01*
Y113665D02*
Y119761D01*
Y96901D02*
Y100838D01*
Y78105D02*
Y84201D01*
Y65278D02*
Y72517D01*
X78740Y226441D02*
Y233680D01*
Y215519D02*
Y221488D01*
Y166497D02*
Y187833D01*
Y143764D02*
Y149733D01*
Y126111D02*
Y133350D01*
Y113665D02*
Y119761D01*
Y96901D02*
Y100711D01*
Y78105D02*
Y84201D01*
Y65278D02*
Y72517D01*
X78613Y226441D02*
Y233680D01*
Y215519D02*
Y221488D01*
Y166624D02*
Y187706D01*
Y143764D02*
Y149733D01*
Y125984D02*
Y133350D01*
Y113665D02*
Y119761D01*
Y97028D02*
Y100711D01*
Y78105D02*
Y84074D01*
Y65278D02*
Y72517D01*
X78486Y226441D02*
Y233680D01*
Y215519D02*
Y221488D01*
Y166878D02*
Y187452D01*
Y143764D02*
Y149733D01*
Y125984D02*
Y133223D01*
Y113665D02*
Y119888D01*
Y97028D02*
Y100584D01*
Y77978D02*
Y84074D01*
Y65278D02*
Y72517D01*
X78359Y226441D02*
Y233680D01*
Y215519D02*
Y221488D01*
Y167132D02*
Y187198D01*
Y143764D02*
Y149733D01*
Y125857D02*
Y133096D01*
Y113665D02*
Y119888D01*
Y97155D02*
Y100584D01*
Y77978D02*
Y84074D01*
Y65278D02*
Y72517D01*
X78232Y226441D02*
Y233680D01*
Y215519D02*
Y221488D01*
Y167259D02*
Y186944D01*
Y143764D02*
Y149733D01*
Y125730D02*
Y133096D01*
Y113792D02*
Y119888D01*
Y97155D02*
Y100457D01*
Y77978D02*
Y84074D01*
Y65278D02*
Y72517D01*
X78105Y226441D02*
Y233680D01*
Y215519D02*
Y221488D01*
Y167513D02*
Y186817D01*
Y143764D02*
Y149733D01*
Y125730D02*
Y132969D01*
Y113792D02*
Y119888D01*
Y97282D02*
Y100457D01*
Y77978D02*
Y84074D01*
Y65278D02*
Y72517D01*
X77978Y226441D02*
Y233680D01*
Y215519D02*
Y221488D01*
Y167767D02*
Y186563D01*
Y143764D02*
Y149733D01*
Y125603D02*
Y132842D01*
Y113792D02*
Y119888D01*
Y97282D02*
Y100457D01*
Y77978D02*
Y84074D01*
Y65278D02*
Y72517D01*
X77851Y226441D02*
Y233680D01*
Y215519D02*
Y221488D01*
Y168021D02*
Y186309D01*
Y143764D02*
Y149733D01*
Y125476D02*
Y132842D01*
Y113792D02*
Y120015D01*
Y97409D02*
Y100330D01*
Y77978D02*
Y83947D01*
Y65278D02*
Y72517D01*
X77724Y226441D02*
Y233680D01*
Y215519D02*
Y221488D01*
Y168275D02*
Y186055D01*
Y143764D02*
Y149733D01*
Y125349D02*
Y132715D01*
Y113792D02*
Y120015D01*
Y97409D02*
Y100330D01*
Y77851D02*
Y83947D01*
Y65278D02*
Y72517D01*
X77597Y226441D02*
Y233680D01*
Y215519D02*
Y221488D01*
Y168529D02*
Y185801D01*
Y143764D02*
Y149733D01*
Y125349D02*
Y132588D01*
Y113919D02*
Y120015D01*
Y97536D02*
Y100203D01*
Y77851D02*
Y83947D01*
Y65278D02*
Y72517D01*
X77470Y226441D02*
Y233680D01*
Y215519D02*
Y221488D01*
Y168783D02*
Y185547D01*
Y143764D02*
Y149733D01*
Y125222D02*
Y132461D01*
Y113919D02*
Y120015D01*
Y97536D02*
Y100203D01*
Y77851D02*
Y83947D01*
Y65278D02*
Y72517D01*
X77343Y226441D02*
Y233680D01*
Y215519D02*
Y221488D01*
Y169164D02*
Y185166D01*
Y143764D02*
Y149733D01*
Y125095D02*
Y132461D01*
Y113919D02*
Y120015D01*
Y97536D02*
Y100076D01*
Y77851D02*
Y83947D01*
Y65278D02*
Y72517D01*
X77216Y226441D02*
Y233680D01*
Y215519D02*
Y221488D01*
Y169418D02*
Y184912D01*
Y143764D02*
Y149733D01*
Y124968D02*
Y132334D01*
Y113919D02*
Y120142D01*
Y97663D02*
Y100076D01*
Y77851D02*
Y83947D01*
Y65278D02*
Y72517D01*
X77089Y226441D02*
Y233680D01*
Y215519D02*
Y221488D01*
Y169672D02*
Y184658D01*
Y143764D02*
Y149733D01*
Y124968D02*
Y132207D01*
Y113919D02*
Y120142D01*
Y97663D02*
Y99949D01*
Y77724D02*
Y83947D01*
Y65278D02*
Y72517D01*
X76962Y226441D02*
Y233680D01*
Y215519D02*
Y221488D01*
Y170053D02*
Y184277D01*
Y143764D02*
Y149733D01*
Y124841D02*
Y132207D01*
Y113919D02*
Y120142D01*
Y97790D02*
Y99949D01*
Y77724D02*
Y83820D01*
Y65278D02*
Y72517D01*
X76835Y226441D02*
Y233680D01*
Y215519D02*
Y221488D01*
Y170434D02*
Y183896D01*
Y143764D02*
Y149733D01*
Y124714D02*
Y132080D01*
Y114046D02*
Y120142D01*
Y97790D02*
Y99949D01*
Y77724D02*
Y83820D01*
Y65278D02*
Y72517D01*
X76708Y226441D02*
Y233680D01*
Y215519D02*
Y221488D01*
Y170815D02*
Y183515D01*
Y143764D02*
Y149733D01*
Y124714D02*
Y131953D01*
Y114046D02*
Y120142D01*
Y97917D02*
Y99822D01*
Y77724D02*
Y83820D01*
Y65278D02*
Y72517D01*
X76581Y226441D02*
Y233680D01*
Y215519D02*
Y221488D01*
Y171196D02*
Y183134D01*
Y143764D02*
Y149733D01*
Y124587D02*
Y131953D01*
Y114046D02*
Y120269D01*
Y97917D02*
Y99822D01*
Y77724D02*
Y83820D01*
Y65278D02*
Y72517D01*
X76454Y226441D02*
Y233680D01*
Y215519D02*
Y221488D01*
Y171704D02*
Y182753D01*
Y143764D02*
Y149733D01*
Y124587D02*
Y131826D01*
Y114046D02*
Y120269D01*
Y98044D02*
Y99695D01*
Y77724D02*
Y83820D01*
Y65278D02*
Y72517D01*
X76327Y226441D02*
Y233680D01*
Y172212D02*
Y182245D01*
Y98044D02*
Y99695D01*
Y65278D02*
Y72517D01*
X76200Y226441D02*
Y233680D01*
Y172720D02*
Y181610D01*
Y98171D02*
Y99568D01*
Y65278D02*
Y72517D01*
X76073Y226441D02*
Y233680D01*
Y173355D02*
Y181102D01*
Y98171D02*
Y99568D01*
Y65278D02*
Y72517D01*
X75946Y226441D02*
Y233680D01*
Y174244D02*
Y180213D01*
Y98171D02*
Y99441D01*
Y65278D02*
Y72517D01*
X75819Y226441D02*
Y233680D01*
Y175260D02*
Y179324D01*
Y98298D02*
Y99441D01*
Y65278D02*
Y72517D01*
X75692Y226441D02*
Y233680D01*
Y98298D02*
Y99441D01*
Y65278D02*
Y72517D01*
X75565Y226441D02*
Y233680D01*
Y98425D02*
Y99314D01*
Y65278D02*
Y72517D01*
X75438Y226441D02*
Y233680D01*
Y98425D02*
Y99314D01*
Y65278D02*
Y72517D01*
X75311Y226441D02*
Y233680D01*
Y98552D02*
Y99187D01*
Y65278D02*
Y72517D01*
X75184Y226441D02*
Y233680D01*
Y98552D02*
Y99187D01*
Y65278D02*
Y72517D01*
X75057Y226441D02*
Y233680D01*
Y98679D02*
Y99060D01*
Y65278D02*
Y72517D01*
X74930Y226441D02*
Y233680D01*
Y98679D02*
Y99060D01*
Y65278D02*
Y72517D01*
X74803Y226441D02*
Y233680D01*
Y98806D02*
Y99060D01*
Y65278D02*
Y72517D01*
X74676Y226441D02*
Y233680D01*
Y98806D02*
Y98933D01*
Y65278D02*
Y72517D01*
X74549Y226441D02*
Y233680D01*
Y65278D02*
Y72517D01*
X74422Y226441D02*
Y233680D01*
Y65278D02*
Y72517D01*
X74295Y226441D02*
Y233680D01*
Y65278D02*
Y72517D01*
X74168Y226441D02*
Y233680D01*
Y65278D02*
Y72517D01*
X74041Y226441D02*
Y233680D01*
Y65278D02*
Y72517D01*
X73914Y226441D02*
Y233680D01*
Y65278D02*
Y72517D01*
X73787Y226441D02*
Y233680D01*
Y65278D02*
Y72517D01*
X73660Y226441D02*
Y233680D01*
Y65278D02*
Y72517D01*
X73533Y226441D02*
Y233680D01*
Y65278D02*
Y72517D01*
X73406Y226441D02*
Y233680D01*
Y65278D02*
Y72517D01*
X73279Y226441D02*
Y233680D01*
Y65278D02*
Y72517D01*
X73152Y226441D02*
Y233680D01*
Y65278D02*
Y72517D01*
X73025Y226441D02*
Y233680D01*
Y65278D02*
Y72517D01*
X72898Y226441D02*
Y233680D01*
Y65278D02*
Y72517D01*
X72771Y226441D02*
Y233680D01*
Y65278D02*
Y72517D01*
X72644Y226441D02*
Y233680D01*
Y65278D02*
Y72517D01*
X72517Y226441D02*
Y233680D01*
Y65278D02*
Y72517D01*
X72390Y226441D02*
Y233680D01*
Y65278D02*
Y72517D01*
X72263Y226441D02*
Y233680D01*
Y65278D02*
Y72517D01*
X72136Y226441D02*
Y233680D01*
Y65278D02*
Y72517D01*
X72009Y65278D02*
Y233680D01*
X71882Y65278D02*
Y233680D01*
X71755Y65278D02*
Y233680D01*
X71628Y65278D02*
Y233680D01*
X71501Y65278D02*
Y233680D01*
X71374Y65278D02*
Y233680D01*
X71247Y65278D02*
Y233680D01*
X71120Y65278D02*
Y233680D01*
X70993Y65278D02*
Y233680D01*
X70866Y65278D02*
Y233680D01*
X70739Y65278D02*
Y233680D01*
X70612Y65278D02*
Y233680D01*
X70485Y65278D02*
Y233680D01*
X70358Y65278D02*
Y233680D01*
X70231Y65278D02*
Y233680D01*
X70104Y65278D02*
Y233680D01*
X69977Y65278D02*
Y233680D01*
X69850Y65278D02*
Y233680D01*
X69723Y65278D02*
Y233680D01*
X69596Y65278D02*
Y233680D01*
X69469Y65278D02*
Y233680D01*
X69342Y65278D02*
Y233680D01*
X69215Y65278D02*
Y233680D01*
X69088Y65278D02*
Y233680D01*
X68961Y65278D02*
Y233680D01*
X68834Y65278D02*
Y233680D01*
X68707Y65278D02*
Y233680D01*
X68580Y65278D02*
Y233680D01*
X68453Y65278D02*
Y233680D01*
X68326Y65278D02*
Y233680D01*
X68199Y65278D02*
Y233680D01*
X68072Y65278D02*
Y233680D01*
X67945Y65278D02*
Y233680D01*
X67818Y65278D02*
Y233680D01*
X67691Y65278D02*
Y233680D01*
X67564Y65278D02*
Y233680D01*
X67437Y65278D02*
Y233680D01*
X67310Y65278D02*
Y233680D01*
X67183Y65278D02*
Y233680D01*
X67056Y65278D02*
Y233680D01*
X66929Y65278D02*
Y233680D01*
X66802Y65278D02*
Y233680D01*
X66675Y65278D02*
Y233680D01*
X66548Y65278D02*
Y233680D01*
X66421Y65278D02*
Y233680D01*
X66294Y65278D02*
Y233680D01*
X66167Y65278D02*
Y233680D01*
X66040Y65278D02*
Y233680D01*
X65913Y65278D02*
Y233680D01*
X65786Y65278D02*
Y233680D01*
X65659Y65278D02*
Y233680D01*
X65532Y65278D02*
Y233680D01*
X65405Y65278D02*
Y233680D01*
X65278Y65278D02*
Y233680D01*
X65151Y65278D02*
Y233680D01*
X65024Y65278D02*
Y233680D01*
D30*
X601980Y148590D02*
X594362D01*
Y152399D01*
X595632Y153668D01*
X598171D01*
X599441Y152399D01*
Y148590D01*
Y151129D02*
X601980Y153668D01*
Y156208D02*
Y158747D01*
Y157477D01*
X594362D01*
X595632Y156208D01*
X600710Y162556D02*
X601980Y163825D01*
Y166364D01*
X600710Y167634D01*
X595632D01*
X594362Y166364D01*
Y163825D01*
X595632Y162556D01*
X596902D01*
X598171Y163825D01*
Y167634D01*
X588010Y148590D02*
X580392D01*
Y152399D01*
X581662Y153668D01*
X584201D01*
X585471Y152399D01*
Y148590D01*
Y151129D02*
X588010Y153668D01*
Y156208D02*
Y158747D01*
Y157477D01*
X580392D01*
X581662Y156208D01*
Y162556D02*
X580392Y163825D01*
Y166364D01*
X581662Y167634D01*
X582932D01*
X584201Y166364D01*
X585471Y167634D01*
X586740D01*
X588010Y166364D01*
Y163825D01*
X586740Y162556D01*
X585471D01*
X584201Y163825D01*
X582932Y162556D01*
X581662D01*
X584201Y163825D02*
Y166364D01*
X570232Y153668D02*
X568963Y152399D01*
Y149860D01*
X570232Y148590D01*
X575310D01*
X576580Y149860D01*
Y152399D01*
X575310Y153668D01*
X576580Y156208D02*
Y158747D01*
Y157477D01*
X568963D01*
X570232Y156208D01*
Y162556D02*
X568963Y163825D01*
Y166364D01*
X570232Y167634D01*
X575310D01*
X576580Y166364D01*
Y163825D01*
X575310Y162556D01*
X570232D01*
X563880Y148590D02*
X556263D01*
Y152399D01*
X557532Y153668D01*
X560071D01*
X561341Y152399D01*
Y148590D01*
Y151129D02*
X563880Y153668D01*
Y156208D02*
Y158747D01*
Y157477D01*
X556263D01*
X557532Y156208D01*
X556263Y162556D02*
Y167634D01*
X557532D01*
X562610Y162556D01*
X563880D01*
X533400Y110490D02*
Y118108D01*
X537209D01*
X538478Y116838D01*
Y114299D01*
X537209Y113029D01*
X533400D01*
X535939D02*
X538478Y110490D01*
X546096D02*
X541017D01*
X546096Y115568D01*
Y116838D01*
X544826Y118108D01*
X542287D01*
X541017Y116838D01*
X548635D02*
X549905Y118108D01*
X552444D01*
X553713Y116838D01*
Y111760D01*
X552444Y110490D01*
X549905D01*
X548635Y111760D01*
Y116838D01*
X523240Y101597D02*
X528318D01*
X525779D01*
Y93980D01*
X530858D02*
Y101597D01*
X534666D01*
X535936Y100328D01*
Y97789D01*
X534666Y96519D01*
X530858D01*
X542284Y93980D02*
Y101597D01*
X538475Y97789D01*
X543553D01*
X448308Y115568D02*
X447039Y116838D01*
X444500D01*
X443230Y115568D01*
Y110490D01*
X444500Y109220D01*
X447039D01*
X448308Y110490D01*
X455926Y109220D02*
X450848D01*
X455926Y114298D01*
Y115568D01*
X454656Y116838D01*
X452117D01*
X450848Y115568D01*
X377192Y146048D02*
X375923Y144779D01*
Y142240D01*
X377192Y140970D01*
X382270D01*
X383540Y142240D01*
Y144779D01*
X382270Y146048D01*
X377192Y148588D02*
X375923Y149857D01*
Y152396D01*
X377192Y153666D01*
X378462D01*
X379731Y152396D01*
X381001Y153666D01*
X382270D01*
X383540Y152396D01*
Y149857D01*
X382270Y148588D01*
X381001D01*
X379731Y149857D01*
X378462Y148588D01*
X377192D01*
X379731Y149857D02*
Y152396D01*
X396240Y137160D02*
X388623D01*
Y140969D01*
X389892Y142238D01*
X392431D01*
X393701Y140969D01*
Y137160D01*
Y139699D02*
X396240Y142238D01*
Y144777D02*
Y147317D01*
Y146047D01*
X388623D01*
X389892Y144777D01*
X396240Y154934D02*
X388623D01*
X392431Y151125D01*
Y156204D01*
X407670Y137160D02*
X400052D01*
Y140969D01*
X401322Y142238D01*
X403861D01*
X405131Y140969D01*
Y137160D01*
Y139699D02*
X407670Y142238D01*
Y144777D02*
Y147317D01*
Y146047D01*
X400052D01*
X401322Y144777D01*
X400052Y156204D02*
Y151125D01*
X403861D01*
X402592Y153665D01*
Y154934D01*
X403861Y156204D01*
X406400D01*
X407670Y154934D01*
Y152395D01*
X406400Y151125D01*
X370840Y137160D02*
X363223D01*
Y140969D01*
X364492Y142238D01*
X367031D01*
X368301Y140969D01*
Y137160D01*
Y139699D02*
X370840Y142238D01*
Y144777D02*
Y147317D01*
Y146047D01*
X363223D01*
X364492Y144777D01*
X363223Y156204D02*
X364492Y153665D01*
X367031Y151125D01*
X369570D01*
X370840Y152395D01*
Y154934D01*
X369570Y156204D01*
X368301D01*
X367031Y154934D01*
Y151125D01*
X266700Y355600D02*
Y363218D01*
X270509D01*
X271778Y361948D01*
Y359409D01*
X270509Y358139D01*
X266700D01*
X269239D02*
X271778Y355600D01*
X278126D02*
Y363218D01*
X274317Y359409D01*
X279396D01*
X234950Y431800D02*
Y439417D01*
X238759D01*
X240028Y438148D01*
Y435609D01*
X238759Y434339D01*
X234950D01*
X237489D02*
X240028Y431800D01*
X247646Y439417D02*
X242568D01*
Y435609D01*
X245107Y436878D01*
X246376D01*
X247646Y435609D01*
Y433070D01*
X246376Y431800D01*
X243837D01*
X242568Y433070D01*
X234950Y355600D02*
Y363218D01*
X238759D01*
X240028Y361948D01*
Y359409D01*
X238759Y358139D01*
X234950D01*
X237489D02*
X240028Y355600D01*
X247646D02*
X242568D01*
X247646Y360678D01*
Y361948D01*
X246376Y363218D01*
X243837D01*
X242568Y361948D01*
X250185Y355600D02*
X252724D01*
X251455D01*
Y363218D01*
X250185Y361948D01*
X203200Y431800D02*
Y439417D01*
X207009D01*
X208278Y438148D01*
Y435609D01*
X207009Y434339D01*
X203200D01*
X205739D02*
X208278Y431800D01*
X215896D02*
X210818D01*
X215896Y436878D01*
Y438148D01*
X214626Y439417D01*
X212087D01*
X210818Y438148D01*
X223513Y431800D02*
X218435D01*
X223513Y436878D01*
Y438148D01*
X222244Y439417D01*
X219705D01*
X218435Y438148D01*
X203200Y355600D02*
Y363218D01*
X207009D01*
X208278Y361948D01*
Y359409D01*
X207009Y358139D01*
X203200D01*
X205739D02*
X208278Y355600D01*
X215896D02*
X210818D01*
X215896Y360678D01*
Y361948D01*
X214626Y363218D01*
X212087D01*
X210818Y361948D01*
X218435D02*
X219705Y363218D01*
X222244D01*
X223513Y361948D01*
Y360678D01*
X222244Y359409D01*
X220974D01*
X222244D01*
X223513Y358139D01*
Y356870D01*
X222244Y355600D01*
X219705D01*
X218435Y356870D01*
X438150Y83818D02*
X443228D01*
X440689D01*
Y76200D01*
X445768D02*
Y83818D01*
X449576D01*
X450846Y82548D01*
Y80009D01*
X449576Y78739D01*
X445768D01*
X453385Y82548D02*
X454655Y83818D01*
X457194D01*
X458463Y82548D01*
Y81278D01*
X457194Y80009D01*
X455924D01*
X457194D01*
X458463Y78739D01*
Y77470D01*
X457194Y76200D01*
X454655D01*
X453385Y77470D01*
X506730Y114298D02*
Y107950D01*
X508000Y106680D01*
X510539D01*
X511808Y107950D01*
Y114298D01*
X519426Y106680D02*
X514347D01*
X519426Y111758D01*
Y113028D01*
X518156Y114298D01*
X515617D01*
X514347Y113028D01*
X467358Y228598D02*
X466089Y229867D01*
X463550D01*
X462280Y228598D01*
Y223520D01*
X463550Y222250D01*
X466089D01*
X467358Y223520D01*
X469897Y222250D02*
X472437D01*
X471167D01*
Y229867D01*
X469897Y228598D01*
X439420Y237490D02*
Y245107D01*
X443229D01*
X444498Y243838D01*
Y241299D01*
X443229Y240029D01*
X439420D01*
X441959D02*
X444498Y237490D01*
X447038D02*
X449577D01*
X448307D01*
Y245107D01*
X447038Y243838D01*
X453386Y237490D02*
X455925D01*
X454655D01*
Y245107D01*
X453386Y243838D01*
X494032Y267968D02*
X492762Y266699D01*
Y264160D01*
X494032Y262890D01*
X499110D01*
X500380Y264160D01*
Y266699D01*
X499110Y267968D01*
X492762Y270508D02*
Y275586D01*
X494032D01*
X499110Y270508D01*
X500380D01*
X439420Y250190D02*
Y257808D01*
X443229D01*
X444498Y256538D01*
Y253999D01*
X443229Y252729D01*
X439420D01*
X441959D02*
X444498Y250190D01*
X447038D02*
X449577D01*
X448307D01*
Y257808D01*
X447038Y256538D01*
X453386D02*
X454655Y257808D01*
X457194D01*
X458464Y256538D01*
Y251460D01*
X457194Y250190D01*
X454655D01*
X453386Y251460D01*
Y256538D01*
X439420Y264160D02*
Y271777D01*
X443229D01*
X444498Y270508D01*
Y267969D01*
X443229Y266699D01*
X439420D01*
X441959D02*
X444498Y264160D01*
X447038D02*
X449577D01*
X448307D01*
Y271777D01*
X447038Y270508D01*
X453386D02*
X454655Y271777D01*
X457194D01*
X458464Y270508D01*
Y269238D01*
X457194Y267969D01*
X455925D01*
X457194D01*
X458464Y266699D01*
Y265430D01*
X457194Y264160D01*
X454655D01*
X453386Y265430D01*
X439420Y276860D02*
Y284478D01*
X443229D01*
X444498Y283208D01*
Y280669D01*
X443229Y279399D01*
X439420D01*
X441959D02*
X444498Y276860D01*
X447038D02*
X449577D01*
X448307D01*
Y284478D01*
X447038Y283208D01*
X458464Y276860D02*
X453386D01*
X458464Y281938D01*
Y283208D01*
X457194Y284478D01*
X454655D01*
X453386Y283208D01*
X17778Y490218D02*
X15239D01*
X16509D01*
Y483870D01*
X15239Y482600D01*
X13970D01*
X12700Y483870D01*
X20317Y482600D02*
X22857D01*
X21587D01*
Y490218D01*
X20317Y488948D01*
X627380Y198120D02*
X619762D01*
Y201929D01*
X621032Y203198D01*
X623571D01*
X624841Y201929D01*
Y198120D01*
Y200659D02*
X627380Y203198D01*
X621032Y205737D02*
X619762Y207007D01*
Y209546D01*
X621032Y210816D01*
X622302D01*
X623571Y209546D01*
X624841Y210816D01*
X626110D01*
X627380Y209546D01*
Y207007D01*
X626110Y205737D01*
X624841D01*
X623571Y207007D01*
X622302Y205737D01*
X621032D01*
X623571Y207007D02*
Y209546D01*
X614680Y198120D02*
X607062D01*
Y201929D01*
X608332Y203198D01*
X610871D01*
X612141Y201929D01*
Y198120D01*
Y200659D02*
X614680Y203198D01*
X613410Y205737D02*
X614680Y207007D01*
Y209546D01*
X613410Y210816D01*
X608332D01*
X607062Y209546D01*
Y207007D01*
X608332Y205737D01*
X609602D01*
X610871Y207007D01*
Y210816D01*
X601980Y180340D02*
X594362D01*
Y184149D01*
X595632Y185418D01*
X598171D01*
X599441Y184149D01*
Y180340D01*
Y182879D02*
X601980Y185418D01*
Y193036D02*
Y187957D01*
X596902Y193036D01*
X595632D01*
X594362Y191766D01*
Y189227D01*
X595632Y187957D01*
X562610Y198120D02*
Y205737D01*
X566419D01*
X567688Y204468D01*
Y201929D01*
X566419Y200659D01*
X562610D01*
X565149D02*
X567688Y198120D01*
X575306Y205737D02*
X572767Y204468D01*
X570228Y201929D01*
Y199390D01*
X571497Y198120D01*
X574036D01*
X575306Y199390D01*
Y200659D01*
X574036Y201929D01*
X570228D01*
X580392Y185418D02*
X579123Y184149D01*
Y181610D01*
X580392Y180340D01*
X585470D01*
X586740Y181610D01*
Y184149D01*
X585470Y185418D01*
X586740Y191766D02*
X579123D01*
X582931Y187957D01*
Y193036D01*
X608332Y281938D02*
X607062Y280669D01*
Y278130D01*
X608332Y276860D01*
X613410D01*
X614680Y278130D01*
Y280669D01*
X613410Y281938D01*
X607062Y289556D02*
Y284478D01*
X610871D01*
X609602Y287017D01*
Y288286D01*
X610871Y289556D01*
X613410D01*
X614680Y288286D01*
Y285747D01*
X613410Y284478D01*
X599440Y279400D02*
X591823D01*
Y283209D01*
X593092Y284478D01*
X595631D01*
X596901Y283209D01*
Y279400D01*
Y281939D02*
X599440Y284478D01*
Y287017D02*
Y289557D01*
Y288287D01*
X591823D01*
X593092Y287017D01*
X580392Y281938D02*
X579123Y280669D01*
Y278130D01*
X580392Y276860D01*
X585470D01*
X586740Y278130D01*
Y280669D01*
X585470Y281938D01*
X580392Y284478D02*
X579123Y285747D01*
Y288286D01*
X580392Y289556D01*
X581662D01*
X582931Y288286D01*
Y287017D01*
Y288286D01*
X584201Y289556D01*
X585470D01*
X586740Y288286D01*
Y285747D01*
X585470Y284478D01*
X552450Y217167D02*
Y210820D01*
X553720Y209550D01*
X556259D01*
X557528Y210820D01*
Y217167D01*
X560067Y209550D02*
X562607D01*
X561337D01*
Y217167D01*
X560067Y215898D01*
X444754Y216916D02*
Y224534D01*
X448563D01*
X449832Y223264D01*
Y220725D01*
X448563Y219455D01*
X444754D01*
X452371Y216916D02*
X454911D01*
X453641D01*
Y224534D01*
X452371Y223264D01*
X81024Y330960D02*
X79755Y332229D01*
X77216D01*
X75946Y330960D01*
Y325882D01*
X77216Y324612D01*
X79755D01*
X81024Y325882D01*
X83563Y324612D02*
X86103D01*
X84833D01*
Y332229D01*
X83563Y330960D01*
X89911Y324612D02*
X92451D01*
X91181D01*
Y332229D01*
X89911Y330960D01*
X627380Y276860D02*
X619762D01*
Y280669D01*
X621032Y281938D01*
X623571D01*
X624841Y280669D01*
Y276860D01*
Y279399D02*
X627380Y281938D01*
X619762Y284478D02*
Y289556D01*
X621032D01*
X626110Y284478D01*
X627380D01*
X622300Y312418D02*
X627378D01*
X624839D01*
Y304800D01*
X629917D02*
Y312418D01*
X633726D01*
X634996Y311148D01*
Y308609D01*
X633726Y307339D01*
X629917D01*
X637535Y312418D02*
X642613D01*
Y311148D01*
X637535Y306070D01*
Y304800D01*
X647700Y198118D02*
X652778D01*
X650239D01*
Y190500D01*
X655318D02*
Y198118D01*
X659126D01*
X660396Y196848D01*
Y194309D01*
X659126Y193039D01*
X655318D01*
X662935Y196848D02*
X664205Y198118D01*
X666744D01*
X668013Y196848D01*
Y195578D01*
X666744Y194309D01*
X668013Y193039D01*
Y191770D01*
X666744Y190500D01*
X664205D01*
X662935Y191770D01*
Y193039D01*
X664205Y194309D01*
X662935Y195578D01*
Y196848D01*
X664205Y194309D02*
X666744D01*
X643636Y159002D02*
X648714D01*
X646175D01*
Y151384D01*
X651254D02*
Y159002D01*
X655062D01*
X656332Y157732D01*
Y155193D01*
X655062Y153923D01*
X651254D01*
X658871Y152654D02*
X660141Y151384D01*
X662680D01*
X663949Y152654D01*
Y157732D01*
X662680Y159002D01*
X660141D01*
X658871Y157732D01*
Y156462D01*
X660141Y155193D01*
X663949D01*
X509270Y76200D02*
Y81278D01*
X511809Y83818D01*
X514348Y81278D01*
Y76200D01*
Y80009D01*
X509270D01*
X516888Y83818D02*
Y76200D01*
X520696D01*
X521966Y77470D01*
Y82548D01*
X520696Y83818D01*
X516888D01*
X503426Y319022D02*
X502157Y320291D01*
X499618D01*
X498348Y319022D01*
Y313944D01*
X499618Y312674D01*
X502157D01*
X503426Y313944D01*
X511044Y320291D02*
X508505Y319022D01*
X505965Y316483D01*
Y313944D01*
X507235Y312674D01*
X509774D01*
X511044Y313944D01*
Y315213D01*
X509774Y316483D01*
X505965D01*
X545336Y185672D02*
X544067Y186942D01*
X541528D01*
X540258Y185672D01*
Y180594D01*
X541528Y179324D01*
X544067D01*
X545336Y180594D01*
X547876D02*
X549145Y179324D01*
X551684D01*
X552954Y180594D01*
Y185672D01*
X551684Y186942D01*
X549145D01*
X547876Y185672D01*
Y184402D01*
X549145Y183133D01*
X552954D01*
X267208Y433324D02*
Y440942D01*
X271017D01*
X272286Y439672D01*
Y437133D01*
X271017Y435863D01*
X267208D01*
X269747D02*
X272286Y433324D01*
X274825Y439672D02*
X276095Y440942D01*
X278634D01*
X279904Y439672D01*
Y438402D01*
X278634Y437133D01*
X277365D01*
X278634D01*
X279904Y435863D01*
Y434594D01*
X278634Y433324D01*
X276095D01*
X274825Y434594D01*
X548386Y108202D02*
X553464D01*
X550925D01*
Y100584D01*
X556003D02*
Y108202D01*
X559812D01*
X561082Y106932D01*
Y104393D01*
X559812Y103123D01*
X556003D01*
X568699Y108202D02*
X563621D01*
Y104393D01*
X566160Y105662D01*
X567430D01*
X568699Y104393D01*
Y101854D01*
X567430Y100584D01*
X564891D01*
X563621Y101854D01*
X592836Y108202D02*
X597914D01*
X595375D01*
Y100584D01*
X600453D02*
Y108202D01*
X604262D01*
X605532Y106932D01*
Y104393D01*
X604262Y103123D01*
X600453D01*
X613149Y108202D02*
X610610Y106932D01*
X608071Y104393D01*
Y101854D01*
X609341Y100584D01*
X611880D01*
X613149Y101854D01*
Y103123D01*
X611880Y104393D01*
X608071D01*
X188559Y477957D02*
X189755D01*
X190952Y479155D01*
X190952Y480351D01*
X190354Y480950D01*
X189157Y480950D01*
X187960Y479753D01*
X186763Y479753D01*
X186165Y480351D01*
X186164Y481549D01*
X187362Y482745D01*
X188559D01*
X184968Y474367D02*
X186164D01*
X187362Y475564D01*
X187362Y476760D01*
X184968Y479155D01*
X183771D01*
X182574Y477957D01*
Y476760D01*
X184369Y472571D02*
X180778Y476162D01*
X178384Y473768D01*
X213958Y479227D02*
X215155D01*
X216352Y480424D01*
X216353Y481622D01*
X215754Y482220D01*
X214557Y482220D01*
X213360Y481023D01*
X212163Y481023D01*
X211565Y481622D01*
X211565Y482818D01*
X212761Y484015D01*
X213958D01*
X213360Y477432D02*
X209769Y481023D01*
X207974Y479227D01*
Y478031D01*
X210368Y475637D01*
X211565D01*
X213360Y477432D01*
X206178D02*
X208572Y475038D01*
Y472644D01*
X206178D01*
X203784Y475038D01*
X205580Y473243D01*
X207974Y475637D01*
X299939Y51107D02*
X301136Y52304D01*
X300538Y51705D01*
X304128Y48115D01*
X303530Y47516D01*
X304727Y48713D01*
X304727Y55895D02*
X303530Y54698D01*
X303530Y53501D01*
X305924Y51107D01*
X307121D01*
X308318Y52304D01*
Y53501D01*
X305924Y55895D01*
X304727D01*
X310113Y54099D02*
X306523Y57690D01*
X308318Y59486D01*
X309515D01*
X310712Y58289D01*
Y57092D01*
X308916Y55296D01*
X310113Y56493D02*
X312507D01*
Y63675D02*
X310113Y61281D01*
X313704Y57690D01*
X316098Y60084D01*
X311909Y59486D02*
X313106Y60683D01*
X316098Y67266D02*
X313704Y64872D01*
X315500Y63077D01*
X316697Y64274D01*
X315500Y63077D01*
X317295Y61281D01*
X328930Y-638810D02*
X325339Y-635219D01*
X327135Y-633424D01*
X328331D01*
X329529Y-634621D01*
X329529Y-635817D01*
X327733Y-637613D01*
X328930Y-636416D02*
X331324D01*
Y-629234D02*
X328930Y-631628D01*
X332521Y-635219D01*
X334915Y-632825D01*
X330725Y-633424D02*
X331922Y-632227D01*
X335513Y-626242D02*
X334316D01*
X333119Y-627439D01*
Y-628636D01*
X333718Y-629234D01*
X334915Y-629234D01*
X336112Y-628037D01*
X337309Y-628037D01*
X337907Y-628636D01*
X337907Y-629833D01*
X336710Y-631030D01*
X335513D01*
X338506Y-622052D02*
X336112Y-624446D01*
X339703Y-628037D01*
X342097Y-625643D01*
X337907Y-626242D02*
X339104Y-625045D01*
X339703Y-620855D02*
X342097Y-618461D01*
X340900Y-619658D01*
X344491Y-623249D01*
X351338Y-635817D02*
X351338Y-634621D01*
X352535Y-633424D01*
X353731D01*
X354330Y-634022D01*
Y-635219D01*
X353731Y-635817D01*
X354330Y-635219D01*
X355527Y-635219D01*
X356125Y-635817D01*
X356125Y-637015D01*
X354929Y-638212D01*
X353731D01*
X355527Y-632825D02*
X359118Y-634022D01*
X357921Y-630431D01*
X358519Y-628636D02*
Y-627439D01*
X359716Y-626242D01*
X360913D01*
X361512Y-626840D01*
Y-628037D01*
X360913Y-628636D01*
X361512Y-628037D01*
X362709Y-628037D01*
X363307Y-628636D01*
X363307Y-629833D01*
X362110Y-631030D01*
X360913D01*
X378533Y-632825D02*
X376139Y-635219D01*
X377934Y-637015D01*
X378533Y-635219D01*
X379132Y-634621D01*
X380328D01*
X381525Y-635817D01*
X381525Y-637015D01*
X380328Y-638212D01*
X379132D01*
X380927Y-632825D02*
X384518Y-634022D01*
X383321Y-630431D01*
X404532Y-633424D02*
X403335D01*
X402138Y-634621D01*
X402137Y-635817D01*
X404532Y-638212D01*
X405728D01*
X406926Y-637015D01*
X406925Y-635817D01*
X405728Y-634621D01*
X404532Y-635817D01*
X408721Y-635219D02*
X405130Y-631628D01*
X411115Y-632825D01*
X407524Y-629234D01*
X408721Y-628037D02*
X412312Y-631628D01*
X414107Y-629833D01*
X414107Y-628636D01*
X411713Y-626242D01*
X410516D01*
X408721Y-628037D01*
X429931Y-633424D02*
X428735D01*
X427538Y-634621D01*
X427537Y-635817D01*
X429931Y-638212D01*
X431129D01*
X432326Y-637015D01*
X432325Y-635817D01*
X431129Y-634621D01*
X429931Y-635817D01*
X434121Y-635219D02*
X430530Y-631628D01*
X436515Y-632825D01*
X432924Y-629234D01*
X434121Y-628037D02*
X437712Y-631628D01*
X439507Y-629833D01*
X439507Y-628636D01*
X437113Y-626242D01*
X435916D01*
X434121Y-628037D01*
X452339Y-635219D02*
X454733Y-637613D01*
X457127D01*
Y-635219D01*
X454733Y-632825D01*
X459521Y-635219D02*
X460718Y-634022D01*
X460119Y-634621D01*
X457725Y-632227D01*
X457127Y-632825D01*
X462513Y-632227D02*
X460119Y-629833D01*
X461915Y-628037D01*
X463112D01*
X464907Y-629833D01*
X330200Y47516D02*
X326609Y51107D01*
X328405Y52902D01*
X329602D01*
X330798Y51705D01*
X330798Y50508D01*
X329003Y48713D01*
X330200Y49910D02*
X332594D01*
Y57092D02*
X330200Y54698D01*
X333791Y51107D01*
X336185Y53501D01*
X331995Y52902D02*
X333192Y54099D01*
X336783Y60084D02*
X335586D01*
X334389Y58887D01*
Y57690D01*
X334988Y57092D01*
X336185Y57092D01*
X337382Y58289D01*
X338579Y58289D01*
X339177Y57690D01*
X339177Y56493D01*
X337980Y55296D01*
X336783D01*
X339776Y64274D02*
X337382Y61880D01*
X340973Y58289D01*
X343367Y60683D01*
X339177Y60084D02*
X340374Y61281D01*
X340973Y65471D02*
X343367Y67865D01*
X342170Y66668D01*
X345761Y63077D01*
X352607Y50508D02*
X352608Y51705D01*
X353805Y52902D01*
X355001D01*
X355600Y52304D01*
Y51107D01*
X355001Y50508D01*
X355600Y51107D01*
X356797Y51107D01*
X357395Y50508D01*
X357396Y49311D01*
X356199Y48115D01*
X355001D01*
X356797Y53501D02*
X360388Y52304D01*
X359191Y55895D01*
X359789Y57690D02*
Y58887D01*
X360986Y60084D01*
X362183D01*
X362782Y59486D01*
Y58289D01*
X362183Y57690D01*
X362782Y58289D01*
X363979Y58289D01*
X364577Y57690D01*
X364577Y56493D01*
X363380Y55296D01*
X362183D01*
X379803Y53501D02*
X377409Y51107D01*
X379204Y49311D01*
X379803Y51107D01*
X380401Y51705D01*
X381599D01*
X382795Y50508D01*
X382795Y49311D01*
X381599Y48115D01*
X380401D01*
X382197Y53501D02*
X385788Y52304D01*
X384591Y55895D01*
X405802Y52902D02*
X404605D01*
X403408Y51705D01*
X403408Y50508D01*
X405802Y48115D01*
X406998D01*
X408195Y49311D01*
X408195Y50508D01*
X406998Y51705D01*
X405802Y50508D01*
X409991Y51107D02*
X406400Y54698D01*
X412385Y53501D01*
X408794Y57092D01*
X409991Y58289D02*
X413582Y54698D01*
X415377Y56493D01*
X415377Y57690D01*
X412983Y60084D01*
X411786D01*
X409991Y58289D01*
X431202Y52902D02*
X430005D01*
X428808Y51705D01*
X428807Y50508D01*
X431202Y48115D01*
X432398D01*
X433596Y49311D01*
X433595Y50508D01*
X432398Y51705D01*
X431202Y50508D01*
X435391Y51107D02*
X431800Y54698D01*
X437785Y53501D01*
X434194Y57092D01*
X435391Y58289D02*
X438982Y54698D01*
X440777Y56493D01*
X440777Y57690D01*
X438383Y60084D01*
X437186D01*
X435391Y58289D01*
X453609Y51107D02*
X456003Y48713D01*
X458397D01*
Y51107D01*
X456003Y53501D01*
X460791Y51107D02*
X461988Y52304D01*
X461389Y51705D01*
X458996Y54099D01*
X458397Y53501D01*
X463783Y54099D02*
X461389Y56493D01*
X463185Y58289D01*
X464382D01*
X466177Y56493D01*
X508000Y47516D02*
X505606Y49910D01*
Y52304D01*
X508000D01*
X510394Y49910D01*
X508599Y51705D01*
X506204Y49311D01*
X508000Y54698D02*
X511591Y51107D01*
X513386Y52902D01*
Y54099D01*
X510992Y56493D01*
X509795D01*
X508000Y54698D01*
X512189Y57690D02*
Y58887D01*
X513386Y60084D01*
X514583D01*
X516977Y57690D01*
X516977Y56493D01*
X515780Y55296D01*
X514583D01*
X512189Y57690D01*
X533400Y47516D02*
X531006Y49910D01*
Y52304D01*
X533400D01*
X535794Y49910D01*
X533998Y51705D01*
X531604Y49311D01*
X533400Y54698D02*
X536991Y51107D01*
X538786Y52902D01*
Y54099D01*
X536392Y56493D01*
X535196D01*
X533400Y54698D01*
X540582D02*
X541779Y55895D01*
X541180Y55296D01*
X537589Y58887D01*
Y57690D01*
X558800Y47516D02*
X556406Y49910D01*
Y52304D01*
X558800D01*
X561194Y49910D01*
X559398Y51705D01*
X557005Y49311D01*
X558800Y54698D02*
X562391Y51107D01*
X564186Y52902D01*
Y54099D01*
X561792Y56493D01*
X560596D01*
X558800Y54698D01*
X568376Y57092D02*
X565982Y54698D01*
Y59486D01*
X565383Y60084D01*
X564186D01*
X562989Y58887D01*
Y57690D01*
X584200Y47516D02*
X581806Y49910D01*
Y52304D01*
X584200D01*
X586594Y49910D01*
X584799Y51705D01*
X582405Y49311D01*
X584200Y54698D02*
X587791Y51107D01*
X589586Y52902D01*
Y54099D01*
X587192Y56493D01*
X585995D01*
X584200Y54698D01*
X588389Y57690D02*
Y58887D01*
X589586Y60084D01*
X590783D01*
X591382Y59486D01*
Y58289D01*
X590783Y57690D01*
X591382Y58289D01*
X592579Y58289D01*
X593177Y57690D01*
X593177Y56493D01*
X591980Y55296D01*
X590783D01*
X609600Y47516D02*
X607206Y49910D01*
Y52304D01*
X609600D01*
X611994Y49910D01*
X610199Y51705D01*
X607804Y49311D01*
X609600Y54698D02*
X613191Y51107D01*
X614986Y52902D01*
Y54099D01*
X612592Y56493D01*
X611395D01*
X609600Y54698D01*
X618577Y56493D02*
X614986Y60084D01*
Y56493D01*
X617380Y58887D01*
X635000Y47516D02*
X632606Y49910D01*
Y52304D01*
X635000D01*
X637394Y49910D01*
X635598Y51705D01*
X633204Y49311D01*
X635000Y54698D02*
X638591Y51107D01*
X640386Y52902D01*
Y54099D01*
X637992Y56493D01*
X636796D01*
X635000Y54698D01*
X640985Y60683D02*
X638591Y58289D01*
X640386Y56493D01*
X640985Y58289D01*
X641583Y58887D01*
X642780D01*
X643977Y57690D01*
X643977Y56493D01*
X642780Y55296D01*
X641583D01*
X639861Y482293D02*
X638664Y481096D01*
X639262Y481694D01*
X635672Y485285D01*
X636270Y485884D01*
X635073Y484687D01*
X635073Y477505D02*
X636270Y478702D01*
X636270Y479899D01*
X633876Y482293D01*
X632679D01*
X631482Y481096D01*
Y479899D01*
X633876Y477505D01*
X635073D01*
X632679Y476308D02*
X632679Y475111D01*
X631482Y473914D01*
X630285D01*
X627891Y476308D01*
X627891Y477505D01*
X629088Y478702D01*
X630285D01*
X632679Y476308D01*
X614461Y482293D02*
X613264Y481096D01*
X613862Y481694D01*
X610271Y485285D01*
X610870Y485884D01*
X609673Y484687D01*
X609673Y477505D02*
X610870Y478702D01*
X610870Y479899D01*
X608476Y482293D01*
X607279D01*
X606082Y481096D01*
Y479899D01*
X608476Y477505D01*
X609673D01*
X604287Y479300D02*
X603090Y478104D01*
X603688Y478702D01*
X607279Y475111D01*
X607279Y476308D01*
X589061Y482293D02*
X587864Y481096D01*
X588462Y481694D01*
X584871Y485285D01*
X585470Y485884D01*
X584273Y484687D01*
X584273Y477505D02*
X585470Y478702D01*
X585470Y479899D01*
X583076Y482293D01*
X581879D01*
X580682Y481096D01*
Y479899D01*
X583076Y477505D01*
X584273D01*
X576493Y476907D02*
X578887Y479300D01*
Y474513D01*
X579485Y473914D01*
X580682D01*
X581879Y475111D01*
X581879Y476308D01*
X563661Y482293D02*
X562464Y481096D01*
X563062Y481694D01*
X559472Y485285D01*
X560070Y485884D01*
X558873Y484687D01*
X558873Y477505D02*
X560070Y478702D01*
X560070Y479899D01*
X557676Y482293D01*
X556479D01*
X555282Y481096D01*
Y479899D01*
X557676Y477505D01*
X558873D01*
X556479Y476308D02*
X556479Y475111D01*
X555282Y473914D01*
X554085D01*
X553487Y474513D01*
Y475710D01*
X554085Y476308D01*
X553487Y475710D01*
X552290Y475710D01*
X551691Y476308D01*
X551691Y477505D01*
X552888Y478702D01*
X554085D01*
X549297Y469126D02*
X549297Y467929D01*
X548100Y466732D01*
X548100Y465535D01*
X538261Y482293D02*
X537064Y481096D01*
X537662Y481694D01*
X534072Y485285D01*
X534670Y485884D01*
X533473Y484687D01*
X533473Y477505D02*
X534670Y478702D01*
X534670Y479899D01*
X532276Y482293D01*
X531079D01*
X529882Y481096D01*
Y479899D01*
X532276Y477505D01*
X533473D01*
X526291D02*
X529882Y473914D01*
Y477505D01*
X527488Y475111D01*
X512861Y482293D02*
X511664Y481096D01*
X512262Y481694D01*
X508671Y485285D01*
X509270Y485884D01*
X508073Y484687D01*
X508073Y477505D02*
X509270Y478702D01*
X509270Y479899D01*
X506876Y482293D01*
X505679D01*
X504482Y481096D01*
Y479899D01*
X506876Y477505D01*
X508073D01*
X503884Y473316D02*
X506278Y475710D01*
X504482Y477505D01*
X503884Y475710D01*
X503285Y475111D01*
X502088D01*
X500891Y476308D01*
X500891Y477505D01*
X502088Y478702D01*
X503285D01*
X498497Y469126D02*
X498497Y467929D01*
X497300Y466732D01*
X497300Y465535D01*
X487461Y482293D02*
X486264Y481096D01*
X486862Y481694D01*
X483271Y485285D01*
X483870Y485884D01*
X482673Y484687D01*
X482673Y477505D02*
X483870Y478702D01*
X483870Y479899D01*
X481476Y482293D01*
X480279D01*
X479082Y481096D01*
Y479899D01*
X481476Y477505D01*
X482673D01*
X478484Y473316D02*
X479082Y475111D01*
Y477505D01*
X477885Y478702D01*
X476688D01*
X475491Y477505D01*
X475491Y476308D01*
X476090Y475710D01*
X477287Y475710D01*
X479082Y477505D01*
X473097Y469126D02*
X473097Y467929D01*
X471900Y466732D01*
X471900Y465535D01*
X462061Y482293D02*
X460864Y481096D01*
X461462Y481694D01*
X457872Y485285D01*
X458470Y485884D01*
X457273Y484687D01*
X457273Y477505D02*
X458470Y478702D01*
X458470Y479899D01*
X456076Y482293D01*
X454879D01*
X453682Y481096D01*
Y479899D01*
X456076Y477505D01*
X457273D01*
X455477Y475710D02*
X453084Y473316D01*
X452485Y473914D01*
Y478702D01*
X451887Y479300D01*
X420151Y481549D02*
X418954Y480352D01*
X419552Y480951D01*
X415961Y484542D01*
X416560Y485140D01*
X415363Y483943D01*
X415363Y476761D02*
X416560Y477958D01*
X416560Y479155D01*
X414166Y481549D01*
X412969D01*
X411772Y480352D01*
Y479155D01*
X414166Y476761D01*
X415363D01*
X412969Y475564D02*
X412969Y474367D01*
X411772Y473170D01*
X410575D01*
X409977Y473769D01*
Y474966D01*
X408780Y474966D01*
X408181Y475564D01*
X408181Y476761D01*
X409378Y477958D01*
X410575D01*
X411174Y477360D01*
Y476163D01*
X412371Y476163D01*
X412969Y475564D01*
X411174Y476163D02*
X409977Y474966D01*
X394751Y481549D02*
X393554Y480352D01*
X394152Y480951D01*
X390561Y484542D01*
X391160Y485140D01*
X389963Y483943D01*
X389963Y476761D02*
X391160Y477958D01*
X391160Y479155D01*
X388766Y481549D01*
X387569D01*
X386372Y480352D01*
Y479155D01*
X388766Y476761D01*
X389963D01*
X385175Y477958D02*
X383978D01*
X382781Y476761D01*
X382781Y475564D01*
X385175Y473170D01*
X386372D01*
X387569Y474367D01*
X387569Y475564D01*
X386971Y476163D01*
X385774Y476163D01*
X383978Y474367D01*
X380387Y468382D02*
X380387Y467185D01*
X379190Y465988D01*
X379190Y464791D01*
X369351Y481549D02*
X368154Y480352D01*
X368752Y480951D01*
X365162Y484542D01*
X365760Y485140D01*
X364563Y483943D01*
X364563Y476761D02*
X365760Y477958D01*
X365760Y479155D01*
X363366Y481549D01*
X362169D01*
X360972Y480352D01*
Y479155D01*
X363366Y476761D01*
X364563D01*
X359177Y478557D02*
X357980Y477360D01*
X358578Y477958D01*
X362169Y474367D01*
X362169Y475564D01*
X359177Y472572D02*
Y471375D01*
X357980Y470178D01*
X356783D01*
X354389Y472572D01*
X354389Y473769D01*
X355586Y474966D01*
X356783D01*
X359177Y472572D01*
X351995Y465390D02*
X351995Y464193D01*
X350798Y462996D01*
X350798Y461799D01*
X343951Y479753D02*
X342754Y478556D01*
X343352Y479155D01*
X339762Y482745D01*
X340360Y483344D01*
X339163Y482147D01*
X339163Y474965D02*
X340360Y476162D01*
X340360Y477359D01*
X337966Y479753D01*
X336769D01*
X335572Y478556D01*
Y477359D01*
X337966Y474965D01*
X339163D01*
X333777Y476760D02*
X332580Y475564D01*
X333178Y476162D01*
X336769Y472571D01*
X336769Y473768D01*
X330784D02*
X329587Y472571D01*
X330186Y473170D01*
X333777Y469579D01*
Y470776D01*
X327193Y464192D02*
X327193Y462995D01*
X325996Y461798D01*
X325996Y460601D01*
X318551Y479753D02*
X317354Y478556D01*
X317952Y479155D01*
X314361Y482745D01*
X314960Y483344D01*
X313763Y482147D01*
X313763Y474965D02*
X314960Y476162D01*
X314960Y477359D01*
X312566Y479753D01*
X311369D01*
X310172Y478556D01*
Y477359D01*
X312566Y474965D01*
X313763D01*
X308377Y476760D02*
X307180Y475564D01*
X307778Y476162D01*
X311369Y472571D01*
X311369Y473768D01*
X302990Y471374D02*
X305384Y473768D01*
Y468980D01*
X305983Y468382D01*
X307180D01*
X308377Y469579D01*
Y470776D01*
X293151Y479753D02*
X291954Y478556D01*
X292552Y479155D01*
X288962Y482745D01*
X289560Y483344D01*
X288363Y482147D01*
X288363Y474965D02*
X289560Y476162D01*
X289560Y477359D01*
X287166Y479753D01*
X285969D01*
X284772Y478556D01*
Y477359D01*
X287166Y474965D01*
X288363D01*
X282977Y476760D02*
X281780Y475564D01*
X282378Y476162D01*
X285969Y472571D01*
X285969Y473768D01*
X282977Y470776D02*
Y469579D01*
X281780Y468382D01*
X280583D01*
X279984Y468980D01*
Y470177D01*
X280583Y470776D01*
X279984Y470177D01*
X278787Y470177D01*
X278189Y470776D01*
X278189Y471973D01*
X279386Y473170D01*
X280583D01*
X264758Y477957D02*
X265955D01*
X267152Y479155D01*
X267153Y480351D01*
X264758Y482745D01*
X263561D01*
X262365Y481549D01*
X262365Y480351D01*
X263561Y479155D01*
X264758Y480351D01*
X260569Y479753D02*
X264160Y476162D01*
X258175Y477359D01*
X261766Y473768D01*
X260569Y472571D02*
X256978Y476162D01*
X255183Y474367D01*
X255183Y473170D01*
X257577Y470776D01*
X258774D01*
X260569Y472571D01*
X238760Y483344D02*
X241154Y480950D01*
Y478556D01*
X238760D01*
X236366Y480950D01*
X238162Y479155D01*
X240555Y481549D01*
X235169Y479753D02*
X238760Y476162D01*
X236964Y474367D01*
X235768D01*
X234571Y475564D01*
Y476760D01*
X236366Y478556D01*
X235169Y477359D02*
X232775D01*
Y470177D02*
X235169Y472571D01*
X231578Y476162D01*
X229184Y473768D01*
X233374Y474367D02*
X232177Y473170D01*
X229184Y466586D02*
X231578Y468980D01*
X229783Y470776D01*
X228586Y469579D01*
X229783Y470776D01*
X227987Y472571D01*
M02*
