%FSLAX44Y44*%
%MOMM*%
G71*
G01*
G75*
G04 Layer_Color=16711935*
G04:AMPARAMS|DCode=10|XSize=0.7112mm|YSize=0.8128mm|CornerRadius=0.0711mm|HoleSize=0mm|Usage=FLASHONLY|Rotation=270.000|XOffset=0mm|YOffset=0mm|HoleType=Round|Shape=RoundedRectangle|*
%AMROUNDEDRECTD10*
21,1,0.7112,0.6706,0,0,270.0*
21,1,0.5690,0.8128,0,0,270.0*
1,1,0.1422,-0.3353,-0.2845*
1,1,0.1422,-0.3353,0.2845*
1,1,0.1422,0.3353,0.2845*
1,1,0.1422,0.3353,-0.2845*
%
%ADD10ROUNDEDRECTD10*%
G04:AMPARAMS|DCode=11|XSize=0.7112mm|YSize=0.8128mm|CornerRadius=0.0711mm|HoleSize=0mm|Usage=FLASHONLY|Rotation=180.000|XOffset=0mm|YOffset=0mm|HoleType=Round|Shape=RoundedRectangle|*
%AMROUNDEDRECTD11*
21,1,0.7112,0.6706,0,0,180.0*
21,1,0.5690,0.8128,0,0,180.0*
1,1,0.1422,-0.2845,0.3353*
1,1,0.1422,0.2845,0.3353*
1,1,0.1422,0.2845,-0.3353*
1,1,0.1422,-0.2845,-0.3353*
%
%ADD11ROUNDEDRECTD11*%
G04:AMPARAMS|DCode=12|XSize=0.75mm|YSize=1.5mm|CornerRadius=0.075mm|HoleSize=0mm|Usage=FLASHONLY|Rotation=90.000|XOffset=0mm|YOffset=0mm|HoleType=Round|Shape=RoundedRectangle|*
%AMROUNDEDRECTD12*
21,1,0.7500,1.3500,0,0,90.0*
21,1,0.6000,1.5000,0,0,90.0*
1,1,0.1500,0.6750,0.3000*
1,1,0.1500,0.6750,-0.3000*
1,1,0.1500,-0.6750,-0.3000*
1,1,0.1500,-0.6750,0.3000*
%
%ADD12ROUNDEDRECTD12*%
%ADD13R,1.2000X1.5000*%
%ADD14R,1.5000X1.2000*%
%ADD15R,1.5000X0.8000*%
%ADD16R,1.7000X1.4000*%
%ADD17R,1.2000X3.0000*%
%ADD18C,0.2540*%
%ADD19C,3.6000*%
%ADD20R,1.5000X1.5000*%
%ADD21C,1.5000*%
%ADD22C,1.5240*%
%ADD23R,1.5240X1.5240*%
%ADD24C,3.2000*%
%ADD25C,1.2700*%
%ADD26C,0.2032*%
%ADD27C,0.1524*%
%ADD28C,0.2000*%
%ADD29C,0.0127*%
%ADD30C,0.1270*%
%ADD31R,1.4032X1.7032*%
%ADD32R,1.7032X1.4032*%
%ADD33R,1.7032X1.0032*%
%ADD34R,1.9032X1.6032*%
%ADD35R,1.4032X3.2032*%
%ADD36R,1.7032X1.7032*%
%ADD37C,1.7032*%
%ADD38C,1.7272*%
%ADD39R,1.7272X1.7272*%
%ADD40C,3.4032*%
%ADD41C,1.4732*%
D19*
X523236Y74930D02*
D03*
X482600Y76200D02*
D03*
X660400Y298450D02*
D03*
Y222250D02*
D03*
Y127000D02*
D03*
X565150Y76200D02*
D03*
X609600D02*
D03*
D36*
X508000Y196850D02*
D03*
D37*
X482600D02*
D03*
X457200D02*
D03*
D38*
X406400Y25400D02*
D03*
X431800D02*
D03*
X279400D02*
D03*
X304800D02*
D03*
X330200D02*
D03*
X355600D02*
D03*
X381000D02*
D03*
X584200Y508000D02*
D03*
X609600D02*
D03*
X457200D02*
D03*
X482600D02*
D03*
X508000D02*
D03*
X533400D02*
D03*
X558800D02*
D03*
X187960D02*
D03*
X213360D02*
D03*
X238760D02*
D03*
X264160D02*
D03*
X289560D02*
D03*
X314960D02*
D03*
X340360D02*
D03*
X365760D02*
D03*
X391160D02*
D03*
X635000Y25400D02*
D03*
X609600D02*
D03*
X584200D02*
D03*
X558800D02*
D03*
X533400D02*
D03*
D39*
X457200D02*
D03*
X635000Y508000D02*
D03*
X416560D02*
D03*
X508000Y25400D02*
D03*
D40*
X152400Y508000D02*
D03*
X139700Y25400D02*
D03*
X660400Y355600D02*
D03*
Y76200D02*
D03*
D41*
X232410Y146050D02*
D03*
X154940Y223520D02*
D03*
X342900Y304800D02*
D03*
X431800Y381000D02*
D03*
X635000Y177800D02*
D03*
Y381000D02*
D03*
Y457200D02*
D03*
X25400Y508000D02*
D03*
Y317500D02*
D03*
X254000Y25400D02*
D03*
X25400D02*
D03*
X421640Y107950D02*
D03*
X402590Y109220D02*
D03*
X109220Y311150D02*
D03*
X292100Y373380D02*
D03*
X234950D02*
D03*
X199390D02*
D03*
X60960Y430530D02*
D03*
X529590Y196850D02*
D03*
X508000Y147320D02*
D03*
X568960Y106680D02*
D03*
X612140Y125730D02*
D03*
X529590Y177800D02*
D03*
X468630Y293370D02*
D03*
X551180Y266700D02*
D03*
X519430Y299720D02*
D03*
M02*
